<?xml version="1.0" encoding="UTF-8" standalone="no"?>
<svg
   xmlns:dc="http://purl.org/dc/elements/1.1/"
   xmlns:cc="http://creativecommons.org/ns#"
   xmlns:rdf="http://www.w3.org/1999/02/22-rdf-syntax-ns#"
   xmlns:svg="http://www.w3.org/2000/svg"
   xmlns="http://www.w3.org/2000/svg"
   xmlns:sodipodi="http://sodipodi.sourceforge.net/DTD/sodipodi-0.dtd"
   xmlns:inkscape="http://www.inkscape.org/namespaces/inkscape"
   version="1.1"
   x="0px"
   y="0px"
   viewBox="0 0 2852.33 511.99978"
   xml:space="preserve"
   id="svg6"
   sodipodi:docname="kotlin.link.logo.svg"
   width="2852.3298"
   height="511.99976"
   inkscape:version="0.92.4 5da689c313, 2019-01-14"><metadata
   id="metadata12"><rdf:RDF><cc:Work
       rdf:about=""><dc:format>image/svg+xml</dc:format><dc:type
         rdf:resource="http://purl.org/dc/dcmitype/StillImage" /><dc:title></dc:title></cc:Work></rdf:RDF></metadata><defs
   id="defs10" /><sodipodi:namedview
   pagecolor="#ffffff"
   bordercolor="#666666"
   borderopacity="1"
   objecttolerance="10"
   gridtolerance="10"
   guidetolerance="10"
   inkscape:pageopacity="0"
   inkscape:pageshadow="2"
   inkscape:window-width="2560"
   inkscape:window-height="1376"
   id="namedview8"
   showgrid="false"
   inkscape:zoom="0.46093662"
   inkscape:cx="1499.1223"
   inkscape:cy="246.23653"
   inkscape:window-x="0"
   inkscape:window-y="27"
   inkscape:window-maximized="1"
   inkscape:current-layer="svg6" />
<path
   style="fill:#009dd9"
   d="m 476.85075,35.151 c 46.868,46.857 46.868,122.836 0,169.704 l -98.879,98.89 c -13.312,13.312 -28.965,22.832 -45.641,28.582 -25.364,8.743 -53.068,8.743 -78.432,0 -16.677,-5.75 -32.329,-15.27 -45.641,-28.582 -13.301,-13.312 -22.832,-28.965 -28.582,-45.641 l 2.104,-2.104 c -2.104,2.104 37.087,-37.849 37.087,-37.849 l 37.137,37.849 c 20.458,20.469 53.755,20.469 74.224,0 l 2.104,-2.104 96.786,-96.786 c 20.458,-20.458 20.458,-53.755 0,-74.224 -20.469,-20.458 -53.766,-20.458 -74.224,0 l -96.786,96.786 -39.217,15.948 -39.216,-15.949 c 5.75,-16.665 15.27,-32.329 28.582,-45.641 l 98.89,-98.879 c 46.868,-46.868 122.847,-46.868 169.704,0 z"
   id="path2"
   inkscape:connector-curvature="0" />
<path
   style="fill:#f06116"
   d="m 258.10675,179.671 c 16.665,5.75 32.318,15.281 45.63,28.593 13.312,13.301 22.843,28.965 28.593,45.63 l -2.104,2.104 c -20.469,20.469 -53.766,20.469 -74.224,0 -20.469,-20.458 -53.766,-20.458 -74.224,0 l -2.104,2.104 -96.786,96.786 c -20.469,20.469 -20.469,53.766 0,74.224 20.458,20.469 53.755,20.469 74.224,0 l 96.786,-96.786 c 25.364,8.743 53.068,8.743 78.432,0 -5.75,16.677 -15.281,32.329 -28.593,45.641 l -98.879,98.89 c -46.868,46.857 -122.847,46.857 -169.715,0 -46.857,-46.868 -46.857,-122.847 0,-169.715 l 98.89,-98.879 c 13.312,-13.312 28.965,-22.843 45.641,-28.593 25.365,-8.741 53.069,-8.741 78.433,0.001 z"
   id="path4"
   inkscape:connector-curvature="0" />
<g
   aria-label="kotlin.link"
   transform="translate(-28.202694,-43.389913)"
   style="font-style:normal;font-weight:normal;font-size:40px;line-height:1.25;font-family:sans-serif;letter-spacing:0px;word-spacing:0px;fill:#000000;fill-opacity:1;stroke:none"
   id="flowRoot822"><path
     d="m 564.00508,475.81775 h 88.66666 v -59.26667 l 22.86667,-26.59999 50.86666,85.86666 h 97.53334 l -90.06667,-151.2 87.73333,-101.26666 H 721.27174 l -68.6,84.46666 V 135.15109 h -88.66666 z"
     style="font-style:normal;font-variant:normal;font-weight:500;font-stretch:normal;font-size:466.66665649px;font-family:'Gotham Black';-inkscape-font-specification:'Gotham Black, Medium';font-variant-ligatures:normal;font-variant-caps:normal;font-variant-numeric:normal;font-feature-settings:normal;text-align:start;writing-mode:lr-tb;text-anchor:start"
     id="path830" /><path
     d="m 960.20415,481.88442 c 81.20005,0 140.00005,-60.2 140.00005,-132.06667 v -0.93333 c 0,-71.86667 -58.3334,-131.13333 -139.06671,-131.13333 -81.2,0 -140,60.2 -140,132.06666 v 0.93334 c 0,71.86666 58.33333,131.13333 139.06666,131.13333 z m 0.93334,-75.13334 c -31.26667,0 -53.66667,-26.13333 -53.66667,-56.93333 v -0.93333 c 0,-30.33333 20.53333,-56 52.73333,-56 31.26667,0 53.66665,26.13333 53.66665,56.93333 v 0.93334 c 0,30.33333 -20.53331,55.99999 -52.73331,55.99999 z"
     style="font-style:normal;font-variant:normal;font-weight:500;font-stretch:normal;font-size:466.66665649px;font-family:'Gotham Black';-inkscape-font-specification:'Gotham Black, Medium';font-variant-ligatures:normal;font-variant-caps:normal;font-variant-numeric:normal;font-feature-settings:normal;text-align:start;writing-mode:lr-tb;text-anchor:start"
     id="path832" /><path
     d="m 1235.5362,480.95108 c 24.7333,0 45.7333,-5.6 61.6,-14.46666 v -69.53334 c -10.7334,5.13334 -21.9334,8.4 -33.6,8.4 -16.3334,0 -24.2667,-7.46666 -24.2667,-25.19999 v -85.4 h 58.8 v -71.4 h -58.8 v -63.93333 h -88.6667 v 63.93333 h -29.8666 v 71.4 h 29.8666 v 102.66666 c 0,60.2 31.7334,83.53333 84.9334,83.53333 z"
     style="font-style:normal;font-variant:normal;font-weight:500;font-stretch:normal;font-size:466.66665649px;font-family:'Gotham Black';-inkscape-font-specification:'Gotham Black, Medium';font-variant-ligatures:normal;font-variant-caps:normal;font-variant-numeric:normal;font-feature-settings:normal;text-align:start;writing-mode:lr-tb;text-anchor:start"
     id="path834" /><path
     d="m 1338.2027,475.81775 h 88.6666 V 135.15109 h -88.6666 z"
     style="font-style:normal;font-variant:normal;font-weight:500;font-stretch:normal;font-size:466.66665649px;font-family:'Gotham Black';-inkscape-font-specification:'Gotham Black, Medium';font-variant-ligatures:normal;font-variant-caps:normal;font-variant-numeric:normal;font-feature-settings:normal;text-align:start;writing-mode:lr-tb;text-anchor:start"
     id="path836" /><path
     d="m 1476.3356,200.48442 h 92.4 v -65.33333 h -92.4 z m 1.8667,275.33333 h 88.6667 V 223.35109 h -88.6667 z"
     style="font-style:normal;font-variant:normal;font-weight:500;font-stretch:normal;font-size:466.66665649px;font-family:'Gotham Black';-inkscape-font-specification:'Gotham Black, Medium';font-variant-ligatures:normal;font-variant-caps:normal;font-variant-numeric:normal;font-feature-settings:normal;text-align:start;writing-mode:lr-tb;text-anchor:start"
     id="path838" /><path
     d="m 1616.3353,475.81775 h 88.6666 V 339.08442 c 0,-27.53333 15.8667,-42.46667 37.3334,-42.46667 21,0 35.4666,14.93334 35.4666,42.46667 v 136.73333 h 88.6667 v -165.2 c 0,-57.4 -32.2,-92.86666 -85.8667,-92.86666 -35.9333,0 -59.2666,20.06667 -75.6,41.06666 v -35.46666 h -88.6666 z"
     style="font-style:normal;font-variant:normal;font-weight:500;font-stretch:normal;font-size:466.66665649px;font-family:'Gotham Black';-inkscape-font-specification:'Gotham Black, Medium';font-variant-ligatures:normal;font-variant-caps:normal;font-variant-numeric:normal;font-feature-settings:normal;text-align:start;writing-mode:lr-tb;text-anchor:start"
     id="path840" /><path
     d="m 1908.468,475.81775 h 92.4 v -91 h -92.4 z"
     style="font-style:normal;font-variant:normal;font-weight:500;font-stretch:normal;font-size:466.66665649px;font-family:'Gotham Black';-inkscape-font-specification:'Gotham Black, Medium';font-variant-ligatures:normal;font-variant-caps:normal;font-variant-numeric:normal;font-feature-settings:normal;text-align:start;writing-mode:lr-tb;text-anchor:start"
     id="path842" /><path
     d="m 2046.6007,475.81775 h 88.6667 V 135.15109 h -88.6667 z"
     style="font-style:normal;font-variant:normal;font-weight:500;font-stretch:normal;font-size:466.66665649px;font-family:'Gotham Black';-inkscape-font-specification:'Gotham Black, Medium';font-variant-ligatures:normal;font-variant-caps:normal;font-variant-numeric:normal;font-feature-settings:normal;text-align:start;writing-mode:lr-tb;text-anchor:start"
     id="path844" /><path
     d="m 2184.7337,200.48442 h 92.4 v -65.33333 h -92.4 z m 1.8667,275.33333 h 88.6666 V 223.35109 h -88.6666 z"
     style="font-style:normal;font-variant:normal;font-weight:500;font-stretch:normal;font-size:466.66665649px;font-family:'Gotham Black';-inkscape-font-specification:'Gotham Black, Medium';font-variant-ligatures:normal;font-variant-caps:normal;font-variant-numeric:normal;font-feature-settings:normal;text-align:start;writing-mode:lr-tb;text-anchor:start"
     id="path846" /><path
     d="M 2324.7333,475.81775 H 2413.4 V 339.08442 c 0,-27.53333 15.8667,-42.46667 37.3333,-42.46667 21,0 35.4667,14.93334 35.4667,42.46667 v 136.73333 h 88.6667 v -165.2 c 0,-57.4 -32.2,-92.86666 -85.8667,-92.86666 -35.9333,0 -59.2667,20.06667 -75.6,41.06666 v -35.46666 h -88.6667 z"
     style="font-style:normal;font-variant:normal;font-weight:500;font-stretch:normal;font-size:466.66665649px;font-family:'Gotham Black';-inkscape-font-specification:'Gotham Black, Medium';font-variant-ligatures:normal;font-variant-caps:normal;font-variant-numeric:normal;font-feature-settings:normal;text-align:start;writing-mode:lr-tb;text-anchor:start"
     id="path848" /><path
     d="m 2620.5993,475.81775 h 88.6667 v -59.26667 l 22.8666,-26.59999 50.8667,85.86666 h 97.5333 l -90.0666,-151.2 87.7333,-101.26666 H 2777.866 l -68.6,84.46666 V 135.15109 h -88.6667 z"
     style="font-style:normal;font-variant:normal;font-weight:500;font-stretch:normal;font-size:466.66665649px;font-family:'Gotham Black';-inkscape-font-specification:'Gotham Black, Medium';font-variant-ligatures:normal;font-variant-caps:normal;font-variant-numeric:normal;font-feature-settings:normal;text-align:start;writing-mode:lr-tb;text-anchor:start"
     id="path850" /></g><flowRoot
   xml:space="preserve"
   id="flowRoot853"
   style="fill:black;fill-opacity:1;stroke:none;font-family:sans-serif;font-style:normal;font-weight:normal;font-size:40px;line-height:1.25;letter-spacing:0px;word-spacing:0px"><flowRegion
     id="flowRegion855"><rect
       id="rect857"
       width="991.45953"
       height="310.23788"
       x="1152.0022"
       y="242.9823" /></flowRegion><flowPara
     id="flowPara859"></flowPara></flowRoot></svg>