<?xml version="1.0" encoding="iso-8859-1"?>
<svg version="1.1" xmlns="http://www.w3.org/2000/svg" xmlns:xlink="http://www.w3.org/1999/xlink" x="0px" y="0px"
	 viewBox="0 0 511.999 511.999" style="enable-background:new 0 0 511.999 511.999;" xml:space="preserve">
<path d="M475.635,36.393c-48.489-48.483-127.379-48.485-175.866,0l-95.742,95.743c-12.554,12.554-22.057,27.219-28.292,43.631
	c-15.893,6.042-30.79,15.451-43.572,28.232l-95.743,95.743C12.935,323.228,0,354.456,0,387.672
	c0,33.216,12.935,64.444,36.423,87.933c24.243,24.242,56.088,36.364,87.932,36.364s63.689-12.122,87.932-36.364l95.743-95.743
	c12.554-12.555,22.057-27.219,28.29-43.63c15.894-6.042,30.791-15.451,43.573-28.233l95.743-95.743
	C524.12,163.772,524.12,84.881,475.635,36.393z M296.474,368.307l-95.742,95.743c-42.115,42.114-110.639,42.114-152.753,0
	c-20.402-20.402-31.636-47.526-31.636-76.377c0-28.852,11.235-55.976,31.636-76.376l95.743-95.743
	c42.113-42.114,110.637-42.115,152.753-0.001c3.997,3.998,7.699,8.324,11.004,12.854c2.657,3.647,7.771,4.446,11.417,1.788
	c3.646-2.658,4.446-7.77,1.788-11.417c-3.8-5.212-8.057-10.185-12.65-14.78c-10.589-10.588-22.626-18.862-35.481-24.825
	l84.998-84.999c8.04-8.039,18.749-12.467,30.156-12.467c11.406,0,22.114,4.428,30.154,12.467s12.466,18.748,12.466,30.154
	s-4.427,22.114-12.467,30.154l-95.742,95.743c-8.038,8.038-18.747,12.466-30.154,12.466c-11.406,0-22.115-4.428-30.154-12.467
	c-22.998-22.997-60.42-22.997-83.42,0l-95.742,95.743c-11.126,11.126-17.253,25.94-17.253,41.71
	c0,15.77,6.127,30.583,17.253,41.708c11.126,11.127,25.938,17.254,41.71,17.254c15.771,0,30.584-6.127,41.71-17.253l90.213-90.212
	c11.622,3.46,23.652,5.194,35.684,5.194c7.988,0,15.975-0.764,23.843-2.289C310.775,351.683,304.314,360.468,296.474,368.307z
	 M464.079,200.701l-95.743,95.743c-42.112,42.115-110.638,42.112-152.752,0.001c-3.997-3.998-7.699-8.324-11.003-12.853
	c-2.657-3.648-7.77-4.448-11.417-1.79c-3.647,2.658-4.447,7.77-1.789,11.417c3.8,5.211,8.057,10.185,12.652,14.78
	c10.588,10.588,22.626,18.862,35.48,24.826l-84.999,84.999c-8.039,8.04-18.748,12.467-30.155,12.467
	c-11.406,0-22.114-4.427-30.154-12.467c-8.038-8.038-12.466-18.747-12.466-30.153c0-11.407,4.428-22.115,12.467-30.155
	l95.742-95.742c16.626-16.626,43.674-16.626,60.301-0.008c11.132,11.133,25.945,17.261,41.716,17.261
	c15.772,0,30.584-6.127,41.71-17.253l95.741-95.742c11.127-11.126,17.254-25.94,17.254-41.71s-6.127-30.584-17.253-41.709
	c-11.126-11.127-25.938-17.254-41.709-17.254s-30.584,6.127-41.711,17.253l-90.21,90.213c-19.337-5.758-39.809-6.728-59.527-2.905
	c5.029-9.608,11.491-18.394,19.33-26.232l95.743-95.743c42.113-42.115,110.639-42.115,152.752,0
	C506.193,90.063,506.193,158.588,464.079,200.701z"/>
</svg>
