<?xml version="1.0" encoding="UTF-8" standalone="no"?>
<svg
   xmlns:dc="http://purl.org/dc/elements/1.1/"
   xmlns:cc="http://creativecommons.org/ns#"
   xmlns:rdf="http://www.w3.org/1999/02/22-rdf-syntax-ns#"
   xmlns:svg="http://www.w3.org/2000/svg"
   xmlns="http://www.w3.org/2000/svg"
   xmlns:xlink="http://www.w3.org/1999/xlink"
   xmlns:sodipodi="http://sodipodi.sourceforge.net/DTD/sodipodi-0.dtd"
   xmlns:inkscape="http://www.inkscape.org/namespaces/inkscape"
   version="1.1"
   id="Layer_1"
   x="0px"
   y="0px"
   width="100px"
   height="100px"
   viewBox="0 0 100 100"
   style="enable-background:new 0 0 100 100;"
   xml:space="preserve"
   sodipodi:docname="kotlin-birthday.svg"
   inkscape:version="1.0.1 (3bc2e813f5, 2020-09-07)"><metadata
   id="metadata84"><rdf:RDF><cc:Work
       rdf:about=""><dc:format>image/svg+xml</dc:format><dc:type
         rdf:resource="http://purl.org/dc/dcmitype/StillImage" /></cc:Work></rdf:RDF></metadata><defs
   id="defs82"><linearGradient
   id="linearGradient1143"
   gradientUnits="userSpaceOnUse"
   x1="-412.15869"
   y1="397.4707"
   x2="-411.34909"
   y2="397.4707"
   gradientTransform="matrix(114.8983,-114.8983,-114.8983,-114.8983,93020.766,-1583.25)">
      <stop
   offset="0"
   style="stop-color:#C757BC"
   id="stop1127" />
      <stop
   offset="0.1075"
   style="stop-color:#C757BC"
   id="stop1129" />
      <stop
   offset="0.2138"
   style="stop-color:#D0609A"
   id="stop1131" />
      <stop
   offset="0.4254"
   style="stop-color:#E1725C"
   id="stop1133" />
      <stop
   offset="0.6049"
   style="stop-color:#EE7E2F"
   id="stop1135" />
      <stop
   offset="0.743"
   style="stop-color:#F58613"
   id="stop1137" />
      <stop
   offset="0.8232"
   style="stop-color:#F88909"
   id="stop1139" />
      <stop
   offset="1"
   style="stop-color:#F88909"
   id="stop1141" />
    </linearGradient>
	

		
	<linearGradient
   inkscape:collect="always"
   xlink:href="#SVGID_3_"
   id="linearGradient1043"
   x1="24.362049"
   y1="13.904169"
   x2="23.126442"
   y2="8.8494225"
   gradientUnits="userSpaceOnUse"
   gradientTransform="matrix(2.8596749,0,0,2.3784288,-45.797764,-16.492806)" /><linearGradient
   inkscape:collect="always"
   xlink:href="#SVGID_3_"
   id="linearGradient1051"
   x1="41.392941"
   y1="16.252712"
   x2="37.744141"
   y2="4.5546875"
   gradientUnits="userSpaceOnUse" /><linearGradient
   inkscape:collect="always"
   xlink:href="#SVGID_3_"
   id="linearGradient1059"
   x1="58.349804"
   y1="16.066402"
   x2="55.013672"
   y2="4.5546875"
   gradientUnits="userSpaceOnUse" /><linearGradient
   inkscape:collect="always"
   xlink:href="#SVGID_3_"
   id="linearGradient1067"
   x1="75.474274"
   y1="15.65736"
   x2="72.421875"
   y2="4.5546875"
   gradientUnits="userSpaceOnUse" />
	

		
	<linearGradient
   inkscape:collect="always"
   xlink:href="#SVGID_9_"
   id="linearGradient1105"
   x1="57.429066"
   y1="37.571907"
   x2="57.429066"
   y2="80.995369"
   gradientUnits="userSpaceOnUse" /><linearGradient
   inkscape:collect="always"
   xlink:href="#linearGradient1143"
   id="linearGradient1113"
   x1="42.0625"
   y1="73.776764"
   x2="42.0625"
   y2="117.18867"
   gradientUnits="userSpaceOnUse" /></defs><sodipodi:namedview
   pagecolor="#ffffff"
   bordercolor="#666666"
   borderopacity="1"
   objecttolerance="10"
   gridtolerance="10"
   guidetolerance="10"
   inkscape:pageopacity="0"
   inkscape:pageshadow="2"
   inkscape:window-width="1920"
   inkscape:window-height="999"
   id="namedview80"
   showgrid="false"
   inkscape:zoom="8.9687075"
   inkscape:cx="55.350084"
   inkscape:cy="22.716523"
   inkscape:window-x="0"
   inkscape:window-y="0"
   inkscape:window-maximized="1"
   inkscape:current-layer="Layer_1"
   inkscape:snap-midpoints="true"
   inkscape:object-paths="true"
   inkscape:snap-intersection-paths="true"
   inkscape:snap-smooth-nodes="true"
   inkscape:snap-object-midpoints="true"
   inkscape:snap-center="true"
   inkscape:snap-text-baseline="true"
   inkscape:snap-page="true"
   inkscape:document-rotation="0" />
<style
   type="text/css"
   id="style2">
<![CDATA[
  .st0{clip-path:url(#SVGID_2_);fill:url(#SVGID_3_);}
  .st1{clip-path:url(#SVGID_5_);fill:url(#SVGID_6_);}
  .st2{clip-path:url(#SVGID_8_);fill:url(#SVGID_9_);}
]]>
</style>
<path
   style="fill:url(#linearGradient1113);stroke:none;stroke-width:0.377953;stroke-linecap:round;stroke-linejoin:round;stroke-dashoffset:7.28882;paint-order:stroke fill markers;fill-opacity:1"
   d="m 42.0625,55.943359 c -2.785331,0 -4.735051,7.241243 -6.40625,12.951172 -2.228264,7.65966 -4.17781,14.902344 -9.191406,14.902344 -5.013596,0 -7.104362,-7.242684 -9.19336,-14.902344 -1.531932,-5.570662 -3.480294,-12.533967 -6.265625,-12.8125 V 96.052734 H 88.716797 V 83.796875 c -4.874329,-0.139266 -6.963736,-7.242684 -9.052735,-14.902344 -1.531931,-5.849196 -3.620919,-12.951172 -6.40625,-12.951172 -2.78533,0 -4.735051,7.241243 -6.40625,12.951172 -2.228264,7.65966 -4.17781,14.902344 -9.191406,14.902344 -5.013596,0 -7.102408,-7.242684 -9.191406,-14.902344 C 46.936818,63.045335 44.847831,55.943359 42.0625,55.943359 Z"
   id="path1097" /><path
   style="fill:url(#linearGradient1105);stroke:none;stroke-width:0.377953;stroke-linecap:round;stroke-linejoin:round;stroke-dashoffset:7.28882;paint-order:stroke fill markers;fill-opacity:1"
   d="m 17.550781,37.560547 c -3.62093,0 -6.545517,2.924586 -6.40625,6.40625 v 9.191406 c 4.735062,0.139267 6.825065,7.379998 8.914063,14.900391 1.531932,5.849195 3.620919,12.953125 6.40625,12.953125 2.785331,0 4.735052,-7.243196 6.40625,-12.953125 2.228265,-7.65966 4.17781,-14.900391 9.191406,-14.900391 5.013595,0 7.102408,7.240731 9.191406,14.900391 1.531932,5.849195 3.620919,12.953125 6.40625,12.953125 2.785331,0 4.735051,-7.243196 6.40625,-12.953125 2.228264,-7.65966 4.177811,-14.900391 9.191406,-14.900391 5.013597,0 7.102409,7.240731 9.191407,14.900391 1.531932,5.709929 3.482247,12.674592 6.267578,12.953125 V 43.966797 c 0,-3.481664 -2.78532,-6.40625 -6.40625,-6.40625 z"
   id="path1095" /><path
   style="fill:url(#linearGradient1067);stroke:none;stroke-width:0.377953;stroke-linecap:round;stroke-linejoin:round;stroke-dashoffset:7.28882;paint-order:stroke fill markers;fill-opacity:1"
   d="m 72.421875,4.5546875 c 0.139266,1.3926655 0.138503,3.0621562 -0.279297,5.4296875 -0.815253,8.308939 7.018232,7.82911 5.84961,0.140625 C 77.295855,7.6182017 74.650139,5.8080864 72.421875,4.5546875 Z"
   id="path1035" /><path
   style="fill:url(#linearGradient1059);stroke:none;stroke-width:0.377953;stroke-linecap:round;stroke-linejoin:round;stroke-dashoffset:7.28882;paint-order:stroke fill markers;fill-opacity:1"
   d="M 55.013672,4.5546875 C 55.152938,5.947353 55.152174,7.6168437 54.734375,9.984375 54.064862,18.686908 61.862353,18.072078 60.583984,10.125 59.887651,7.6182017 57.241937,5.8080864 55.013672,4.5546875 Z"
   id="path1033" /><path
   style="fill:url(#linearGradient1051);stroke:none;stroke-width:0.377953;stroke-linecap:round;stroke-linejoin:round;stroke-dashoffset:7.28882;paint-order:stroke fill markers;fill-opacity:1"
   d="M 37.744141,4.5546875 C 37.883407,5.947353 37.884596,7.6168437 37.466797,9.984375 36.962978,18.48217 45.174763,18.338931 43.314453,10.125 42.61812,7.6182017 39.972405,5.8080864 37.744141,4.5546875 Z"
   id="path1031" /><path
   style="fill:url(#linearGradient1043);fill-opacity:1;stroke:none;stroke-width:0.377953;stroke-linecap:round;stroke-linejoin:round;stroke-dashoffset:7.28882;paint-order:stroke fill markers"
   d="M 20.335938,4.5546875 C 20.475204,5.947353 20.476393,7.6168437 20.058594,9.984375 18.960607,17.053661 27.206234,20.345952 25.90625,10.125 25.209917,7.6182017 22.564203,5.8080864 20.335938,4.5546875 Z"
   id="path88" /><g
   id="g77"
   transform="translate(117.40559,-0.72840627)">
  <g
   id="g29">
    <defs
   id="defs5">
      <polygon
   id="SVGID_1_"
   points="0,100.001 50.135,49.777 100,0 50.207,0 0,52.799 " />
    </defs>
    <clipPath
   id="SVGID_2_">
      <use
   xlink:href="#SVGID_1_"
   style="overflow:visible"
   id="use7"
   x="0"
   y="0"
   width="100%"
   height="100%" />
    </clipPath>

      <linearGradient
   id="SVGID_3_"
   gradientUnits="userSpaceOnUse"
   x1="-412.15869"
   y1="397.4707"
   x2="-411.34909"
   y2="397.4707"
   gradientTransform="matrix(114.8983,-114.8983,-114.8983,-114.8983,93020.766,-1583.25)">
      <stop
   offset="0"
   style="stop-color:#C757BC"
   id="stop10" />
      <stop
   offset="0.1075"
   style="stop-color:#C757BC"
   id="stop12" />
      <stop
   offset="0.2138"
   style="stop-color:#D0609A"
   id="stop14" />
      <stop
   offset="0.4254"
   style="stop-color:#E1725C"
   id="stop16" />
      <stop
   offset="0.6049"
   style="stop-color:#EE7E2F"
   id="stop18" />
      <stop
   offset="0.743"
   style="stop-color:#F58613"
   id="stop20" />
      <stop
   offset="0.8232"
   style="stop-color:#F88909"
   id="stop22" />
      <stop
   offset="1"
   style="stop-color:#F88909"
   id="stop24" />
    </linearGradient>
    
  </g>
  <g
   id="g52">
    <defs
   id="defs32">
      <polygon
   id="SVGID_4_"
   points="100,100.001 0,100.001 50.135,49.778 " />
    </defs>
    <clipPath
   id="SVGID_5_">
      <use
   xlink:href="#SVGID_4_"
   style="overflow:visible"
   id="use34"
   x="0"
   y="0"
   width="100%"
   height="100%" />
    </clipPath>

      <linearGradient
   id="SVGID_6_"
   gradientUnits="userSpaceOnUse"
   x1="-411.36771"
   y1="396.56931"
   x2="-410.5578"
   y2="396.56931"
   gradientTransform="matrix(58.3357,-58.3357,-58.3357,-58.3357,47145.648,-752.5)">
      <stop
   offset="0"
   style="stop-color:#0095D5"
   id="stop37" />
      <stop
   offset="0.0968"
   style="stop-color:#0095D5"
   id="stop39" />
      <stop
   offset="0.3007"
   style="stop-color:#238AD9"
   id="stop41" />
      <stop
   offset="0.6211"
   style="stop-color:#557BDE"
   id="stop43" />
      <stop
   offset="0.8643"
   style="stop-color:#7472E2"
   id="stop45" />
      <stop
   offset="1"
   style="stop-color:#806EE3"
   id="stop47" />
    </linearGradient>
    
  </g>
  <g
   id="g75">
    <defs
   id="defs55">
      <polygon
   id="SVGID_7_"
   points="0,52.799 0,0 50.207,0 " />
    </defs>
    <clipPath
   id="SVGID_8_">
      <use
   xlink:href="#SVGID_7_"
   style="overflow:visible"
   id="use57"
   x="0"
   y="0"
   width="100%"
   height="100%" />
    </clipPath>

      <linearGradient
   id="SVGID_9_"
   gradientUnits="userSpaceOnUse"
   x1="-410.44821"
   y1="393.57031"
   x2="-409.6384"
   y2="393.57031"
   gradientTransform="matrix(33.4178,-33.4178,-33.4178,-33.4178,26888.187,-532.1875)">
      <stop
   offset="0"
   style="stop-color:#0095D5"
   id="stop60" />
      <stop
   offset="0.1183"
   style="stop-color:#0095D5"
   id="stop62" />
      <stop
   offset="0.4178"
   style="stop-color:#3C83DC"
   id="stop64" />
      <stop
   offset="0.6962"
   style="stop-color:#6D74E1"
   id="stop66" />
      <stop
   offset="0.8333"
   style="stop-color:#806EE3"
   id="stop68" />
      <stop
   offset="1"
   style="stop-color:#806EE3"
   id="stop70" />
    </linearGradient>
    
  </g>
</g>
<path
   d="M 82.170573,34.774578 H 76.878444 V 19.455257 c 3.203131,-3.481663 4.45653,-6.824061 3.62093,-9.8879246 C 78.967442,3.5788707 70.472183,0.93280627 70.19365,0.79353972 c -0.696333,-0.13926655 -1.392666,0 -1.671199,0.69633278 -0.278533,0.5570662 -0.139266,1.2533989 0.4178,1.6711986 0,0 1.392665,1.3926655 0.417799,6.4062613 -0.974865,4.8743296 2.228265,8.0774596 4.87433,9.6093916 v 15.73712 H 59.609392 v -15.31932 c 3.203131,-3.481664 4.45653,-6.824061 3.62093,-9.8879251 C 61.69839,3.7181373 53.203131,1.0720728 52.924598,0.93280627 c -0.696333,-0.13926655 -1.392666,0 -1.671199,0.69633273 -0.278533,0.5570662 -0.139267,1.253399 0.4178,1.6711986 0,0 1.392665,1.3926655 0.417799,6.4062613 -0.974866,4.8743291 2.228265,8.0774601 4.874329,9.6093921 v 15.73712 H 42.34034 V 19.73379 C 45.54347,16.252127 46.796869,12.90973 45.96127,9.8458655 44.429338,3.8574038 35.934078,1.2113394 35.655545,1.0720728 c -0.696332,-0.13926653 -1.392665,0 -1.671198,0.6963328 -0.278533,0.5570662 -0.139267,1.2533989 0.417799,1.6711986 0,0 1.392666,1.3926655 0.4178,6.4062613 -0.974866,4.8743295 2.228265,8.0774595 4.874329,9.6093915 V 35.192378 H 24.932021 V 19.873057 c 3.203131,-3.481664 4.45653,-6.824061 3.62093,-9.887925 C 27.021019,3.9966704 18.52576,1.3506059 18.247227,1.2113394 c -0.696333,-0.1392666 -1.392666,0 -1.671199,0.6963327 -0.278533,0.5570662 -0.139266,1.253399 0.4178,1.6711986 0,0 1.392665,1.3926655 0.417799,6.4062613 -0.974865,4.874329 2.228265,8.07746 4.87433,9.609392 v 15.73712 h -4.735063 c -5.152862,0 -9.1915924,4.177997 -9.1915924,9.191592 v 53.339089 c 0,0.835599 0.5570662,1.392665 1.3926655,1.392665 H 90.248033 c 0.835599,0 1.392665,-0.557066 1.392665,-1.392665 V 44.105437 C 91.501432,38.952574 87.323435,34.774578 82.170573,34.774578 Z M 72.143381,9.985132 c 0.4178,-2.3675313 0.4178,-4.0387299 0.278534,-5.4313954 2.228264,1.2533989 4.874329,3.0638641 5.570662,5.5706624 1.168623,7.688485 -6.664449,8.169672 -5.849196,-0.139267 z m -17.408318,0 c 0.417799,-2.3675313 0.417799,-4.0387299 0.278533,-5.4313954 2.228265,1.2533989 4.874329,3.0638641 5.570662,5.5706624 1.278369,7.947078 -6.518708,8.563266 -5.849195,-0.139267 z m -17.269052,0 c 0.417799,-2.3675313 0.417799,-4.0387299 0.278533,-5.4313954 2.228264,1.2533989 4.874329,3.0638641 5.570662,5.5706624 1.86031,8.213931 -6.353014,8.358528 -5.849195,-0.139267 z m -17.408319,0 c 0.417799,-2.3675313 0.417799,-4.0387299 0.278533,-5.4313954 2.228265,1.2533989 4.874329,3.0638641 5.570662,5.5706624 1.299984,10.220952 -6.947182,6.930019 -5.849195,-0.139267 z M 88.716101,96.05186 H 11.005366 v 0 -39.9695 c 2.785331,0.278533 4.735063,7.241861 6.266995,12.812523 2.088998,7.65966 4.177996,14.90152 9.191592,14.90152 5.013596,0 6.963328,-7.24186 9.191592,-14.90152 1.671199,-5.709929 3.620931,-12.95179 6.406262,-12.95179 2.785331,0 4.874329,7.102594 6.406261,12.95179 2.088998,7.65966 4.177996,14.90152 9.191592,14.90152 5.013596,0 6.963328,-7.24186 9.191593,-14.90152 1.671198,-5.709929 3.62093,-12.95179 6.406261,-12.95179 2.785331,0 4.874329,7.102594 6.406261,12.95179 2.088998,7.65966 4.177997,14.762254 9.052326,14.90152 z m 0,-15.040788 C 85.93077,80.732539 83.981038,73.769212 82.449106,68.059283 80.360108,60.399623 78.27111,53.157762 73.257514,53.157762 c -5.013596,0 -6.963328,7.241861 -9.191592,14.901521 -1.671199,5.709929 -3.620931,12.951789 -6.406262,12.951789 -2.785331,0 -4.874329,-7.102594 -6.406261,-12.951789 -2.088998,-7.65966 -4.177997,-14.901521 -9.191592,-14.901521 -5.013596,0 -6.963328,7.241861 -9.191593,14.901521 -1.671198,5.709929 -3.62093,12.951789 -6.406261,12.951789 -2.785331,0 -4.874329,-7.102594 -6.406261,-12.951789 C 17.968694,60.53889 15.879695,53.297029 11.144633,53.157762 V 43.96617 c -0.139267,-3.481664 2.785331,-6.406261 6.406261,-6.406261 H 82.30984 c 3.62093,0 6.406261,2.924597 6.406261,6.406261 z"
   id="path909"
   style="stroke-width:1"
   sodipodi:nodetypes="sccccccccccccccccccccccccccccccccccccsssssscscccccccccccccccccccccscscscscccccscscscscccsssc" /><g
   id="g915"
   style="stroke-width:3.67641"
   transform="matrix(0.27200498,0,0,0.27200498,0.74506622,0.74512283)">
</g><g
   id="g917"
   style="stroke-width:3.67641"
   transform="matrix(0.27200498,0,0,0.27200498,0.74506622,0.74512283)">
</g><g
   id="g919"
   style="stroke-width:3.67641"
   transform="matrix(0.27200498,0,0,0.27200498,0.74506622,0.74512283)">
</g><g
   id="g921"
   style="stroke-width:3.67641"
   transform="matrix(0.27200498,0,0,0.27200498,0.74506622,0.74512283)">
</g><g
   id="g923"
   style="stroke-width:3.67641"
   transform="matrix(0.27200498,0,0,0.27200498,0.74506622,0.74512283)">
</g><g
   id="g925"
   style="stroke-width:3.67641"
   transform="matrix(0.27200498,0,0,0.27200498,0.74506622,0.74512283)">
</g><g
   id="g927"
   style="stroke-width:3.67641"
   transform="matrix(0.27200498,0,0,0.27200498,0.74506622,0.74512283)">
</g><g
   id="g929"
   style="stroke-width:3.67641"
   transform="matrix(0.27200498,0,0,0.27200498,0.74506622,0.74512283)">
</g><g
   id="g931"
   style="stroke-width:3.67641"
   transform="matrix(0.27200498,0,0,0.27200498,0.74506622,0.74512283)">
</g><g
   id="g933"
   style="stroke-width:3.67641"
   transform="matrix(0.27200498,0,0,0.27200498,0.74506622,0.74512283)">
</g><g
   id="g935"
   style="stroke-width:3.67641"
   transform="matrix(0.27200498,0,0,0.27200498,0.74506622,0.74512283)">
</g><g
   id="g937"
   style="stroke-width:3.67641"
   transform="matrix(0.27200498,0,0,0.27200498,0.74506622,0.74512283)">
</g><g
   id="g939"
   style="stroke-width:3.67641"
   transform="matrix(0.27200498,0,0,0.27200498,0.74506622,0.74512283)">
</g><g
   id="g941"
   style="stroke-width:3.67641"
   transform="matrix(0.27200498,0,0,0.27200498,0.74506622,0.74512283)">
</g><g
   id="g943"
   style="stroke-width:3.67641"
   transform="matrix(0.27200498,0,0,0.27200498,0.74506622,0.74512283)">
</g></svg>
