<svg id="Layer_1" data-name="Layer 1" xmlns="http://www.w3.org/2000/svg" viewBox="0 0 172.10001 83.6">
  <title>kotlinOrg_banner_dark</title>
  <rect x="55.3" y="52.09998" width="108.5" height="25.2" fill="#414d5a" opacity="0.3" style="isolation: isolate"/>
  <g>
    <path d="M55.4,19.5h3.5v6.9l6.4-6.9h4.2L63,26.2l6.7,9.1H65.5l-4.9-6.7-1.8,1.9v4.8H55.3V19.5Z" fill="#35304f"/>
    <path d="M68.4,29.3h0a6.55739,6.55739,0,0,1,13.1-.1h0a6.55739,6.55739,0,0,1-13.1.1Zm9.7,0h0a3.2672,3.2672,0,0,0-3.2-3.4,3.04441,3.04441,0,0,0-3.1,3.3h0A3.182,3.182,0,0,0,75,32.5,2.96644,2.96644,0,0,0,78.1,29.3Z" fill="#35304f"/>
    <path d="M82.7,31.8V26.1H81.3V23.2h1.4V20.1h3.4v3.1H89v2.9H86.2v5.2c0,.8.3,1.2,1.1,1.2a4.711,4.711,0,0,0,1.7-.4v2.7a5.37958,5.37958,0,0,1-2.7.7C84.1,35.4,82.7,34.6,82.7,31.8Z" fill="#35304f"/>
    <path d="M89.9,18.8h3.4V35.2H89.9Z" fill="#35304f"/>
    <path d="M94.8,18.8h3.6v3H94.8Zm.1,4.4h3.4V35.3H94.9Z" fill="#35304f"/>
    <path d="M99.7,23.2h3.4v1.7a4.27387,4.27387,0,0,1,3.5-1.9c2.6,0,4.1,1.7,4.1,4.5v7.8h-3.4V28.6c0-1.6-.8-2.5-2.1-2.5s-2.1.8-2.1,2.5v6.7H99.7Z" fill="#35304f"/>
    <path d="M116.6,27.4h0A8.48606,8.48606,0,0,1,131,21.6l-2.2,2.5a5.90082,5.90082,0,0,0-4-1.8,4.66027,4.66027,0,0,0-4.6,4.9h0a4.74759,4.74759,0,0,0,4.6,5,5.586,5.586,0,0,0,4.1-1.8l2.2,2.2a8.11389,8.11389,0,0,1-6.5,2.8A7.77844,7.77844,0,0,1,116.6,27.4Z" fill="#35304f"/>
    <path d="M130.9,29.3h0a6.5574,6.5574,0,0,1,13.1-.1h0a6.5574,6.5574,0,0,1-13.1.1Zm9.7,0h0a3.2672,3.2672,0,0,0-3.2-3.4,3.04441,3.04441,0,0,0-3.1,3.3h0a3.182,3.182,0,0,0,3.2,3.3A2.96645,2.96645,0,0,0,140.6,29.3Z" fill="#35304f"/>
    <path d="M144.6,23.2H148v1.7a4.27387,4.27387,0,0,1,3.5-1.9c2.6,0,4.1,1.7,4.1,4.5v7.8h-3.4V28.6c0-1.6-.8-2.5-2.1-2.5s-2.1.8-2.1,2.5v6.7h-3.4Z" fill="#35304f"/>
    <path d="M157.5,26.1H156V23.3h1.4v-.8a3.65541,3.65541,0,0,1,1-2.9,3.9268,3.9268,0,0,1,2.8-.9,7.37735,7.37735,0,0,1,2.4.3v2.8a4.14555,4.14555,0,0,0-1.6-.3c-.8,0-1.2.4-1.2,1.3v.5h2.8v2.8h-2.7v9.1h-3.4Z" fill="#35304f"/>
  </g>
  <g>
    <polygon points="10.6 4.8 10.6 19.4 17.9 12.1 10.6 4.8" fill="#4bb8f6"/>
    <polygon points="10.1 11.8 10.1 4.8 3.1 11.8 10.1 11.8" fill="#ff7616"/>
    <polygon points="18 35.6 18 28.6 11 35.6 18 35.6" fill="#4bb8f6"/>
    <polygon points="18.3 27.6 41.4 4.5 33.8 4.5 26.4 4.5 10.7 20.1 18.3 27.6" fill="#4bb8f6"/>
    <polygon points="18.5 35.6 25.5 35.6 18.5 28.6 18.5 35.6" fill="#4bb8f6"/>
    <polygon points="26.2 20.4 18.7 28 26.4 35.6 41.4 35.6 26.2 20.4" fill="#4bb8f6"/>
    <polygon points="10.6 35.3 17.9 28 10.6 20.7 10.6 35.3" fill="#4bb8f6"/>
  </g>
  <g>
    <path d="M53.7,5.9h6.1v.9H54.7V9.7h4.6v.9H54.7v2.9h5.2v.9H53.8V5.9Z" fill="#ff7616"/>
    <path d="M64.8,5.8h.9l3.8,8.5h-1l-1-2.2H63l-1,2.2H61Zm2.4,5.4L65.3,6.9l-1.9,4.3Z" fill="#ff7616"/>
    <path d="M71.2,5.9h3.6a3.46407,3.46407,0,0,1,2.4.8,2.35223,2.35223,0,0,1,.6,1.7h0a2.41389,2.41389,0,0,1-2.3,2.4l2.6,3.4H77L74.6,11H72.2v3.3h-.9V5.9Zm3.5,4.3c1.3,0,2.2-.6,2.2-1.7h0c0-1-.8-1.7-2.1-1.7H72.2v3.4Z" fill="#ff7616"/>
    <path d="M79.9,5.9h.9v7.5h4.7v.9H79.8V5.9Z" fill="#ff7616"/>
    <path d="M88.4,11,84.9,5.9h1.2l2.8,4.2,2.9-4.2h1.1L89.4,11v3.3h-1Z" fill="#ff7616"/>
    <path d="M98,5.9h3.6a3.39286,3.39286,0,0,1,2.2.7,2.10615,2.10615,0,0,1,.5,1.3h0A1.92429,1.92429,0,0,1,103,9.8c1,.3,1.8.9,1.8,2h0c0,1.4-1.2,2.3-3,2.3H98Zm5.3,2.2c0-.8-.7-1.4-1.9-1.4H98.8V9.6h2.5c1.2,0,2-.5,2-1.5Zm-1.8,2.4H98.8v3h2.8c1.3,0,2.1-.6,2.1-1.5h0C103.8,11,103,10.5,101.5,10.5Z" fill="#ff7616"/>
    <path d="M106.7,5.9h.9v8.4h-.9Z" fill="#ff7616"/>
    <path d="M110.1,5.9h3.6a3.46407,3.46407,0,0,1,2.4.8,2.35223,2.35223,0,0,1,.6,1.7h0a2.41389,2.41389,0,0,1-2.3,2.4l2.6,3.4h-1.2l-2.4-3.3H111v3.3h-.9Zm3.5,4.3c1.3,0,2.2-.6,2.2-1.7h0c0-1-.8-1.7-2.1-1.7h-2.6v3.4Z" fill="#ff7616"/>
    <path d="M118.8,5.9h2.9a4.23844,4.23844,0,0,1,4.5,4.2h0a4.18187,4.18187,0,0,1-4.5,4.2h-2.9Zm.9.9v6.6h2a3.25933,3.25933,0,0,0,3.5-3.3h0a3.25933,3.25933,0,0,0-3.5-3.3Z" fill="#ff7616"/>
  </g>
  <rect x="52.5" y="49.69999" width="108.5" height="25.2" fill="#ff7615"/>
  <g>
    <path d="M68.5,56.8H73a4.414,4.414,0,0,1,2.9,1,3.113,3.113,0,0,1,.8,2.2h0a2.98033,2.98033,0,0,1-2.1,3L77,66.5H74.5l-2.1-3.1H70.7v3.1H68.5V56.8Zm4.4,4.8c1.1,0,1.7-.6,1.7-1.4h0c0-.9-.6-1.4-1.7-1.4H70.8v2.8Z" fill="#fff"/>
    <path d="M78.7,56.8h7.4v1.9H80.8v2h4.6v1.9H80.8v2.1h5.3v1.9H78.6V56.8Z" fill="#fff"/>
    <path d="M87.6,61.8h0a5.05774,5.05774,0,0,1,5.1-5.1A5.9,5.9,0,0,1,96.6,58l-1.4,1.6a3.80209,3.80209,0,0,0-2.6-1,2.93407,2.93407,0,0,0-2.8,3.1h0a2.91437,2.91437,0,0,0,3,3.1,3.17335,3.17335,0,0,0,2-.6V62.8H92.6V61h4.3v4.3a6.16352,6.16352,0,0,1-4.2,1.6A4.99636,4.99636,0,0,1,87.6,61.8Z" fill="#fff"/>
    <path d="M99.1,56.8h2.2v9.8H99.1Z" fill="#fff"/>
    <path d="M103,65.2l1.3-1.5a4.67346,4.67346,0,0,0,2.9,1.2c.9,0,1.4-.4,1.4-.9h0c0-.5-.3-.8-2-1.2-2-.5-3.3-1.1-3.3-3h0c0-1.8,1.4-3,3.4-3a5.58388,5.58388,0,0,1,3.6,1.2l-1.1,1.6a4.711,4.711,0,0,0-2.5-1c-.8,0-1.3.4-1.3.9h0c0,.6.4.9,2.1,1.3,2,.5,3.1,1.2,3.1,2.9h0c0,1.9-1.5,3-3.6,3A5.45131,5.45131,0,0,1,103,65.2Z" fill="#fff"/>
    <path d="M114.7,58.8h-3v-2h8.1v2h-3v7.8h-2.2V58.8Z" fill="#fff"/>
    <path d="M121.5,56.8h7.4v1.9h-5.3v2h4.6v1.9h-4.6v2.1h5.3v1.9h-7.5V56.8Z" fill="#fff"/>
    <path d="M130.9,56.8h4.5a4.41393,4.41393,0,0,1,2.9,1,3.113,3.113,0,0,1,.8,2.2h0a2.98032,2.98032,0,0,1-2.1,3l2.4,3.5h-2.5l-2.1-3.1h-1.7v3.1h-2.2V56.8Zm4.4,4.8c1.1,0,1.7-.6,1.7-1.4h0c0-.9-.6-1.4-1.7-1.4h-2.1v2.8Z" fill="#fff"/>
    <path d="M145,63.7l3.5-1.9L145,59.9v-2l5.1,3v1.9l-5.1,3Z" fill="#fff"/>
  </g>
</svg>
