<?xml version="1.0" encoding="utf-8"?>
<!-- Generator: Adobe Illustrator 18.1.1, SVG Export Plug-In . SVG Version: 6.00 Build 0)  -->
<svg version="1.1" id="Layer_1" xmlns="http://www.w3.org/2000/svg" xmlns:xlink="http://www.w3.org/1999/xlink" x="0px" y="0px"
	 viewBox="0 0 172.1 83.6" enable-background="new 0 0 172.1 83.6" xml:space="preserve">
<rect x="55.3" y="52.1" opacity="0.3" fill="#414D5A" width="108.5" height="25.2"/>
<g>
	<g>
		<path fill="#FFFFFF" d="M55.4,19.5h3.5v6.9l6.4-6.9h4.2L63,26.2l6.7,9.1h-4.2l-4.9-6.7l-1.8,1.9v4.8h-3.5V19.5z"/>
		<path fill="#FFFFFF" d="M68.4,29.3L68.4,29.3c0-3.5,2.8-6.3,6.6-6.3c3.7,0,6.5,2.8,6.5,6.2v0c0,3.5-2.8,6.3-6.6,6.3
			C71.2,35.5,68.4,32.7,68.4,29.3z M78.1,29.3L78.1,29.3c0-1.8-1.3-3.4-3.2-3.4c-2,0-3.1,1.5-3.1,3.3v0c0,1.8,1.3,3.3,3.2,3.3
			C76.9,32.6,78.1,31.1,78.1,29.3z"/>
		<path fill="#FFFFFF" d="M82.7,31.8v-5.7h-1.4v-2.9h1.4v-3.1h3.4v3.1H89v2.9h-2.8v5.2c0,0.8,0.3,1.2,1.1,1.2c0.6,0,1.2-0.2,1.7-0.4
			v2.7c-0.7,0.4-1.6,0.7-2.7,0.7C84.1,35.4,82.7,34.6,82.7,31.8z"/>
		<path fill="#FFFFFF" d="M89.9,18.8h3.4v16.4h-3.4V18.8z"/>
		<path fill="#FFFFFF" d="M94.8,18.8h3.6v3h-3.6V18.8z M94.9,23.2h3.4v12.1h-3.4V23.2z"/>
		<path fill="#FFFFFF" d="M99.7,23.2h3.4v1.7c0.8-1,1.8-1.9,3.5-1.9c2.6,0,4.1,1.7,4.1,4.5v7.8h-3.4v-6.7c0-1.6-0.8-2.5-2.1-2.5
			c-1.3,0-2.1,0.8-2.1,2.5v6.7h-3.4V23.2z"/>
		<path fill="#FFFFFF" d="M116.6,27.4L116.6,27.4c0-4.5,3.4-8.2,8.2-8.2c3,0,4.8,1,6.2,2.4l-2.2,2.5c-1.2-1.1-2.5-1.8-4-1.8
			c-2.7,0-4.6,2.2-4.6,4.9v0c0,2.7,1.9,5,4.6,5c1.8,0,2.9-0.7,4.1-1.8l2.2,2.2c-1.6,1.7-3.4,2.8-6.5,2.8
			C120,35.5,116.6,31.9,116.6,27.4z"/>
		<path fill="#FFFFFF" d="M130.9,29.3L130.9,29.3c0-3.5,2.8-6.3,6.6-6.3c3.7,0,6.5,2.8,6.5,6.2v0c0,3.5-2.8,6.3-6.6,6.3
			C133.7,35.5,130.9,32.7,130.9,29.3z M140.6,29.3L140.6,29.3c0-1.8-1.3-3.4-3.2-3.4c-2,0-3.1,1.5-3.1,3.3v0c0,1.8,1.3,3.3,3.2,3.3
			C139.4,32.6,140.6,31.1,140.6,29.3z"/>
		<path fill="#FFFFFF" d="M144.6,23.2h3.4v1.7c0.8-1,1.8-1.9,3.5-1.9c2.6,0,4.1,1.7,4.1,4.5v7.8h-3.4v-6.7c0-1.6-0.8-2.5-2.1-2.5
			c-1.3,0-2.1,0.8-2.1,2.5v6.7h-3.4V23.2z"/>
		<path fill="#FFFFFF" d="M157.5,26.1H156v-2.8h1.4v-0.8c0-1.3,0.3-2.3,1-2.9c0.6-0.6,1.6-0.9,2.8-0.9c1.1,0,1.8,0.1,2.4,0.3v2.8
			c-0.5-0.2-1-0.3-1.6-0.3c-0.8,0-1.2,0.4-1.2,1.3v0.5h2.8v2.8h-2.7v9.1h-3.4V26.1z"/>
	</g>
</g>
<g>
	<polygon fill="#4BB8F6" points="10.6,4.8 10.6,19.4 17.9,12.1 	"/>
	<polygon fill="#FF7616" points="10.1,11.8 10.1,4.8 3.1,11.8 	"/>
	<polygon fill="#4BB8F6" points="18,35.6 18,28.6 11,35.6 	"/>
	<polygon fill="#4BB8F6" points="18.3,27.6 41.4,4.5 33.8,4.5 26.4,4.5 10.7,20.1 	"/>
	<polygon fill="#4BB8F6" points="18.5,35.6 25.5,35.6 18.5,28.6 	"/>
	<polygon fill="#4BB8F6" points="26.2,20.4 18.7,28 26.4,35.6 41.4,35.6 	"/>
	<polygon fill="#4BB8F6" points="10.6,35.3 17.9,28 10.6,20.7 	"/>
</g>
<g>
	<path fill="#EE9529" d="M53.7,5.9h6.1v0.9h-5.1v2.9h4.6v0.9h-4.6v2.9h5.2v0.9h-6.1V5.9z"/>
	<path fill="#EE9529" d="M64.8,5.8h0.9l3.8,8.5h-1l-1-2.2H63l-1,2.2h-1L64.8,5.8z M67.2,11.2l-1.9-4.3l-1.9,4.3H67.2z"/>
	<path fill="#EE9529" d="M71.2,5.9h3.6c1,0,1.9,0.3,2.4,0.8c0.4,0.4,0.6,1,0.6,1.7v0c0,1.4-1,2.2-2.3,2.4l2.6,3.4H77L74.6,11h-2.4
		v3.3h-0.9V5.9z M74.7,10.2c1.3,0,2.2-0.6,2.2-1.7v0c0-1-0.8-1.7-2.1-1.7h-2.6v3.4H74.7z"/>
	<path fill="#EE9529" d="M79.9,5.9h0.9v7.5h4.7v0.9h-5.7V5.9z"/>
	<path fill="#EE9529" d="M88.4,11l-3.5-5.1h1.2l2.8,4.2l2.9-4.2h1.1L89.4,11v3.3h-1V11z"/>
	<path fill="#EE9529" d="M98,5.9h3.6c1,0,1.7,0.3,2.2,0.7c0.3,0.4,0.5,0.8,0.5,1.3v0c0,1.1-0.7,1.7-1.3,1.9c1,0.3,1.8,0.9,1.8,2v0
		c0,1.4-1.2,2.3-3,2.3H98V5.9z M103.3,8.1c0-0.8-0.7-1.4-1.9-1.4h-2.6v2.9h2.5C102.5,9.6,103.3,9.1,103.3,8.1L103.3,8.1z
		 M101.5,10.5h-2.7v3h2.8c1.3,0,2.1-0.6,2.1-1.5v0C103.8,11,103,10.5,101.5,10.5z"/>
	<path fill="#EE9529" d="M106.7,5.9h0.9v8.4h-0.9V5.9z"/>
	<path fill="#EE9529" d="M110.1,5.9h3.6c1,0,1.9,0.3,2.4,0.8c0.4,0.4,0.6,1,0.6,1.7v0c0,1.4-1,2.2-2.3,2.4l2.6,3.4h-1.2l-2.4-3.3
		h-2.4v3.3h-0.9V5.9z M113.6,10.2c1.3,0,2.2-0.6,2.2-1.7v0c0-1-0.8-1.7-2.1-1.7h-2.6v3.4H113.6z"/>
	<path fill="#EE9529" d="M118.8,5.9h2.9c2.6,0,4.5,1.8,4.5,4.2v0c0,2.4-1.8,4.2-4.5,4.2h-2.9V5.9z M119.7,6.8v6.6h2
		c2.1,0,3.5-1.4,3.5-3.3v0c0-1.9-1.4-3.3-3.5-3.3H119.7z"/>
</g>
<rect x="52.5" y="49.7" fill="#EE9529" width="108.5" height="25.2"/>
<g>
	<path fill="#FFFFFF" d="M68.5,56.8H73c1.2,0,2.2,0.4,2.9,1c0.5,0.5,0.8,1.3,0.8,2.2v0c0,1.6-0.9,2.6-2.1,3l2.4,3.5h-2.5l-2.1-3.1
		h-1.7v3.1h-2.2V56.8z M72.9,61.6c1.1,0,1.7-0.6,1.7-1.4v0c0-0.9-0.6-1.4-1.7-1.4h-2.1v2.8H72.9z"/>
	<path fill="#FFFFFF" d="M78.7,56.8h7.4v1.9h-5.3v2h4.6v1.9h-4.6v2.1h5.3v1.9h-7.5V56.8z"/>
	<path fill="#FFFFFF" d="M87.6,61.8L87.6,61.8c0-2.8,2.2-5.1,5.1-5.1c1.8,0,2.8,0.5,3.9,1.3l-1.4,1.6c-0.8-0.6-1.4-1-2.6-1
		c-1.6,0-2.8,1.4-2.8,3.1v0c0,1.8,1.2,3.1,3,3.1c0.8,0,1.5-0.2,2-0.6v-1.4h-2.2V61h4.3v4.3c-1,0.9-2.4,1.6-4.2,1.6
		C89.7,66.8,87.6,64.7,87.6,61.8z"/>
	<path fill="#FFFFFF" d="M99.1,56.8h2.2v9.8h-2.2V56.8z"/>
	<path fill="#FFFFFF" d="M103,65.2l1.3-1.5c0.9,0.7,1.8,1.2,2.9,1.2c0.9,0,1.4-0.4,1.4-0.9v0c0-0.5-0.3-0.8-2-1.2
		c-2-0.5-3.3-1.1-3.3-3v0c0-1.8,1.4-3,3.4-3c1.4,0,2.6,0.4,3.6,1.2l-1.1,1.6c-0.9-0.6-1.7-1-2.5-1s-1.3,0.4-1.3,0.9v0
		c0,0.6,0.4,0.9,2.1,1.3c2,0.5,3.1,1.2,3.1,2.9v0c0,1.9-1.5,3-3.6,3C105.7,66.8,104.2,66.3,103,65.2z"/>
	<path fill="#FFFFFF" d="M114.7,58.8h-3v-2h8.1v2h-3v7.8h-2.2V58.8z"/>
	<path fill="#FFFFFF" d="M121.5,56.8h7.4v1.9h-5.3v2h4.6v1.9h-4.6v2.1h5.3v1.9h-7.5V56.8z"/>
	<path fill="#FFFFFF" d="M130.9,56.8h4.5c1.2,0,2.2,0.4,2.9,1c0.5,0.5,0.8,1.3,0.8,2.2v0c0,1.6-0.9,2.6-2.1,3l2.4,3.5h-2.5l-2.1-3.1
		h-1.7v3.1h-2.2V56.8z M135.3,61.6c1.1,0,1.7-0.6,1.7-1.4v0c0-0.9-0.6-1.4-1.7-1.4h-2.1v2.8H135.3z"/>
	<path fill="#FFFFFF" d="M145,63.7l3.5-1.9l-3.5-1.9v-2l5.1,3v1.9l-5.1,3V63.7z"/>
</g>
</svg>
