<?xml version="1.0" encoding="UTF-8"?>
<!-- Generator: Adobe Illustrator 18.1.1, SVG Export Plug-In . SVG Version: 6.00 Build 0)  -->
<svg version="1.1" id="Layer_1" xmlns="http://www.w3.org/2000/svg" xmlns:xlink="http://www.w3.org/1999/xlink" x="0px" y="0px" viewBox="0 0 841.9 595.3" enable-background="new 0 0 841.9 595.3" xml:space="preserve">
<polygon fill="#EE9529" points="52.1,0 52.1,588.4 423.5,525.5 789.8,588.4 789.8,0 "/>
<g>
	<polygon fill="#1A354A" points="125.9,85.9 145.5,85.9 145.5,124 180.7,85.9 203.8,85.9 168.6,122.9 205.5,173 182.4,173    155.3,136.1 145.5,146.5 145.5,173 125.9,173  "/>
	<path fill="#1A354A" d="M195.7,140.2L195.7,140.2c0-19.6,15.6-35.2,36.3-35.2c20.8,0,36.3,15.6,36.3,34.6l0,0   c0,19-15.6,34.6-36.3,34.6C210.7,174.8,195.7,159.2,195.7,140.2 M249.3,140.2L249.3,140.2c0-10.4-6.9-18.5-17.9-18.5   s-17.3,8.7-17.3,18.5l0,0c0,9.8,6.9,18.5,17.9,18.5C242.4,158.6,249.3,150,249.3,140.2"/>
	<path fill="#1A354A" d="M273,154v-31.7h-8.1v-16.2h8.1V88.8h19v17.3h15.6v16.2H292v28.8c0,4.6,1.7,6.3,6.3,6.3   c3.5,0,6.3-1.2,9.2-2.3v15c-4,2.3-8.7,4-15,4C281.1,174.2,273,169.6,273,154"/>
	<rect x="313.4" y="81.9" fill="#1A354A" width="19" height="91.1"/>
	<path fill="#1A354A" d="M339.3,81.9h20.2v16.7h-20.2V81.9z M339.9,106.1h19V173h-19V106.1z"/>
	<path fill="#1A354A" d="M365.9,106.1h19v9.2c4.6-5.8,9.8-11,19.6-11c14.4,0,22.5,9.2,22.5,24.8V173h-19v-37.5   c0-9.2-4-13.8-11.5-13.8c-7.5,0-12.1,4.6-12.1,13.8V173h-19v-66.9H365.9z"/>
	<g>
		<path fill="#1A354A" d="M455.3,129.8L455.3,129.8c0-26,19-47.3,45.6-47.3c16.2,0,26,5.8,35.2,14.4l-4.6,5.2    c-8.1-7.5-16.7-13.3-30.6-13.3c-21.9,0-38.1,17.9-38.1,40.4l0,0c0,23.1,16.7,41,38.6,41c13.3,0,21.9-5.2,31.1-14.4l4.6,4.6    c-9.8,9.2-20.2,15.6-36.3,15.6C474.9,176.5,455.3,155.7,455.3,129.8z"/>
		<path fill="#1A354A" d="M538.3,141.9L538.3,141.9c0-19,14.4-34.6,34-34.6c19.6,0,34,15.6,34,34.6l0,0c0,18.5-14.4,34.6-34,34.6    C552.7,176.5,538.3,160.4,538.3,141.9z M599.5,141.9L599.5,141.9c0-16.2-12.1-28.8-27.1-28.8c-15.6,0-27.1,12.7-27.1,28.3l0,0    c0,16.2,12.1,28.8,27.1,28.8C587.9,170.2,599.5,157.5,599.5,141.9z"/>
		<path fill="#1A354A" d="M616.2,108.4h6.3v12.7c4.6-7.5,11.5-13.8,23.6-13.8c16.7,0,26.5,11.5,26.5,27.1v40.4h-6.3v-39.2    c0-13.8-7.5-22.5-20.8-22.5c-12.7,0-23.1,9.8-23.1,23.6v38.1h-6.3V108.4z"/>
		<path fill="#1A354A" d="M689.5,114.2h-9.8v-5.8h9.8v-6.3c0-7.5,2.3-13.3,5.8-17.3c3.5-3.5,8.1-5.2,13.8-5.2c4,0,6.9,0.6,9.8,1.7    v5.8c-4-1.2-6.3-1.7-9.8-1.7c-9.2,0-13.3,5.2-13.3,16.7v6.3h23.1v5.8h-23.1v60.6h-6.3V114.2z"/>
	</g>
</g>
<g>
	<path fill="#1A354A" d="M211.2,278.8V220h34.2v5.5h-28.1v19.9H242v5.5h-24.6v21.9h29.4v5.5h-35.6V278.8z"/>
	<path fill="#1A354A" d="M285.8,260.7h-23.3l-6.8,17.8h-6.8l21.9-58.9h6.8l22.6,58.9h-7.5L285.8,260.7z M263.9,255.2h19.9l-9.6-28.1   L263.9,255.2z"/>
	<path fill="#1A354A" d="M320.7,219.6c16.4,0,24,6.2,24,15.7c0,8.2-5.5,13.7-13,16.4l16.4,26.7h-8.2l-15.1-24.6   c-3.4,0.7-6.8,0.7-10.3,0.7v24.6h-6.8v-59.6H320.7z M314.5,248.4c11.6,0,23.3-2.7,23.3-13c0-6.8-5.5-11-16.4-11h-6.2v24H314.5z"/>
	<path fill="#1A354A" d="M358.3,278.5v-58.9h6.8v52.7h28.1v6.2L358.3,278.5L358.3,278.5z"/>
	<path fill="#1A354A" d="M410.3,259.3v19.2h-6.8v-19.2l-19.9-39.7h7.5l15.7,32.9l15.7-32.9h6.8L410.3,259.3z"/>
	<path fill="#1A354A" d="M474,278.5h-15.1v-58.9h14.4c17.1,0,20.5,7.5,20.5,14.4s-4.1,11-9.6,12.3c7.5,1.4,13,7.5,13,15.1   C497.3,274.4,489.1,278.5,474,278.5z M473.3,225.1h-7.5v19.9h6.2c11.6,0,14.4-4.8,14.4-10.3C487,229.9,484.3,225.1,473.3,225.1z    M473.3,250.4h-7.5V273h8.9c8.9,0,15.7-2.7,15.7-11C490.4,252.5,481.5,250.4,473.3,250.4z"/>
	<path fill="#1A354A" d="M508.9,278.5v-58.9h6.8v58.9H508.9z"/>
	<path fill="#1A354A" d="M547.2,219.6c16.4,0,24,6.2,24,15.7c0,8.2-5.5,13.7-13,16.4l16.4,26.7h-8.2L552,253.8   c-3.4,0.7-6.8,0.7-10.3,0.7v24.6h-6.8v-59.6H547.2z M540.4,248.4c11.6,0,23.3-2.7,23.3-13c0-6.8-5.5-11-16.4-11h-6.2v24H540.4z"/>
	<path fill="#1A354A" d="M601.3,278.5h-16.4v-58.9H602c24,0,28.7,16.4,28.7,28.7C630.1,261.4,626,278.5,601.3,278.5z M600.6,225.1   H591V273h11c17.8,0,21.2-13.7,21.2-24C623.2,238.8,619.8,225.1,600.6,225.1z"/>
</g>
<g>
	<g>
		<path fill="#FFFFFF" d="M148.4,413.4c16.7,0,24.2,5.8,24.2,16.2c0,8.7-5.2,13.8-13.3,16.7l16.7,26.5h-8.7L153,447.4    c-3.5,0.6-6.9,0.6-10.4,0.6v24.8h-6.9v-59.4H148.4z M141.5,442.8c12.1,0.6,23.1-2.9,23.1-12.7c0-6.9-5.2-11-16.7-11h-6.3V442.8z"/>
		<path fill="#FFFFFF" d="M176.7,473.4h-10.4L151.9,448c-2.9,0.6-6.3,0.6-9.8,0.6v24.8H134v-60.6h14.4c20.2,0,24.8,9.2,24.8,16.7    c0,8.1-4.6,13.8-13.3,16.7L176.7,473.4z M167.4,472.2h6.9l-16.2-26.5h1.2c5.8-1.7,12.7-6.3,12.7-15.6c0-10.4-8.1-15.6-23.1-15.6    h-12.7v57.7h5.2v-24.8h0.6c3.5,0,6.9,0,10.4-0.6h0.6L167.4,472.2z M143.2,443.4c-0.6,0-1.2,0-1.7,0h-0.6v-24.8h7.5    c11.5,0,17.3,4,17.3,11.5c0,4.6-2.3,8.7-6.9,11C154.7,442.2,149.6,443.4,143.2,443.4z M142.6,441.7c6.3,0,12.1-0.6,15.6-2.9    c4-2.3,6.3-5.2,6.3-9.2c0-6.9-5.2-9.8-15.6-9.8h-6.3C142.6,419.7,142.6,441.7,142.6,441.7z"/>
	</g>
	<g>
		<path fill="#FFFFFF" d="M186.5,472.8v-59.4h35.2v5.8h-28.3v20.2h25.4v5.8h-25.4v22.5h30v5.8h-36.9V472.8z"/>
		<path fill="#FFFFFF" d="M224,473.4h-38.1v-60.6h36.3v6.9H194v18.5h25.4v6.9H194v21.3h30V473.4z M187,472.2h35.2v-4h-30v-23.6h25.4    v-4h-25.4v-21.3h28.3v-4H187L187,472.2L187,472.2z"/>
	</g>
	<g>
		<path fill="#FFFFFF" d="M276.5,468.8c-6.9,3.5-12.1,5.2-20.2,5.2c-19.6,0-27.1-13.8-27.1-29.4s7.5-32.3,28.8-32.3    c7.5,0,13.8,2.3,17.9,4l-2.3,5.8c-4-1.7-9.8-4-16.2-4c-17.3,0-21.9,13.3-21.9,26c0,13.8,6.9,24.2,20.8,24.2    c5.2,0,8.1-0.6,13.3-2.9v-19.6h6.3v23.1H276.5z"/>
		<path fill="#FFFFFF" d="M256.3,474.5c-17.9,0-28.3-11.5-28.3-30.6c0-15.6,8.1-32.9,30-32.9c6.3,0,12.1,1.2,18.5,4h0.6l-2.9,6.9    l-0.6-0.6c-5.2-2.3-11-3.5-15.6-3.5c-18.5,0-20.8,15.6-20.8,24.8c0,15,7.5,23.6,19.6,23.6c5.2,0,8.1-0.6,12.7-2.3v-19.6h7.5v24.2    h-0.6C269.5,473.4,263.8,474.5,256.3,474.5z M258,412.8c-20.8,0-28.3,16.2-28.3,31.1c0,17.9,9.8,28.8,26.5,28.8    c7.5,0,12.7-1.2,19.6-4.6v-21.9h-5.2v19.6h-0.6c-5.2,2.3-8.1,2.9-13.3,2.9c-13.3,0-21.3-9.8-21.3-25.4c0-9.8,2.9-26.5,22.5-26.5    c5.2,0,10.4,1.2,15.6,3.5l1.7-4C269.5,414,263.8,412.8,258,412.8z"/>
	</g>
	<g>
		<path fill="#FFFFFF" d="M291.4,472.8v-59.4h6.9v59.4L291.4,472.8L291.4,472.8z"/>
		<path fill="#FFFFFF" d="M298.9,473.4h-8.1v-60.6h8.1V473.4z M292,472.2h5.2V414H292V472.2z"/>
	</g>
	<g>
		<path fill="#FFFFFF" d="M327.8,474c-6.9,0-13.3-1.7-17.9-4l2.3-6.3c5.8,2.9,11.5,4.6,16.7,4.6c6.9,0,12.7-3.5,12.7-9.8    c0-15-29.4-12.7-29.4-31.7c0-10.4,8.7-14.4,17.9-14.4c4,0,9.2,1.2,14.4,2.9l-1.7,5.8c-4.6-2.3-9.2-2.9-12.7-2.9    c-6.3,0-11,2.9-11,8.1c0,13.8,29.4,11.5,29.4,31.7C348,469.9,337.6,474,327.8,474z"/>
		<path fill="#FFFFFF" d="M327.8,474.5c-7.5,0-13.8-2.3-18.5-4h-0.6l2.9-8.1l0.6,0.6c5.8,2.9,11.5,4.6,16.2,4.6    c5.8,0,12.1-2.3,12.1-9.2c0-6.3-6.3-9.8-12.7-12.7c-7.5-4-16.2-8.1-16.2-18.5c0-9.2,6.9-15,18.5-15c4.6,0,9.2,1.2,15,2.9h0.6    l-2.3,7.5l-0.6-0.6c-4-1.7-8.7-2.9-12.7-2.9c-2.9,0-10.4,0.6-10.4,7.5c0,5.8,5.8,8.7,12.1,11.5c8.1,4,17.3,8.7,17.3,19.6    C348.6,473.4,332.4,474.5,327.8,474.5z M310.5,469.9c4,1.7,10.4,3.5,17.3,3.5c4.6,0,19.6-1.2,19.6-15c0-10.4-8.1-14.4-16.2-18.5    c-6.9-3.5-13.3-6.3-13.3-13.3c0-5.8,4.6-9.2,12.1-9.2c2.3,0,6.9,0.6,12.1,2.3l1.2-4.6c-5.2-1.7-9.8-2.3-13.8-2.3    s-17.3,1.2-17.3,13.8c0,9.8,8.1,13.3,15.6,17.3c6.9,3.5,13.8,6.9,13.8,14.4c0,6.3-5.2,11-13.3,11c-4.6,0-10.4-1.7-16.2-4    L310.5,469.9z"/>
	</g>
	<g>
		<path fill="#FFFFFF" d="M374.5,419.2v53.6h-6.9v-53.6h-20.2v-5.8h47.9v5.8H374.5z"/>
		<path fill="#FFFFFF" d="M375.1,473.4H367v-53.6h-20.8v-7.5h49.6v7.5h-20.8V473.4z M368.2,472.2h5.2v-53.6h20.8V414h-46.7v4.6h20.2    v53.6H368.2z"/>
	</g>
	<g>
		<path fill="#FFFFFF" d="M401,472.8v-59.4h35.2v5.8H408v20.2h25.4v5.8H408v22.5h30v5.8H401V472.8z"/>
		<path fill="#FFFFFF" d="M438.5,473.4h-38.1v-60.6h36.3v6.9h-28.3v18.5h25.4v6.9h-25.4v21.3h30V473.4z M401.6,472.2h35.2v-4h-30    v-23.6h25.4v-4h-25.4v-21.3h28.3v-4h-33.5L401.6,472.2L401.6,472.2z"/>
	</g>
	<g>
		<path fill="#FFFFFF" d="M463.3,413.4c16.7,0,24.2,5.8,24.2,16.2c0,8.7-5.2,13.8-13.3,16.7l16.7,26.5h-8.7l-15-25.4    c-3.5,0.6-6.9,0.6-10.4,0.6v24.8h-6.9v-59.4H463.3z M457,442.8c12.1,0.6,23.1-2.9,23.1-12.7c0-6.9-5.2-11-16.7-11H457V442.8z"/>
		<path fill="#FFFFFF" d="M491.6,473.4h-10.4L466.8,448c-2.9,0.6-6.3,0.6-9.8,0.6v24.8h-8.1v-60.6h14.4c20.2,0,24.8,9.2,24.8,16.7    c0,8.1-4.6,13.8-13.3,16.7L491.6,473.4z M482.4,472.2h6.9l-16.2-26.5h1.2c5.8-1.7,12.7-6.3,12.7-15.6c0-10.4-8.1-15.6-23.1-15.6    h-12.7v57.7h4.6v-24.8h0.6c3.5,0,6.9,0,10.4-0.6h0.6L482.4,472.2z M458.2,443.4c-0.6,0-1.2,0-1.7,0h-0.6v-24.8h7.5    c11.5,0,17.3,4,17.3,11.5c0,4.6-2.3,8.7-6.9,11C470.3,442.2,465.1,443.4,458.2,443.4z M457.6,441.7c6.3,0,12.1-0.6,15.6-2.9    c4-2.3,6.3-5.2,6.3-9.2c0-6.9-5.2-9.8-15.6-9.8h-6.3V441.7z"/>
	</g>
	<g>
		<path fill="#FFFFFF" d="M566.6,472.8l-36.3-47.3v47.3h-6.9v-59.4h5.2l35.8,46.7v-46.7h6.3v59.4L566.6,472.8L566.6,472.8z"/>
		<path fill="#FFFFFF" d="M572.4,473.4h-5.8l0,0l-35.2-45.6V474h-8.1v-61.1h6.3l0,0l34.6,45v-45.6h8.1V473.4z M567.2,472.2h4V414    H566v48.5L529.1,414h-4v58.3h5.2v-49L567.2,472.2z"/>
	</g>
	<g>
		<path fill="#FFFFFF" d="M611,474c-20.8,0-26.5-16.2-26.5-29.4c0-14.4,6.3-32.3,27.7-32.3c20.2,0,26.5,16.2,26.5,29.4    C638.7,457.2,632.4,474,611,474z M612.2,418c-16.2,0-20.2,15-20.2,26c0,11.5,4,24.2,19.6,24.2c15,0,20.2-12.7,20.2-26    C631.8,431.3,627.7,418,612.2,418z"/>
		<path fill="#FFFFFF" d="M611,474.5c-24.8,0-27.1-23.1-27.1-30.6c0-15.6,7.5-32.9,28.3-32.9c20.2,0,27.1,15.6,27.1,30.6    C639.8,452,637,474.5,611,474.5z M612.7,412.8c-19.6,0-27.1,16.2-27.1,31.1c0,8.7,2.3,28.8,25.4,28.8c24.2,0,27.1-21.9,27.1-31.1    C638.1,435.3,636.4,412.8,612.7,412.8z M611.6,468.8c-17.9,0-20.2-17.3-20.2-24.8c0-6.3,1.7-26.5,20.8-26.5s20.2,19,20.2,25.4    C632.4,450.3,630.6,468.8,611.6,468.8z M612.2,418.6c-17.3,0-19.6,17.9-19.6,25.4c0,8.7,2.3,23.6,18.5,23.6    c17.9,0,19.6-17.9,19.6-25.4C631.2,435.3,629.5,418.6,612.2,418.6z"/>
	</g>
	<g>
		<path fill="#FFFFFF" d="M702.7,472.8h-5.2l-17.9-48.5l-17.9,48.5h-5.2l-12.7-59.4h7.5l9.2,47.3l16.7-47.3h5.2l16.7,47.3l9.2-47.3    h6.9L702.7,472.8z"/>
		<path fill="#FFFFFF" d="M703.3,473.4H697l-17.3-47.3l-17.3,47.3H656v-0.6l-13.3-60.6h8.7l9.2,45l16.2-45h6.3l16.2,45l9.2-45h8.1    v1.2L703.3,473.4z M698.1,472.2h4l12.7-58.3h-5.2l-9.8,49L682,414h-4l-17.3,49l-9.8-49H645l12.7,58.3h4l18.5-49.6L698.1,472.2z"/>
	</g>
</g>
<path fill="#1A354B" d="M421.8,380.7l-1.2-6.3c-4.6-23.6-29.4-35.2-43.3-39.8c-8.1-2.9-14.4-4-14.4-4l-9.8-1.7l9.2-3.5  c17.3-6.9,33.5-8.1,47.3-3.5c13.3,4.6,21.3,13.8,24.8,18.5c8.7-6.9,20.8-8.1,33.5-3.5c9.8,3.5,17.3,9.2,17.9,9.2l7.5,5.8l-9.2-0.6  c-36.3-2.9-57.7,23.6-57.7,24.2L421.8,380.7z M379.1,329.3c13.8,4.6,38.1,16.2,45.6,38.6c6.9-6.9,23.6-20.8,48.5-22.5  c-2.3-1.2-4.6-2.3-7.5-2.9c-12.1-4-22.5-2.9-30.6,4l-2.3,2.9l-1.7-3.5c0,0-7.5-12.7-23.6-18.5c-9.8-3.5-21.3-3.5-34,0  C375.1,328.2,376.8,328.8,379.1,329.3z"/>
</svg>