<?xml version="1.0" encoding="UTF-8"?>
<!-- Generator: Adobe Illustrator 18.1.1, SVG Export Plug-In . SVG Version: 6.00 Build 0)  -->
<svg version="1.1" id="Layer_1" xmlns="http://www.w3.org/2000/svg" xmlns:xlink="http://www.w3.org/1999/xlink" x="0px" y="0px" viewBox="0 0 127.9 103.2" enable-background="new 0 0 127.9 103.2" xml:space="preserve">
<polygon fill="#EE9529" points="0,0 0,102 64.4,91.1 127.9,102 127.9,0 "/>
<g>
	<polygon fill="#1A354A" points="12.8,14.9 16.2,14.9 16.2,21.5 22.3,14.9 26.3,14.9 20.2,21.3 26.6,30 22.6,30 17.9,23.6    16.2,25.4 16.2,30 12.8,30  "/>
	<path fill="#1A354A" d="M24.9,24.3L24.9,24.3c0-3.4,2.7-6.1,6.3-6.1c3.6,0,6.3,2.7,6.3,6v0c0,3.3-2.7,6-6.3,6   C27.5,30.3,24.9,27.6,24.9,24.3 M34.2,24.3L34.2,24.3c0-1.8-1.2-3.2-3.1-3.2c-1.9,0-3,1.5-3,3.2v0c0,1.7,1.2,3.2,3.1,3.2   C33,27.5,34.2,26,34.2,24.3"/>
	<path fill="#1A354A" d="M38.3,26.7v-5.5h-1.4v-2.8h1.4v-3h3.3v3h2.7v2.8h-2.7v5c0,0.8,0.3,1.1,1.1,1.1c0.6,0,1.1-0.2,1.6-0.4v2.6   c-0.7,0.4-1.5,0.7-2.6,0.7C39.7,30.2,38.3,29.4,38.3,26.7"/>
	<rect x="45.3" y="14.2" fill="#1A354A" width="3.3" height="15.8"/>
	<path fill="#1A354A" d="M49.8,14.2h3.5v2.9h-3.5V14.2z M49.9,18.4h3.3V30h-3.3V18.4z"/>
	<path fill="#1A354A" d="M54.4,18.4h3.3v1.6c0.8-1,1.7-1.9,3.4-1.9c2.5,0,3.9,1.6,3.9,4.3V30h-3.3v-6.5c0-1.6-0.7-2.4-2-2.4   c-1.3,0-2.1,0.8-2.1,2.4V30h-3.3V18.4z"/>
	<g>
		<path fill="#1A354A" d="M69.9,22.5L69.9,22.5c0-4.5,3.3-8.2,7.9-8.2c2.8,0,4.5,1,6.1,2.5l-0.8,0.9c-1.4-1.3-2.9-2.3-5.3-2.3    c-3.8,0-6.6,3.1-6.6,7v0c0,4,2.9,7.1,6.7,7.1c2.3,0,3.8-0.9,5.4-2.5l0.8,0.8c-1.7,1.6-3.5,2.7-6.3,2.7    C73.3,30.6,69.9,27,69.9,22.5z"/>
		<path fill="#1A354A" d="M84.3,24.6L84.3,24.6c0-3.3,2.5-6,5.9-6c3.4,0,5.9,2.7,5.9,6v0c0,3.2-2.5,6-5.9,6    C86.8,30.6,84.3,27.8,84.3,24.6z M94.9,24.6L94.9,24.6c0-2.8-2.1-5-4.7-5c-2.7,0-4.7,2.2-4.7,4.9v0c0,2.8,2.1,5,4.7,5    C92.9,29.5,94.9,27.3,94.9,24.6z"/>
		<path fill="#1A354A" d="M97.8,18.8h1.1V21c0.8-1.3,2-2.4,4.1-2.4c2.9,0,4.6,2,4.6,4.7v7h-1.1v-6.8c0-2.4-1.3-3.9-3.6-3.9    c-2.2,0-4,1.7-4,4.1v6.6h-1.1V18.8z"/>
		<path fill="#1A354A" d="M110.5,19.8h-1.7v-1h1.7v-1.1c0-1.3,0.4-2.3,1-3c0.6-0.6,1.4-0.9,2.4-0.9c0.7,0,1.2,0.1,1.7,0.3v1    c-0.7-0.2-1.1-0.3-1.7-0.3c-1.6,0-2.3,0.9-2.3,2.9v1.1h4v1h-4v10.5h-1.1V19.8z"/>
	</g>
</g>
<g>
	<path fill="#1A354A" d="M15.9,47.8c-1,0-1.9-0.3-2.6-0.6l0.3-0.9c0.8,0.4,1.7,0.6,2.4,0.6c1,0,1.8-0.5,1.8-1.4   c0-2.2-4.2-1.8-4.2-4.6c0-1.5,1.2-2.1,2.6-2.1c0.6,0,1.3,0.1,2.1,0.4l-0.3,0.9c-0.7-0.3-1.4-0.4-1.9-0.4c-0.9,0-1.6,0.4-1.6,1.2   c0,2,4.3,1.7,4.3,4.6C18.9,47.2,17.4,47.8,15.9,47.8z"/>
	<path fill="#1A354A" d="M26.9,44.6c0,1.5-0.8,3.2-3.3,3.2c-2.4,0-3.1-1.6-3.1-3.1V39h1v5.4c0,1.3,0.5,2.5,2.2,2.5   c1.7,0,2.2-1.3,2.2-2.5V39h1V44.6z"/>
	<path fill="#1A354A" d="M31.7,44.2c-0.3,0-0.9,0-1.2-0.1v3.5h-1V39h2c2.1,0,3.2,1.1,3.2,2.7C34.8,43.2,33.7,44.2,31.7,44.2z    M31.4,39.8h-0.9v3.5c0.4,0.1,0.8,0.1,1.1,0.1c1.5,0,2.1-0.7,2.1-1.7C33.7,40.6,33.1,39.8,31.4,39.8z"/>
	<path fill="#1A354A" d="M36.3,47.6V39h5v0.8h-4.1v2.9H41v0.8h-3.6v3.2h4.3v0.8H36.3z"/>
	<path fill="#1A354A" d="M45.3,39c2.4,0,3.5,0.9,3.5,2.3c0,1.2-0.8,2-1.9,2.4l2.4,3.9H48L45.9,44c-0.5,0.1-1,0.1-1.5,0.1v3.6h-1V39   H45.3z M44.4,43.2c1.7,0,3.4-0.4,3.4-1.9c0-1-0.8-1.6-2.4-1.6l-0.9,0V43.2z"/>
	<path fill="#1A354A" d="M54.1,47.6V39h5v0.8h-4.1v2.9h3.6v0.8h-3.6v3.2h4.3v0.8H54.1z"/>
	<path fill="#1A354A" d="M65,45h-3.4l-1,2.6h-1l3.2-8.6h1l3.3,8.6H66L65,45z M61.8,44.2h2.9l-1.4-4.1L61.8,44.2z"/>
	<path fill="#1A354A" d="M70.1,39c2.4,0,3.5,0.9,3.5,2.3c0,1.2-0.8,2-1.9,2.4l2.4,3.9h-1.2L70.7,44c-0.5,0.1-1,0.1-1.5,0.1v3.6h-1   V39H70.1z M69.2,43.2c1.7,0,3.4-0.4,3.4-1.9c0-1-0.8-1.6-2.4-1.6l-0.9,0V43.2z"/>
	<path fill="#1A354A" d="M75.6,47.6V39h1v7.7h4.1v0.9H75.6z"/>
	<path fill="#1A354A" d="M83.2,44.8v2.8h-1v-2.8L79.3,39h1.1l2.3,4.8l2.3-4.8h1L83.2,44.8z"/>
	<path fill="#1A354A" d="M92.5,47.6h-2.2V39h2.1c2.5,0,3,1.1,3,2.1c0,1-0.6,1.6-1.4,1.8c1.1,0.2,1.9,1.1,1.9,2.2   C95.9,47,94.7,47.6,92.5,47.6z M92.4,39.8h-1.1v2.9h0.9c1.7,0,2.1-0.7,2.1-1.5C94.4,40.5,94,39.8,92.4,39.8z M92.4,43.5h-1.1v3.3   h1.3c1.3,0,2.3-0.4,2.3-1.6C94.9,43.8,93.6,43.5,92.4,43.5z"/>
	<path fill="#1A354A" d="M97.6,47.6V39h1v8.6H97.6z"/>
	<path fill="#1A354A" d="M103.2,39c2.4,0,3.5,0.9,3.5,2.3c0,1.2-0.8,2-1.9,2.4l2.4,3.9h-1.2l-2.1-3.6c-0.5,0.1-1,0.1-1.5,0.1v3.6h-1   V39H103.2z M102.2,43.2c1.7,0,3.4-0.4,3.4-1.9c0-1-0.8-1.6-2.4-1.6l-0.9,0V43.2z"/>
	<path fill="#1A354A" d="M111.1,47.6h-2.4V39h2.5c3.5,0,4.2,2.4,4.2,4.2C115.3,45.1,114.7,47.6,111.1,47.6z M111,39.8h-1.4v7h1.6   c2.6,0,3.1-2,3.1-3.5C114.3,41.8,113.8,39.8,111,39.8z"/>
</g>
<g>
	<g>
		<path fill="#FFFFFF" d="M16.7,70.8c2.9,0,4.2,1,4.2,2.8c0,1.5-0.9,2.4-2.3,2.9l2.9,4.6h-1.5l-2.5-4.4c-0.6,0.1-1.2,0.1-1.8,0.1    v4.3h-1.2V70.8H16.7z M15.5,75.9c2.1,0.1,4-0.5,4-2.2c0-1.2-0.9-1.9-2.9-1.9l-1.1,0V75.9z"/>
		<path fill="#FFFFFF" d="M21.6,81.2h-1.8l-2.5-4.4c-0.5,0.1-1.1,0.1-1.7,0.1v4.3h-1.4V70.7h2.5c3.5,0,4.3,1.6,4.3,2.9    c0,1.4-0.8,2.4-2.3,2.9L21.6,81.2z M20,81h1.2l-2.8-4.6l0.2,0c1-0.3,2.2-1.1,2.2-2.7c0-1.8-1.4-2.7-4-2.7h-2.2V81h0.9v-4.3l0.1,0    c0.6,0,1.2,0,1.8-0.1l0.1,0L20,81z M15.8,76c-0.1,0-0.2,0-0.3,0l-0.1,0v-4.3l1.3,0c2,0,3,0.7,3,2c0,0.8-0.4,1.5-1.2,1.9    C17.8,75.8,16.9,76,15.8,76z M15.7,75.7c1.1,0,2.1-0.1,2.7-0.5c0.7-0.4,1.1-0.9,1.1-1.6c0-1.2-0.9-1.7-2.7-1.7l-1.1,0V75.7z"/>
	</g>
	<g>
		<path fill="#FFFFFF" d="M23.3,81.1V70.8h6.1v1h-4.9v3.5h4.4v1h-4.4v3.9h5.2v1H23.3z"/>
		<path fill="#FFFFFF" d="M29.8,81.2h-6.6V70.7h6.3v1.2h-4.9v3.2h4.4v1.2h-4.4V80h5.2V81.2z M23.4,81h6.1v-0.7h-5.2v-4.1h4.4v-0.7    h-4.4v-3.7h4.9v-0.7h-5.8V81z"/>
	</g>
	<g>
		<path fill="#FFFFFF" d="M38.9,80.4c-1.2,0.6-2.1,0.9-3.5,0.9c-3.4,0-4.7-2.4-4.7-5.1c0-2.7,1.3-5.6,5-5.6c1.3,0,2.4,0.4,3.1,0.7    l-0.4,1c-0.7-0.3-1.7-0.7-2.8-0.7c-3,0-3.8,2.3-3.8,4.5c0,2.4,1.2,4.2,3.6,4.2c0.9,0,1.4-0.1,2.3-0.5v-3.4h1.1V80.4z"/>
		<path fill="#FFFFFF" d="M35.4,81.4c-3.1,0-4.9-2-4.9-5.3c0-2.7,1.4-5.7,5.2-5.7c1.1,0,2.1,0.2,3.2,0.7l0.1,0l-0.5,1.2l-0.1-0.1    c-0.9-0.4-1.9-0.6-2.7-0.6c-3.2,0-3.6,2.7-3.6,4.3c0,2.6,1.3,4.1,3.4,4.1c0.9,0,1.4-0.1,2.2-0.4v-3.4H39v4.2l-0.1,0    C37.7,81.2,36.7,81.4,35.4,81.4z M35.7,70.7c-3.6,0-4.9,2.8-4.9,5.4c0,3.1,1.7,5,4.6,5c1.3,0,2.2-0.2,3.4-0.8v-3.8h-0.9v3.4    l-0.1,0c-0.9,0.4-1.4,0.5-2.3,0.5c-2.3,0-3.7-1.7-3.7-4.4c0-1.7,0.5-4.6,3.9-4.6c0.9,0,1.8,0.2,2.7,0.6l0.3-0.7    C37.7,70.9,36.7,70.7,35.7,70.7z"/>
	</g>
	<g>
		<path fill="#FFFFFF" d="M41.5,81.1V70.8h1.2v10.3H41.5z"/>
		<path fill="#FFFFFF" d="M42.8,81.2h-1.4V70.7h1.4V81.2z M41.6,81h0.9V70.9h-0.9V81z"/>
	</g>
	<g>
		<path fill="#FFFFFF" d="M47.8,81.3c-1.2,0-2.3-0.3-3.1-0.7l0.4-1.1c1,0.5,2,0.8,2.9,0.8c1.2,0,2.2-0.6,2.2-1.7    c0-2.6-5.1-2.2-5.1-5.5c0-1.8,1.5-2.5,3.1-2.5c0.7,0,1.6,0.2,2.5,0.5l-0.3,1c-0.8-0.4-1.6-0.5-2.2-0.5c-1.1,0-1.9,0.5-1.9,1.4    c0,2.4,5.1,2,5.1,5.5C51.3,80.6,49.5,81.3,47.8,81.3z"/>
		<path fill="#FFFFFF" d="M47.8,81.4c-1.3,0-2.4-0.4-3.2-0.7l-0.1,0l0.5-1.4l0.1,0.1c1,0.5,2,0.8,2.8,0.8c1,0,2.1-0.4,2.1-1.6    c0-1.1-1.1-1.7-2.2-2.2c-1.3-0.7-2.8-1.4-2.8-3.2c0-1.6,1.2-2.6,3.2-2.6c0.8,0,1.6,0.2,2.6,0.5l0.1,0l-0.4,1.3l-0.1-0.1    c-0.7-0.3-1.5-0.5-2.2-0.5c-0.5,0-1.8,0.1-1.8,1.3c0,1,1,1.5,2.1,2c1.4,0.7,3,1.5,3,3.4C51.4,81.2,48.6,81.4,47.8,81.4z     M44.8,80.6c0.7,0.3,1.8,0.6,3,0.6c0.8,0,3.4-0.2,3.4-2.6c0-1.8-1.4-2.5-2.8-3.2c-1.2-0.6-2.3-1.1-2.3-2.3c0-1,0.8-1.6,2.1-1.6    c0.4,0,1.2,0.1,2.1,0.4l0.2-0.8c-0.9-0.3-1.7-0.4-2.4-0.4c-0.7,0-3,0.2-3,2.4c0,1.7,1.4,2.3,2.7,3c1.2,0.6,2.4,1.2,2.4,2.5    c0,1.1-0.9,1.9-2.3,1.9c-0.8,0-1.8-0.3-2.8-0.7L44.8,80.6z"/>
	</g>
	<g>
		<path fill="#FFFFFF" d="M55.9,71.8v9.3h-1.2v-9.3h-3.5v-1h8.3v1H55.9z"/>
		<path fill="#FFFFFF" d="M56,81.2h-1.4v-9.3H51v-1.3h8.6v1.3H56V81.2z M54.8,81h0.9v-9.3h3.6v-0.8h-8.1v0.8h3.5V81z"/>
	</g>
	<g>
		<path fill="#FFFFFF" d="M60.5,81.1V70.8h6.1v1h-4.9v3.5h4.4v1h-4.4v3.9h5.2v1H60.5z"/>
		<path fill="#FFFFFF" d="M67,81.2h-6.6V70.7h6.3v1.2h-4.9v3.2h4.4v1.2h-4.4V80H67V81.2z M60.6,81h6.1v-0.7h-5.2v-4.1h4.4v-0.7h-4.4    v-3.7h4.9v-0.7h-5.8V81z"/>
	</g>
	<g>
		<path fill="#FFFFFF" d="M71.3,70.8c2.9,0,4.2,1,4.2,2.8c0,1.5-0.9,2.4-2.3,2.9l2.9,4.6h-1.5L72,76.7c-0.6,0.1-1.2,0.1-1.8,0.1v4.3    H69V70.8H71.3z M70.2,75.9c2.1,0.1,4-0.5,4-2.2c0-1.2-0.9-1.9-2.9-1.9l-1.1,0V75.9z"/>
		<path fill="#FFFFFF" d="M76.2,81.2h-1.8l-2.5-4.4c-0.5,0.1-1.1,0.1-1.7,0.1v4.3h-1.4V70.7h2.5c3.5,0,4.3,1.6,4.3,2.9    c0,1.4-0.8,2.4-2.3,2.9L76.2,81.2z M74.6,81h1.2L73,76.4l0.2,0c1-0.3,2.2-1.1,2.2-2.7c0-1.8-1.4-2.7-4-2.7h-2.2V81H70v-4.3l0.1,0    c0.6,0,1.2,0,1.8-0.1l0.1,0L74.6,81z M70.4,76c-0.1,0-0.2,0-0.3,0L70,76v-4.3l1.3,0c2,0,3,0.7,3,2c0,0.8-0.4,1.5-1.2,1.9    C72.5,75.8,71.6,76,70.4,76z M70.3,75.7c1.1,0,2.1-0.1,2.7-0.5c0.7-0.4,1.1-0.9,1.1-1.6c0-1.2-0.9-1.7-2.7-1.7l-1.1,0V75.7z"/>
	</g>
	<g>
		<path fill="#FFFFFF" d="M89.2,81.1l-6.3-8.2v8.2h-1.2V70.8h0.9l6.2,8.1v-8.1h1.1v10.3H89.2z"/>
		<path fill="#FFFFFF" d="M90.2,81.2h-1l0,0l-6.1-7.9v8h-1.4V70.7h1.1l0,0l6,7.8v-7.9h1.4V81.2z M89.3,81h0.7V70.9h-0.9v8.4    l-6.4-8.4h-0.7V81h0.9v-8.5L89.3,81z"/>
	</g>
	<g>
		<path fill="#FFFFFF" d="M96.9,81.3c-3.6,0-4.6-2.8-4.6-5.1c0-2.5,1.1-5.6,4.8-5.6c3.5,0,4.6,2.8,4.6,5.1    C101.7,78.4,100.6,81.3,96.9,81.3z M97.1,71.6c-2.8,0-3.5,2.6-3.5,4.5c0,2,0.7,4.2,3.4,4.2c2.6,0,3.5-2.2,3.5-4.5    C100.5,73.9,99.8,71.6,97.1,71.6z"/>
		<path fill="#FFFFFF" d="M96.9,81.4c-4.3,0-4.7-4-4.7-5.3c0-2.7,1.3-5.7,4.9-5.7c3.5,0,4.7,2.7,4.7,5.3    C101.9,77.5,101.4,81.4,96.9,81.4z M97.2,70.7c-3.4,0-4.7,2.8-4.7,5.4c0,1.5,0.4,5,4.4,5c4.2,0,4.7-3.8,4.7-5.4    C101.6,74.6,101.3,70.7,97.2,70.7z M97,80.4c-3.1,0-3.5-3-3.5-4.3c0-1.1,0.3-4.6,3.6-4.6c3.3,0,3.5,3.3,3.5,4.4    C100.6,77.2,100.3,80.4,97,80.4z M97.1,71.7c-3,0-3.4,3.1-3.4,4.4c0,1.5,0.4,4.1,3.2,4.1c3.1,0,3.4-3.1,3.4-4.4    C100.4,74.6,100.1,71.7,97.1,71.7z"/>
	</g>
	<g>
		<path fill="#FFFFFF" d="M112.8,81.1h-0.9l-3.1-8.4l-3.1,8.4h-0.9l-2.2-10.3h1.3l1.6,8.2l2.9-8.2h0.9l2.9,8.2l1.6-8.2h1.2    L112.8,81.1z"/>
		<path fill="#FFFFFF" d="M112.9,81.2h-1.1l-3-8.2l-3,8.2h-1.1l0-0.1l-2.3-10.5h1.5l1.6,7.8l2.8-7.8h1.1l2.8,7.8l1.6-7.8h1.4l0,0.2    L112.9,81.2z M112,81h0.7l2.2-10.1H114l-1.7,8.5l-3.1-8.5h-0.7l-3,8.5l-1.7-8.5h-1l2.2,10.1h0.7l3.2-8.6L112,81z"/>
	</g>
</g>
<path fill="#1A354B" d="M64.1,65.3l-0.2-1.1c-0.8-4.1-5.1-6.1-7.5-6.9c-1.4-0.5-2.5-0.7-2.5-0.7l-1.7-0.3l1.6-0.6  c3-1.2,5.8-1.4,8.2-0.6c2.3,0.8,3.7,2.4,4.3,3.2c1.5-1.2,3.6-1.4,5.8-0.6c1.7,0.6,3,1.6,3.1,1.6l1.3,1l-1.6-0.1  c-6.3-0.5-10,4.1-10,4.2L64.1,65.3z M56.7,56.4c2.4,0.8,6.6,2.8,7.9,6.7c1.2-1.2,4.1-3.6,8.4-3.9c-0.4-0.2-0.8-0.4-1.3-0.5  c-2.1-0.7-3.9-0.5-5.3,0.7L66,59.9l-0.3-0.6c0,0-1.3-2.2-4.1-3.2c-1.7-0.6-3.7-0.6-5.9,0C56,56.2,56.3,56.3,56.7,56.4z"/>
</svg>