<?xml version="1.0" encoding="utf-8"?>
<!-- Generator: Adobe Illustrator 23.0.6, SVG Export Plug-In . SVG Version: 6.00 Build 0)  -->
<svg version="1.1" id="Layer_1" xmlns="http://www.w3.org/2000/svg" xmlns:xlink="http://www.w3.org/1999/xlink" x="0px" y="0px"
	 viewBox="0 0 500 100" style="enable-background:new 0 0 500 100;" xml:space="preserve">
<style type="text/css">
	.st0{fill:#007BFA;}
	.st1{fill:#222B3F;}
</style>
<g>
	<g>
		<path class="st0" d="M108,37.5v23.4h-9.9V5.7h9.9v21.2l6.5-21.2h9.7l-7.8,25.1l8.6,30.1h-10.4L108,37.5z"/>
		<path class="st0" d="M150.1,48.3c0,8.1-4.3,13.4-11.7,13.4h-2.2c-7.8,0-11.9-4.8-11.9-13.4V19.1c0-8.5,3.3-14.1,11.9-14.1h2.2
			c8.7,0,11.8,5.6,11.8,14V48.3z M139.8,18.3c0-2.4-0.8-3.6-2.6-3.6c-1.9,0-2.7,1.2-2.7,3.6v30.3c0,1.7,0.7,3.3,2.7,3.3
			c2,0,2.5-1.6,2.5-3.3V18.3z"/>
		<path class="st0" d="M168.3,15.4v45.5h-9.9V15.4h-7.1V5.7h24v9.7H168.3z"/>
		<path class="st0" d="M187.1,5.7V51h10.5v9.9h-20.3V5.7H187.1z"/>
		<path class="st0" d="M209.3,60.9h-9.9V5.7h9.9V60.9z"/>
		<path class="st0" d="M221.4,5.7l6.8,28.2V5.7h8.8v55.2h-8.4l-7.6-30.3v30.3h-8.8V5.7H221.4z"/>
		<path class="st0" d="M254.8,48.7V36.6h9.8V49c0,6.6-2.7,12.8-11.4,12.8h-2c-9.5,0-11.7-6.2-11.7-13.1V17.6
			c0-6.7,2.9-12.5,11.7-12.5h2c9.4,0,11.4,5.9,11.4,12.2v9.3h-9.8v-8.9c0-2.1-0.7-3.2-2.5-3.2c-1.9,0-2.4,1-2.4,3.2v31.2
			c0,2.2,0.7,3.3,2.5,3.3C254.2,52.1,254.8,50.7,254.8,48.7z"/>
		<path class="st0" d="M292.8,48.3c0,8.1-4.3,13.4-11.7,13.4h-2.2c-7.8,0-11.9-4.8-11.9-13.4V19.1c0-8.5,3.3-14.1,11.9-14.1h2.2
			c8.7,0,11.8,5.6,11.8,14V48.3z M282.4,18.3c0-2.4-0.8-3.6-2.6-3.6c-1.9,0-2.7,1.2-2.7,3.6v30.3c0,1.7,0.7,3.3,2.7,3.3
			c2,0,2.5-1.6,2.5-3.3V18.3z"/>
		<path class="st0" d="M304.6,5.7l6.8,28.2V5.7h8.8v55.2h-8.4l-7.6-30.3v30.3h-8.8V5.7H304.6z"/>
		<path class="st0" d="M323,5.7h21.2v9.6h-11.3v12h8.3v9.9h-8.3v23.6H323V5.7z"/>
		<path class="st0" d="M360.2,19.9h-6.9V5.7h6.9V19.9z"/>
		<path class="st0" d="M362.1,20.3v-8.5c5.8,0,7.1-2.7,7.4-6.2h8.2v55.2h-9.9V20.3H362.1z"/>
		<path class="st0" d="M387.2,41.4c-4.8,0-6.9-4.5-6.9-8.4V15.8c0-5.2,3-10.8,10.9-10.8h2.2c8.4,0,11.9,4.9,11.9,10.5v35.6
			c0,5.8-3.2,10.5-11,10.5h-2.2c-7.8,0-10.8-3.6-10.8-8.6v-8.8h10.2v6.2c0,1.3,0.3,2.2,1.9,2.2c1.4,0,1.7-1,1.7-2.2v-14
			c-1.2,1.6-3.9,4.9-7.3,4.9H387.2z M392.8,14.4c-1.9,0-2.2,1.6-2.2,3V30c0,2,0.7,2.8,2.2,2.8c1.6,0,2.3-0.9,2.3-2.7V17.3
			C395.1,15.8,394.9,14.4,392.8,14.4z"/>
		<path class="st1" d="M425.5,5.7V51H436v9.9h-20.3V5.7H425.5z"/>
		<path class="st1" d="M447.8,60.9h-9.9V5.7h9.9V60.9z"/>
		<path class="st1" d="M468.9,60.9h-12.5L449,5.7h10.2l3.6,37l3.6-37h9.4L468.9,60.9z"/>
		<path class="st1" d="M497.7,5.7v9.7H487v12h8.5v9.9H487V51h11.3v9.9h-21.2V5.7H497.7z"/>
	</g>
	<g>
		<path class="st1" d="M392.1,90.1l1.4-1.6c1.2,1.1,2.5,1.7,4.1,1.7c1.4,0,2.3-0.7,2.3-1.6v0c0-0.9-0.5-1.4-2.9-2
			c-2.8-0.7-4.3-1.5-4.3-3.9v0c0-2.2,1.9-3.8,4.4-3.8c1.9,0,3.4,0.6,4.7,1.6l-1.2,1.7c-1.2-0.9-2.3-1.3-3.5-1.3
			c-1.3,0-2.1,0.7-2.1,1.5v0c0,1,0.6,1.4,3.1,2c2.7,0.7,4.2,1.7,4.2,3.8v0c0,2.4-1.9,3.9-4.6,3.9C395.5,92.2,393.6,91.5,392.1,90.1z
			"/>
		<path class="st1" d="M404.6,78.6h2.4v2.1h-2.4V78.6z M404.7,82.2h2.3V92h-2.3V82.2z"/>
		<path class="st1" d="M409.8,93.8l0.8-1.7c1.1,0.6,2.2,1,3.5,1c2,0,3.1-1,3.1-3v-0.7c-0.8,1-1.8,1.8-3.4,1.8
			c-2.3,0-4.5-1.7-4.5-4.6v0c0-2.9,2.2-4.6,4.5-4.6c1.7,0,2.7,0.8,3.4,1.7v-1.5h2.2V90c0,1.7-0.4,2.9-1.2,3.7
			c-0.9,0.9-2.3,1.3-4,1.3C412.6,95,411.1,94.6,409.8,93.8z M417.3,86.6L417.3,86.6c0-1.6-1.3-2.7-2.9-2.7s-2.8,1.1-2.8,2.7v0
			c0,1.6,1.2,2.7,2.8,2.7C416,89.3,417.3,88.2,417.3,86.6z"/>
		<path class="st1" d="M422.3,82.2h2.3v1.5c0.6-0.9,1.5-1.7,3.1-1.7c2.2,0,3.5,1.5,3.5,3.7V92h-2.2v-5.6c0-1.5-0.8-2.4-2.1-2.4
			c-1.3,0-2.2,0.9-2.2,2.4V92h-2.3V82.2z"/>
		<path class="st1" d="M439.3,88.4v-6.2h2.2v5.6c0,1.5,0.8,2.4,2.1,2.4c1.3,0,2.2-0.9,2.2-2.4v-5.5h2.3V92h-2.3v-1.5
			c-0.6,0.9-1.5,1.7-3.1,1.7C440.5,92.2,439.3,90.7,439.3,88.4z"/>
		<path class="st1" d="M450.9,82.2h2.3v1.6c0.7-1,1.7-1.8,3.3-1.8c2.3,0,4.5,1.8,4.5,5.1v0c0,3.2-2.2,5.1-4.5,5.1
			c-1.6,0-2.7-0.8-3.3-1.7V95h-2.3V82.2z M458.7,87.1L458.7,87.1c0-1.9-1.3-3.2-2.8-3.2c-1.5,0-2.9,1.3-2.9,3.1v0
			c0,1.9,1.3,3.1,2.9,3.1C457.5,90.2,458.7,89,458.7,87.1z"/>
	</g>
	<g>
		<path class="st0" d="M98.6,79h4.8c4.1,0,6.9,2.8,6.9,6.5v0c0,3.7-2.8,6.5-6.9,6.5h-4.8V79z M100.9,81.1v8.8h2.6
			c2.7,0,4.5-1.8,4.5-4.4v0c0-2.5-1.8-4.4-4.5-4.4H100.9z"/>
		<path class="st0" d="M112.3,87.1L112.3,87.1c0-2.8,2-5.1,4.8-5.1c3.1,0,4.7,2.4,4.7,5.3c0,0.2,0,0.4,0,0.6h-7.2
			c0.2,1.6,1.4,2.5,2.8,2.5c1.1,0,1.9-0.4,2.7-1.2l1.3,1.2c-0.9,1.1-2.2,1.8-4,1.8C114.5,92.2,112.3,90.1,112.3,87.1z M119.6,86.4
			c-0.1-1.4-1-2.6-2.5-2.6c-1.4,0-2.3,1.1-2.5,2.6H119.6z"/>
		<path class="st0" d="M123.5,87.1L123.5,87.1c0-2.8,2.2-5.2,5.1-5.2c1.8,0,3,0.7,3.9,1.7l-1.4,1.5c-0.7-0.7-1.4-1.2-2.5-1.2
			c-1.6,0-2.8,1.4-2.8,3.1v0c0,1.7,1.2,3.1,2.9,3.1c1.1,0,1.8-0.5,2.5-1.2l1.4,1.3c-1,1.1-2.1,1.8-4,1.8
			C125.7,92.2,123.5,89.9,123.5,87.1z"/>
		<path class="st0" d="M139.7,90.2l1.4-1.7c1,1,2.1,1.6,3.3,1.6c1.6,0,2.6-0.9,2.6-2.2v0c0-1.3-1.1-2.2-2.7-2.2
			c-0.9,0-1.7,0.3-2.4,0.6l-1.4-0.9l0.4-6.4h7.8v2h-5.8l-0.2,3c0.6-0.2,1.2-0.4,2.1-0.4c2.5,0,4.5,1.3,4.5,4.1v0
			c0,2.7-1.9,4.4-4.8,4.4C142.5,92.2,140.9,91.4,139.7,90.2z"/>
		<path class="st0" d="M151.4,85.2H166v2.1h-14.6V85.2z"/>
		<path class="st0" d="M169.6,90.8c-1-1-1.6-2.3-1.6-5v0c0-4,1.9-7.1,5.6-7.1c1.7,0,2.8,0.5,4,1.4l-1.2,1.8
			c-0.9-0.7-1.7-1.2-2.8-1.2c-2.3,0-3.1,2.4-3.1,4.1c0.8-0.8,1.7-1.3,3.1-1.3c2.5,0,4.5,1.5,4.5,4.1v0c0,2.6-2.1,4.4-4.8,4.4
			C171.7,92.2,170.5,91.7,169.6,90.8z M175.8,87.9L175.8,87.9c0-1.3-1-2.3-2.7-2.3c-1.6,0-2.6,1-2.6,2.3v0c0,1.3,1.1,2.3,2.7,2.3
			C174.8,90.2,175.8,89.2,175.8,87.9z"/>
	</g>
	<polygon class="st1" points="491.2,93.2 490.1,92.1 494.8,87.4 469.7,87.4 469.7,85.7 494.6,85.7 490.1,81.2 491.2,80.1 
		497.8,86.7 	"/>
	<g>
		<g>
			<g>
				<polygon class="st0" points="15.5,19.6 15.5,5.8 1.7,19.6 				"/>
				<polygon class="st0" points="46.8,33 74,5.8 46.6,5.8 29.3,23 29.3,15.7 25.7,12.4 25.7,26.6 22.8,29.5 22.8,9.2 19.1,5.8 
					19.1,33.2 19.1,33.2 19.1,33.2 19.1,33.5 19.2,33.3 25.7,39.9 25.7,40 25.9,40 32.8,47 32.9,46.9 46.7,60.7 51.8,60.7 
					35.4,44.3 38.3,41.5 57.5,60.7 62.6,60.7 40.9,38.8 43.7,36 68.4,60.7 73.6,60.7 46.3,33.5 				"/>
			</g>
		</g>
	</g>
</g>
</svg>
