<?xml version="1.0" encoding="UTF-8" standalone="no"?>
<svg width="256px" height="264px" viewBox="0 0 256 264" version="1.1" xmlns="http://www.w3.org/2000/svg" xmlns:xlink="http://www.w3.org/1999/xlink" preserveAspectRatio="xMidYMid">
	<g>
		<path d="M0,219.977836 L0,220.93345 C0,244.34599 18.8733742,263.219364 42.2859143,263.219364 C65.6984544,263.219364 84.5718285,244.34599 84.5718285,220.93345 L84.5718285,174.347273 L0,219.977836 L0,219.977836 Z" fill="#4971A9"/>
		<path d="M255.673376,220.21674 C254.956665,211.138408 251.13421,202.776786 244.683816,196.326393 L244.683816,196.087489 L168.712512,128.955614 L94.8913401,168.61359 L190.213825,253.424322 C197.380929,259.635812 206.459261,262.980461 216.0154,262.980461 L216.0154,262.980461 C217.209917,262.980461 218.404434,262.980461 219.360048,262.741557 C229.871801,261.785943 239.42794,256.768971 246.117237,248.885156 C253.284341,241.001341 256.390086,230.728492 255.673376,220.21674 L255.673376,220.21674 Z" fill="#4971A9"/>
		<path d="M84.5718285,48.2062409 L84.5718285,43.6670749 L84.5718285,42.7114611 C84.5718285,19.298921 65.4595509,0.425546807 42.2859143,0.425546807 C18.8733742,0.425546807 3.55271368e-14,19.298921 3.55271368e-14,42.7114611 L3.55271368e-14,94.5535141 L84.5718285,48.2062409 L84.5718285,48.2062409 Z" fill="#4971A9"/>
		<path d="M2.84217094e-14,112.710178 L197.57317,4.96471274 C203.306853,1.85896763 209.757247,0.425546807 216.207641,0.425546807 C220.269,0.425546807 224.330359,1.14225722 228.391718,2.33677457 C249.17632,9.02607174 260.404783,31.2440945 253.715486,52.0286964 C250.848644,60.6292213 245.353864,68.0352289 237.708953,73.0522018 L237.708953,73.2911053 L235.319918,74.7245261 L9.63221596e-14,201.821172 L9.63221596e-14,112.710178 L2.84217094e-14,112.710178 Z" fill="#F58A1F"/>
	</g>
<style xmlns="" type="text/css" id="undefined"/></svg>