<?xml version="1.0" encoding="utf-8"?>
<!DOCTYPE svg PUBLIC "-//W3C//DTD SVG 1.1//EN" "http://www.w3.org/Graphics/SVG/1.1/DTD/svg11.dtd" [
	<!ENTITY ns_flows "http://ns.adobe.com/Flows/1.0/">
	<!ENTITY ns_extend "http://ns.adobe.com/Extensibility/1.0/">
	<!ENTITY ns_ai "http://ns.adobe.com/AdobeIllustrator/10.0/">
	<!ENTITY ns_graphs "http://ns.adobe.com/Graphs/1.0/">
]>
<svg version="1.1" id="Layer_1" xmlns:x="&ns_extend;" xmlns:i="&ns_ai;" xmlns:graph="&ns_graphs;"
	 xmlns="http://www.w3.org/2000/svg" xmlns:xlink="http://www.w3.org/1999/xlink" xmlns:a="http://ns.adobe.com/AdobeSVGViewerExtensions/3.0/"
	 x="0px" y="0px" width="864px" height="864px" viewBox="0 0 864 864" enable-background="new 0 0 864 864" xml:space="preserve">
<path fill="#FFFFFF" d="M458.25,792.5c-8.5,0-17,0-25.5,0c-21.112-5.83-42.296-11.246-64.361-11.985
	c-58.842-1.974-117.704-3.528-176.517-6.159c-32.104-1.438-63.659-7.021-93.816-18.846c-15.44-6.053-30.89-12.103-35.806-30.51
	c0-6.5,0-13,0-19.5c1.256-4.749,2.329-9.555,3.796-14.237c18.597-59.358,38.842-118.186,67.195-173.654
	c28.775-56.295,45.75-114.58,41.118-178.574c-3.335-46.081,8.048-89.752,27.412-131.353c21.35-45.864,53.91-80.509,101.053-100.818
	c31.382-13.518,63.825-22.991,97.487-28.366c14.756-2.356,29.623-4.02,44.439-5.998c11,0,22,0,33,0
	c1.418,0.41,2.812,1.056,4.256,1.195c25.911,2.512,50.355,10.103,73.57,21.637c41.109,20.425,71.354,50.689,85.787,95.262
	c5.689,17.57,11.737,35.03,17.954,52.421c7.361,20.596,15.842,40.604,34.241,54.253c11.873,8.809,19.508,20.653,24.281,34.353
	c16.578,47.589,34.249,94.85,49.018,142.998c12.193,39.752,21.037,80.543,30.951,120.974c1.882,7.681,2.531,15.838,2.51,23.771
	c-0.039,15.029-9.988,24.733-20.582,33.232c-30.249,24.262-62.305,45.94-96.346,64.556c-17.572,9.609-35.586,18.881-56.123,19.295
	c-15.839,0.32-27.046,7.241-35.737,19.701c-1.997,2.861-4.3,5.518-6.564,8.18c-6.673,7.843-14.681,13.51-25.135,15.043
	c-19.746,2.893-39.468,5.975-59.253,8.58C486.514,789.805,472.362,791.008,458.25,792.5z"/>
<g>
	<path d="M459.25,793.5c-8.5,0-17,0-25.5,0c-21.112-5.83-42.296-11.246-64.361-11.985c-58.842-1.974-117.704-3.528-176.517-6.159
		c-32.104-1.438-63.659-7.021-93.816-18.846c-15.44-6.053-30.89-12.103-35.806-30.51c0-6.5,0-13,0-19.5
		c1.256-4.749,2.329-9.555,3.796-14.237c18.597-59.358,38.842-118.186,67.195-173.654c28.775-56.295,45.75-114.58,41.118-178.574
		c-3.335-46.081,8.048-89.752,27.412-131.353c21.35-45.864,53.91-80.509,101.053-100.818c31.382-13.518,63.825-22.991,97.487-28.366
		c14.756-2.356,29.623-4.02,44.439-5.998c11,0,22,0,33,0c1.418,0.41,2.812,1.056,4.256,1.195
		c25.911,2.512,50.355,10.103,73.57,21.637c41.109,20.425,71.354,50.689,85.787,95.262c5.689,17.57,11.737,35.03,17.954,52.421
		c7.361,20.596,15.842,40.604,34.241,54.253c11.873,8.809,19.508,20.653,24.281,34.353c16.578,47.589,34.249,94.85,49.018,142.998
		c12.193,39.752,21.037,80.543,30.951,120.974c1.882,7.681,2.531,15.838,2.51,23.771c-0.039,15.029-9.988,24.733-20.582,33.232
		c-30.249,24.262-62.305,45.94-96.346,64.556c-17.572,9.609-35.586,18.881-56.123,19.295c-15.839,0.32-27.046,7.241-35.737,19.701
		c-1.997,2.861-4.3,5.518-6.564,8.18c-6.673,7.843-14.681,13.51-25.135,15.043c-19.746,2.893-39.468,5.975-59.253,8.58
		C487.514,790.805,473.362,792.008,459.25,793.5z M478.454,633.269c-1.434-3.416-2.427-5.641-3.306-7.909
		c-1.864-4.804-1.963-7.872,4.935-8.137c6.12-0.235,12.255-1.975,18.229-3.614c6.467-1.775,12.644-5.567,19.142-6.098
		c21.604-1.764,43.301-3.431,64.952-3.319c28.204,0.146,56.4,2.005,84.597,3.201c2.459,0.104,4.951,0.561,7.33,1.207
		c5.069,1.379,7.625,4.584,4.127,9.305c-5.875,7.933-11.055,17.257-18.828,22.725c-16.475,11.587-34.575,20.837-51.731,31.491
		c-11.813,7.336-23.771,14.669-34.535,23.395c-9.718,7.876-16.515,8.702-25.142-0.442c-2.215-2.346-4.516-4.846-5.906-7.699
		c-7.202-14.784-14.061-29.735-21.176-44.562c-2.473-5.152-4.881-10.437-8.146-15.078c-3.617-5.142-8.719-5.481-13.71-1.574
		c-4.507,3.529-8.437,7.179-3.627,13.535c7.827,10.346,15.146,21.077,23.027,31.378c10.469,13.681,21.534,26.91,31.797,40.739
		c3.81,5.135,5.812,11.572,9.103,17.14c4.055,6.862,7.229,7.62,12.919,2.332c5.434-5.05,9.962-11.07,14.904-16.651
		c3.755-4.241,6.845-9.506,11.414-12.523c37.899-25.037,76.103-49.611,114.137-74.445c6.618-4.32,12.87-9.2,19.664-14.09
		c-2.161-3.102-3.618-5.079-4.956-7.136c-5.714-8.783-12.105-17.216-16.945-26.46c-12.4-23.688-14.076-47.115,3.727-69.439
		c3.244-4.068,5.823-8.721,8.324-13.314c7.492-13.772,6.818-26.73-4.199-38.588c-3.059-3.292-5.781-6.893-8.671-10.342
		c-8.528-10.178-11.622-21.866-9.787-34.952c1.041-7.419,2.046-14.844,3.011-22.273c2.164-16.678-0.443-31.92-13.469-43.936
		c-19.312-17.815-50.833-21.307-73.152-7.632c-5.506,3.374-10.051,8.317-15.036,12.539c0.509,0.758,1.018,1.515,1.526,2.273
		c9.943-3.165,19.706-7.258,29.88-9.229c9.854-1.909,20.424-3.462,30.159-1.911c16.328,2.602,31.372,23.596,33.252,43
		c1.484,15.315-2.539,23.404-16.313,30.484c-14.564,7.486-30.354,9.855-46.55,8.729c-10.981-0.763-22.229-1.957-30.531-10.381
		c-6.683-6.78-14.402-9.226-23.688-8.699c-4.41,0.25-8.894-0.775-14.354-1.324c5.979-9.889,18.774-1.801,23.352-12.43
		c-13.718-6.797-26.897-2.997-40.413-0.481c-0.796,9.265,3.559,15.822,8.742,22.025c4.321,5.171,9.071,10.029,12.931,15.519
		c1.646,2.341,2.532,6.13,2,8.927c-2.135,11.221-5.416,22.229-7.424,33.467c-2.978,16.668-2.671,16.725-19.336,20.951
		c-1.212,0.307-2.439,0.545-3.645,0.872c-37.841,10.272-70.521,27.949-90.891,63.317c-0.122,0.212-0.818,0.095-0.247,0.046
		c-4.236-14.297-8.217-28.416-12.625-42.402c-3.67-11.649-7.744-23.177-11.841-34.688c-1.618-4.547-0.47-8.005,3.511-10.216
		c7.599-4.222,14.999-9.299,23.157-11.924c25.544-8.221,51.871-9.776,78.517-6.918c4.694,0.504,9.556,0.866,14.188,0.217
		c7.875-1.106,9.75-6.14,4.367-11.821c-4.257-4.492-9.312-8.249-14.152-12.16c-8.39-6.781-15.646-8.579-26.99-2.574
		c-38.679,20.476-100.713,10.76-132.82-18.967c-3.724-3.448-6.777-7.621-10.399-11.751c7.824-6.867,14.683-13.042,21.707-19.024
		c25.693-21.88,54.406-34.97,89.192-31.508c9.396,0.935,18.978,0.255,28.461-0.056c3.464-0.114,6.892-1.312,10.336-2.015
		c-4.06-3.466-8.05-5.422-12.217-6.865c-50.346-17.43-118.26,7.616-145.564,53.474c-2.785,4.678-6.199,9.034-9.74,13.182
		c-1.3,1.523-4.302,3.292-5.697,2.762c-9.955-3.779-20.314-7.23-26.854-18.703c9.325-9.894,18.046-20.589,28.215-29.663
		c29.278-26.126,61.776-46.324,102.568-47.13c28.562-0.565,56.77,2.7,80.033,21.578c17.647,14.322,37.112,16.594,57.883,10.926
		c18.51-5.051,36.665-11.41,54.938-17.315c23.836-7.704,43.664-2.679,58.668,18.119c0.875,1.213,1.918,2.303,2.855,3.472
		c18.217,22.709,29.039,49.149,35.375,76.997c13.398,58.865,25.358,118.059,37.795,177.141c2.428,11.527,4.342,23.163,6.565,35.143
		c10.409-6.387,13.798-14.273,10.567-27.893c-13.355-56.315-26.619-112.663-40.963-168.732
		c-8.303-32.457-19.559-64.033-38.03-92.424c-8.051-12.375-16.534-24.492-30.646-30.965c-7.486-3.434-12.738-8.762-16.349-16.44
		c-3.066-6.521-8.722-10.684-18.978-9.412c3.138,3.509,5.438,5.773,7.349,8.329c1.209,1.617,1.836,3.668,2.725,5.525
		c-2.267,0.444-4.687,1.639-6.772,1.21c-12.941-2.666-21.201-16.271-18.541-31.767c11.372,0.938,22.896,1.887,36.106,2.977
		c-6.739-10.31-14.737-13.573-24.15-14.089c-18.273-1.004-34.93,5.295-51.272,12.181c-6.87,2.896-10.083,0.887-12.708-5.191
		c-2.062-4.773-4.637-9.324-6.983-13.975c-0.747,0.271-1.494,0.54-2.241,0.81c0,9.656-0.414,19.335,0.152,28.958
		c0.35,5.958-2.189,8.031-7.426,8.543c-5.22,0.51-10.418,1.579-15.638,1.652c-6.805,0.096-8.489,3.328-7.824,9.545
		c0.54,5.05,0.11,10.204,0.11,16.643c-8.292-3.509-14.893-6.326-21.512-9.099c-17.034-7.135-34.123-14.139-51.089-21.432
		c-6.269-2.695-11.876-6.47-15.383-12.41c0.355-0.848,0.71-1.696,1.066-2.543c26.603,5.76,53.204,11.52,80.299,17.385
		c0.551-3.886,1.001-5.821,1.075-7.769c0.961-25.295-0.156-50.441-5.435-75.295c-8.645-40.701-30.447-71.676-67.396-91.539
		c-12.536-6.739-25.917-12.364-37.262-20.736c-12.56-9.268-23.964-8.419-36.394-1.67c-6.36,3.454-12.617,7.098-19.657,11.072
		c14.944,10.7,18.098,13.289,25.358,28.521c9.163,19.225,21.607,35.729,36.405,50.901c16.741,17.165,32.707,35.087,48.961,52.726
		c6.024,6.538,11.91,13.204,18.075,20.049c0.617-1.188,1.054-1.627,0.984-1.961c-0.406-1.951-0.86-3.899-1.428-5.81
		c-5.271-17.752-15.031-33.038-25.754-47.915c-11.088-15.383-21.906-30.985-32.224-46.893
		c-9.937-15.322-19.255-30.943-34.484-41.956c-3.369-2.437-5.483-6.609-8.175-9.981c0.349-0.667,0.697-1.335,1.045-2.002
		c4.805,0,10.129-1.33,14.298,0.297c7.057,2.755,13.466,7.248,19.994,11.257c6.132,3.767,11.612,9.967,18.181,11.38
		c15.489,3.334,25.324,13.104,32.488,25.597c19.205,33.486,33.6,69.082,42.99,106.553c1.827,7.289,1.411,15.14,2.174,24.512
		c-17.334-2.682-32.862-4.732-48.25-7.546c-25.035-4.577-49.833-11.186-75.57-9.649c-9.496,0.567-18.892,2.829-30.121,4.6
		c3.654,6.9,5.977,11.78,8.733,16.401c13.11,21.975,10.621,29.093-12.405,40.624c-9.918,4.966-19.76,10.936-27.962,18.311
		c-19.381,17.43-34.821,38.39-43.238,63.092c-10.121,29.704-19.105,59.9-26.576,90.375c-8.066,32.911-14.202,66.317-20.376,99.657
		c-2.28,12.316-5.47,17.602-17.784,20.641c-3.865,0.954-7.837,1.637-11.802,1.993c-18.864,1.694-36.735,5.71-52.894,16.696
		c-19.185,13.045-39.299,24.713-58.743,37.391c-6.85,4.466-13.585,9.508-19.169,15.423c-8.75,9.268-6.374,19.433,5.466,25.765
		c1.199-1.377,2.421-2.973,3.834-4.375c32.764-32.524,69.547-58.391,115.186-69.656c6.048-1.493,11.941-3.608,17.965-5.212
		c18.231-4.852,29.205-16.6,32.991-34.935c4.137-20.032,7.788-40.166,11.994-60.183c2.382-11.335,5.452-22.526,8.56-35.199
		c55.09,33.814,110.098,62.884,168.714,85.382c-9.04,0.99-17.999,1.756-26.786,0.853c-30.549-3.14-61.025-6.98-91.558-10.289
		c-10.656-1.155-21.39-1.96-32.099-2.098c-5.187-0.067-10.918,1.084-11.914,8.921c51.008,8.378,101.618,15.94,153.43,18.369
		c-5.063,3.899-10.309,7.206-15.981,8.301c-18.129,3.495-36.413,6.193-54.643,9.157c-21.184,3.443-42.491,6.336-62.07,16.048
		c-13.052,6.474-21.492,16.339-22.377,31.234c-0.829,13.947-0.868,27.941-1.312,41.914c-0.454,14.268-4.207,27.079-15.908,36.513
		c-2.352,1.897-4.166,4.456-6.228,6.71c0.466,0.783,0.932,1.564,1.397,2.346c6.969-2.305,14.401-3.727,20.812-7.093
		c14.189-7.45,19.966-21.481,25.292-37.505c2.578,4.43,4.737,7.16,5.869,10.266c3.757,10.301,7.462,20.643,10.532,31.16
		c1.464,5.014,4.23,6.666,7.905,3.775c5.143-4.045,9.584-9.05,13.974-13.959c3.517-3.933,3.165-7.342-0.22-12.262
		c-15.516-22.549-19.417-46.784-6.891-72.074c1.734-3.502,5.962-7.447,9.577-8.076c32.454-5.644,65.027-10.602,97.57-15.734
		C460.482,635.955,469.014,634.702,478.454,633.269z M615.702,173.453c0.593-0.636,1.186-1.271,1.778-1.907
		c-10.008-54.612-138.644-113.155-192.815-86.213c15.367,5.558,29.351,11.541,43.887,15.488c7.417,2.015,15.878-0.196,23.778,0.497
		c22.216,1.949,41.157,12.959,60.587,22.61c8.022,3.985,17.548,5.876,24.271,11.331c10.526,8.54,19.212,19.339,28.766,29.095
		C609.061,167.527,612.445,170.427,615.702,173.453z M463.371,369.152c-12.226,0.174-19.637,6.572-19.549,16.878
		c0.081,9.549,5.773,15.878,14.229,15.819c10.388-0.072,20.769-9.312,20.381-18.141C478.09,375.898,470.997,369.044,463.371,369.152
		z M557.779,358.047c10.773,0.829,21.032,1.618,30.803,2.371c2.549-7.556,0.018-10.603-5.773-9.954
		c-12.088,1.356-24.127,3.193-36.125,5.192c-1.204,0.2-2.879,2.895-2.828,4.38c0.218,6.413,0.996,12.806,1.636,19.942
		c14.802-1.483,29.373,1.521,42.479-6.832c-2.491-1.479-4.991-2.266-7.543-2.497c-5.463-0.495-10.992-0.399-16.424-1.098
		C555.371,368.443,554.997,367.535,557.779,358.047z M629.182,405.464c9.703-0.083,19.029-8.245,18.992-16.622
		c-0.034-8.016-6.921-15.264-14.34-15.094c-11.839,0.27-18.963,6.642-18.743,16.764
		C615.296,399.921,620.588,405.536,629.182,405.464z"/>
	<path fill-rule="evenodd" clip-rule="evenodd" d="M377.782,473.36c0.68,14.806,1.486,27.765,1.82,40.737
		c0.43,16.722,7.633,29.386,22.438,37.037c12.17,6.288,24.87,11.544,37.237,17.463c7.575,3.626,14.964,7.641,22.436,11.479
		c-0.42,0.903-0.84,1.807-1.26,2.71c-16.094-6.944-32.842-12.693-48.152-21.071c-36.759-20.116-72.839-41.474-109.203-62.313
		c-12.053-6.906-12.806-7.021-10.208-20.878c3.387-18.073,7.272-36.145,12.519-53.747c3.485-11.69,8.557-12.852,20.056-7.993
		c2.749,1.161,5.577,2.359,7.975,4.085c21.064,15.158,42.585,29.752,62.896,45.869c22.982,18.236,37.385,41.953,39.558,71.998
		c0.07,0.959,0.01,1.929,0.01,2.894c-0.666,0.356-1.33,0.714-1.995,1.07c-2.637-4.399-6.351-8.487-7.734-13.251
		C418.715,503.758,397.886,489.993,377.782,473.36z"/>
	<path fill-rule="evenodd" clip-rule="evenodd" d="M686.37,583.229c-4.685,3.147-8.782,5.9-14.499,9.742
		c-9.465-10.369-19.078-20.899-29.857-32.707c0,9.007,0,17.078,0,26.272c-6.311,0-11.257,0.417-16.062-0.225
		c-1.704-0.228-3.985-2.813-4.43-4.694c-2.805-11.861-5.05-23.854-7.734-35.746c-1.031-4.57-2.734-8.99-4.131-13.478
		c-1.312,0.153-2.626,0.306-3.938,0.459c-0.132,6.106-0.816,12.261-0.269,18.306c0.854,9.419,2.869,18.735,3.645,28.157
		c0.187,2.271-2.72,6.9-3.936,6.812c-4.795-0.354-11.949,4.175-13.93-3.885c-2.553-10.391-3.619-21.141-6.068-31.562
		c-1.704-7.254-4.656-14.216-8.332-20.984c-11.102,18.997-1.317,37.432,0.044,55.562c-0.577,0.538-0.74,0.828-0.945,0.861
		c-14.9,2.423-14.908,2.423-18.466-12.238c-2.924-12.055-5.825-24.114-8.939-37.01c-6.734,3.808-8.496,9.405-8.077,15.475
		c0.667,9.694,2.129,19.332,3.188,29.001c0.264,2.41,0.271,4.851,0.421,7.709c-5.145,0.823-9.691,1.552-14.521,2.325
		c-1.612-8.774-3.08-16.767-4.463-24.294c-8.951,6.96-17.965,13.459-26.326,20.711c-3.617,3.137-6.654,7.5-8.541,11.91
		c-1.699,3.972-4.279,5.582-7.27,3.844c-4.216-2.451-9.641-5.711-10.779-9.701c-1.008-3.535,2.527-8.971,5.218-12.738
		c1.68-2.352,5.36-3.684,8.406-4.581c19.875-5.856,33.127-19.745,44.413-36.086c7.523-10.891,15.047-21.782,22.42-32.774
		c2.904-4.328,6.319-6.044,11.818-5.735c15.709,0.881,31.466,0.841,47.187,1.547c3.246,0.146,7.021,1.174,9.53,3.116
		C647.988,527.369,668.798,553.342,686.37,583.229z"/>
	<path fill-rule="evenodd" clip-rule="evenodd" d="M689.25,536.803c-17.811-8.838-30.9-20.341-43.713-32.189
		c-7.516-6.95-14.985-13.963-22.161-21.257c-1.632-1.659-2.933-4.678-2.747-6.935c1.702-20.601-3.541-27.881-23.928-32.465
		c-0.389-0.087-0.689-0.562-1.247-1.04c3.771-6.021,10.402-7.028,15.061-4.292c23.674,13.91,50.101,11.559,75.7,14.185
		c1.241,0.128,2.492,0.232,3.715,0.472c20.724,4.068,24.922,9.953,18.717,29.896C703.116,500.95,696.034,518.24,689.25,536.803z"/>
	<path fill-rule="evenodd" clip-rule="evenodd" d="M608.514,279.325c-0.435,6.746-0.054,11.764-1.222,16.392
		c-1.755,6.958-4.808,13.437-2.112,21.044c0.572,1.619-2.701,5.248-4.936,7.03c-2.178,1.736-5.295,2.292-9.531,3.975
		c-2.988-10.719-6.104-20.572-8.375-30.616c-1.074-4.753,1.157-8.524,6.454-10.204C594.45,285.151,599.898,282.695,608.514,279.325z
		"/>
	<path fill-rule="evenodd" clip-rule="evenodd" d="M704.912,620.806c-6.033,2.789-10.269,0.772-13.58-3.483
		c-4.636-5.961-4.049-18.012,0.873-23.811c3.973-4.678,11.186-5.162,15.115-0.576c0.869,1.014,0.492,4.894-0.337,5.285
		c-7.97,3.765-6.575,9.215-3.58,15.445C704.42,615.777,704.43,618.372,704.912,620.806z"/>
</g>
</svg>
