<?xml version="1.0" encoding="UTF-8" standalone="no"?>
<!-- Generator: Adobe Illustrator 24.1.2, SVG Export Plug-In . SVG Version: 6.00 Build 0)  -->

<svg
   version="1.1"
   id="Layer_1"
   x="0px"
   y="0px"
   viewBox="0 0 958.55023 848.85413"
   xml:space="preserve"
   sodipodi:docname="01.svg"
   inkscape:version="1.1.1 (3bf5ae0d25, 2021-09-20)"
   width="958.55023"
   height="848.85413"
   xmlns:inkscape="http://www.inkscape.org/namespaces/inkscape"
   xmlns:sodipodi="http://sodipodi.sourceforge.net/DTD/sodipodi-0.dtd"
   xmlns="http://www.w3.org/2000/svg"
   xmlns:svg="http://www.w3.org/2000/svg"><defs
   id="defs33" /><sodipodi:namedview
   id="namedview31"
   pagecolor="#505050"
   bordercolor="#ffffff"
   borderopacity="1"
   inkscape:pageshadow="0"
   inkscape:pageopacity="0"
   inkscape:pagecheckerboard="1"
   showgrid="false"
   inkscape:zoom="0.54"
   inkscape:cx="482.40741"
   inkscape:cy="423.14815"
   inkscape:window-width="1920"
   inkscape:window-height="999"
   inkscape:window-x="0"
   inkscape:window-y="0"
   inkscape:window-maximized="1"
   inkscape:current-layer="Layer_1"
   fit-margin-top="0"
   fit-margin-left="0"
   fit-margin-right="0"
   fit-margin-bottom="0" />
<style
   type="text/css"
   id="style2">
	.st0{fill:#FFFFFF;}
	.st1{fill:#7F52FF;}
</style>
<g
   id="g28"
   transform="translate(-120.72676,-175.54589)">
	<g
   id="g10">
		<path
   class="st0"
   d="m 894.4,684.2 c 16.6,-8.5 28,-25.8 28,-45.8 V 205 c 0,-24.2 -27.5,-38 -46.9,-23.6 l -247,183.7 -247,-183.7 C 362.1,167 334.6,180.8 334.6,205 v 375.4 c -77.5,31.2 -138,93 -177.1,181.9 l 47.1,20.7 v 0 0 c 30.4,-69.3 74,-118.2 130,-146.4 v 1.7 c 0,28.4 23,51.4 51.4,51.4 h 154.1 c -2.9,23.4 -12,74.5 -39.6,129.6 -20.4,40.8 -87.7,67.3 -112,74.1 l 20.1,63 c 7.8,-2.3 31.5,-9.9 58.2,-23.5 45.3,-23 76.6,-51.3 93,-84.1 35.2,-70.4 44.6,-134.5 47,-159.2 H 630 c 14.6,13.6 68.2,65.8 93.1,125.2 20.7,49.4 26.5,116.1 28,144.6 l 66.7,-0.2 c -1.5,-30.7 -8.1,-108.9 -33.7,-170 -16,-38.2 -40.7,-73 -63.1,-99.7 h 108.3 c 40.6,49.6 97.8,86.4 169.6,108.6 l 5.5,-17.7 4.2,-13.6 5.5,-17.8 v 0 0 C 965.8,734.3 925.9,712.6 894.4,684.2 Z M 791.6,631 H 486 c -12.2,0 -22,-9.9 -22,-22 V 425.3 c 0,-12.2 9.9,-22 22,-22 h 396.8 c 12.2,0 22,9.9 22,22 V 609 c 0,12.2 -9.9,22 -22,22 h -32.7 z"
   id="path4"
   style="fill:#bfbfbf;fill-opacity:1" />
		<path
   class="st0"
   d="m 600.7,424.2 c -50.2,0 -91.1,40.9 -91.1,91.1 0,50.2 40.9,91.1 91.1,91.1 50.2,0 91.1,-40.9 91.1,-91.1 0,-50.2 -40.9,-91.1 -91.1,-91.1 z m 0,161.7 c -38.9,0 -70.5,-31.6 -70.5,-70.5 0,-38.9 31.6,-70.5 70.5,-70.5 38.9,0 70.5,31.6 70.5,70.5 0,38.9 -31.6,70.5 -70.5,70.5 z"
   id="path6" />
		<path
   class="st0"
   d="m 888.8,515.4 c 0,-50.2 -40.9,-91.1 -91.1,-91.1 -50.2,0 -91.1,40.9 -91.1,91.1 0,44.3 31.8,81.4 73.9,89.5 5.6,1.1 11.4,1.7 17.3,1.7 12.7,0 24.8,-2.6 35.8,-7.4 32.4,-14 55.2,-46.3 55.2,-83.8 z M 826,579.9 c -8.7,3.8 -18.3,6 -28.4,6 -8.9,0 -17.4,-1.7 -25.2,-4.7 -26.5,-10.2 -45.3,-35.9 -45.3,-65.9 0,-38.9 31.6,-70.5 70.5,-70.5 38.9,0 70.5,31.6 70.5,70.5 0.1,28.9 -17.3,53.7 -42.1,64.6 z"
   id="path8" />
	</g>
	<g
   id="g26">
		<path
   d="m 1079,760.5 c -1.3,-5.5 -6.9,-8.9 -12.4,-7.6 l -38.1,9.1 1.9,-6 c 0.2,-0.8 -0.2,-1.6 -1,-1.8 l -15.4,-4.8 v 0 l -5.5,17.8 -4.2,13.6 -5.5,17.7 v 0 l 15.4,4.8 c 0.8,0.2 1.6,-0.2 1.8,-1 l 1.8,-5.7 26.1,29.3 c 2,2.3 4.9,3.5 7.7,3.5 2.4,0 4.9,-0.9 6.8,-2.6 4.2,-3.8 4.6,-10.3 0.9,-14.5 l -26.7,-30.1 38.8,-9.2 c 5.5,-1.5 8.9,-7 7.6,-12.5 z"
   id="path12" />
		<path
   d="m 797.6,444.8 c -38.9,0 -70.5,31.6 -70.5,70.5 0,30 18.9,55.7 45.3,65.9 7.8,3 16.3,4.7 25.2,4.7 10.1,0 19.7,-2.1 28.4,-6 24.8,-10.9 42.1,-35.8 42.1,-64.6 0.1,-38.8 -31.6,-70.5 -70.5,-70.5 z"
   id="path14" />
		<circle
   cx="600.70001"
   cy="515.40002"
   r="70.5"
   id="circle16" />
		<path
   d="M 882.8,403.2 H 486 c -12.2,0 -22,9.9 -22,22 V 609 c 0,12.2 9.9,22 22,22 h 396.8 c 12.2,0 22,-9.9 22,-22 V 425.3 c 0.1,-12.2 -9.8,-22.1 -22,-22.1 z M 600.7,606.5 c -50.2,0 -91.1,-40.9 -91.1,-91.1 0,-50.2 40.9,-91.1 91.1,-91.1 50.2,0 91.1,40.9 91.1,91.1 0,50.2 -40.9,91.1 -91.1,91.1 z m 232.8,-7.4 c -11,4.7 -23.1,7.4 -35.8,7.4 -5.9,0 -11.7,-0.6 -17.3,-1.7 -42,-8.1 -73.9,-45.1 -73.9,-89.5 0,-50.2 40.9,-91.1 91.1,-91.1 50.2,0 91.1,40.9 91.1,91.1 0.1,37.6 -22.7,69.9 -55.2,83.8 z"
   id="path18" />
		<path
   d="m 812.6,986 h 1.5 c 2.8,0 4.5,-2.5 4.3,-5.4 l -0.6,-21.1 v 0 l -66.7,0.2 v 0 l 0.6,22.9 c 0.4,2.1 2.2,3.5 4.3,3.5 h 1.9 c -10.6,7.7 -17.9,19.7 -19.3,33.4 -0.3,2.6 1.8,4.9 4.4,4.9 l 84.8,-0.2 c 2.6,0 4.7,-2.3 4.4,-4.9 -1.6,-13.8 -9,-25.7 -19.6,-33.3 z"
   id="path20" />
		<path
   d="m 388.5,893.5 v 0 l -20.9,4 c -2.8,0.3 -4.7,3 -3.8,5.7 l 0.3,1.1 c -10.5,-7.8 -24.1,-11.2 -37.7,-8.4 -2.6,0.5 -4.1,3.2 -3.3,5.7 l 25.7,80.8 c 0.8,2.5 3.6,3.7 6,2.7 12.7,-5.5 21.8,-16.1 25.9,-28.6 l 0.7,2.1 c 0.6,2 2.6,3.3 4.7,3 l 22.6,-4.5 -0.1,-0.4 z"
   id="path22" />
		<path
   d="m 157.5,762.3 v 0 l -6.5,14.8 c -0.3,0.7 0,1.6 0.8,1.9 l 5.5,2.4 -32.2,22.6 c -4.6,3.3 -5.8,9.7 -2.5,14.3 3.3,4.7 9.7,5.8 14.3,2.5 l 32.9,-23.1 4.8,39.6 c 0.6,5.2 5.1,9.1 10.2,9.1 0.4,0 0.8,0 1.2,-0.1 5.6,-0.7 9.7,-5.8 9,-11.4 l -4.7,-38.8 5.8,2.5 c 0.7,0.3 1.6,0 1.9,-0.8 l 6.5,-14.8 v 0 z"
   id="path24" />
	</g>
</g>
</svg>
