<?xml version="1.0" encoding="UTF-8" standalone="no"?>
<!-- Generator: Adobe Illustrator 24.1.2, SVG Export Plug-In . SVG Version: 6.00 Build 0)  -->

<svg
   version="1.1"
   id="Layer_1"
   x="0px"
   y="0px"
   viewBox="0 0 1030.2373 891.77045"
   xml:space="preserve"
   sodipodi:docname="03.svg"
   inkscape:version="1.1.1 (3bf5ae0d25, 2021-09-20)"
   width="1030.2373"
   height="891.77045"
   xmlns:inkscape="http://www.inkscape.org/namespaces/inkscape"
   xmlns:sodipodi="http://sodipodi.sourceforge.net/DTD/sodipodi-0.dtd"
   xmlns="http://www.w3.org/2000/svg"
   xmlns:svg="http://www.w3.org/2000/svg"><defs
   id="defs41" /><sodipodi:namedview
   id="namedview39"
   pagecolor="#505050"
   bordercolor="#ffffff"
   borderopacity="1"
   inkscape:pageshadow="0"
   inkscape:pageopacity="0"
   inkscape:pagecheckerboard="1"
   showgrid="false"
   inkscape:zoom="0.54"
   inkscape:cx="517.59259"
   inkscape:cy="445.37037"
   inkscape:window-width="1920"
   inkscape:window-height="999"
   inkscape:window-x="0"
   inkscape:window-y="0"
   inkscape:window-maximized="1"
   inkscape:current-layer="Layer_1"
   fit-margin-top="0"
   fit-margin-left="0"
   fit-margin-right="0"
   fit-margin-bottom="0" />
<style
   type="text/css"
   id="style2">
	.st0{fill:#FFFFFF;}
	.st1{fill:#7F52FF;}
</style>
<g
   id="g36"
   transform="translate(-84.882668,-154.12956)">
	<g
   id="g14">
		<path
   class="st0"
   d="M 950.7,534 908.6,180.1 c -2.9,-24 -31.8,-34.5 -49.4,-17.9 L 635.7,373.9 368.7,220.6 c -21,-12 -46.7,5 -43.8,29 l 35.3,296.5 c -6.1,8.6 -20.4,27.1 -39.9,44.2 -31.8,27.8 -62.2,39 -90.3,33.2 -20,-4.2 -31.1,-11.4 -38.1,-25 -8.8,-17 -12.3,-45.6 -10.6,-87.4 3.9,-97.6 -13.9,-145 -14.7,-147 0,0 -48,18.5 -48,18.5 5.1,13.8 14,58 11.3,126.5 -2.1,52.4 3,87.3 16.3,113.1 14.2,27.5 38.2,44.4 73.3,51.7 8.6,1.8 17,2.6 25.3,2.6 51.2,0 94.6,-31.8 123.6,-60.8 l 7.7,64.3 c 3.4,28.2 28.9,48.4 57.2,45 L 570.9,708.6 514.5,981.2 H 582 l 58,-280.9 33.7,-4 58.9,284.9 h 67.5 L 739.6,688.5 914.7,667.7 c 28.2,-3.4 48.4,-28.9 45,-57.2 l -0.8,-7 c 60,51.4 90.3,124.2 90.3,217 h 51.4 C 1100.7,693.7 1048.9,594.7 950.7,534 Z M 412.1,342 c 3.1,-6.7 11,-9.7 17.7,-6.6 4.3,1.9 7,5.8 7.7,10.1 3.7,-2.3 8.4,-2.8 12.7,-0.9 6.7,3.1 9.7,11 6.6,17.7 -6.2,13.5 -27.4,16.3 -34.6,16.8 -4.4,-5.7 -16.2,-23.6 -10.1,-37.1 z m 478.3,269.3 -446.6,53.1 c -12.1,1.4 -23.1,-7.2 -24.5,-19.3 L 397.6,462.7 c -1.4,-12.1 7.2,-23.1 19.3,-24.5 l 446.6,-53.1 c 12.1,-1.4 23.1,7.2 24.5,19.3 l 21.7,182.4 c 1.4,12.1 -7.2,23.1 -19.3,24.5 z"
   id="path4"
   style="fill:#bfbfbf;fill-opacity:1" />
		<path
   class="st0"
   d="m 796.5,448.8 c -20.9,-4.7 -44.7,-3.3 -68.8,3.9 -31.7,9.5 -58.8,31.6 -65.9,53.7 -3.7,11.4 -1.8,22.7 5.2,31.7 8.5,10.9 18.2,14.8 28.1,14.8 14.1,0 28.5,-7.9 40.3,-14.4 6.9,-3.8 14,-7.6 20.5,-10 13.2,-4.8 27.8,-0.5 42,3.7 9.8,2.9 19.1,5.7 27.8,5.3 11.6,-0.5 20.4,-6.7 25.4,-17.9 6.5,-14.5 2.9,-31.6 -9.5,-45.7 -10.4,-12 -26.5,-20.9 -45.1,-25.1 z m 35.9,62.4 c -3.1,6.9 -6.3,7.9 -28.6,1.3 -15.8,-4.7 -35.4,-10.5 -55,-3.3 -7.9,2.9 -15.7,7.2 -23.2,11.3 -24.7,13.5 -33.7,15.9 -42.3,4.9 -1.8,-2.3 -3.9,-6.1 -1.8,-12.8 4.9,-15.3 27.8,-33 52.2,-40.3 46.4,-13.9 78.9,-0.6 92.7,15.1 6.9,8.1 9.2,16.8 6,23.8 z"
   id="path6" />
		<path
   class="st0"
   d="m 561.5,477.9 c 0,0 -0.1,0 -0.1,0 -58.2,0 -91.9,28.5 -103.1,52.9 -7.9,17.1 -6.4,34.5 4,46.5 6.2,7.2 13.7,10.8 21.9,10.8 2.5,0 5,-0.3 7.6,-1 8.5,-2.1 16.6,-7.4 25.1,-13 12.4,-8.1 25.2,-16.5 39.2,-15.6 6.9,0.4 14.8,2.1 22.5,3.8 22.4,4.8 53.2,11.4 65.4,-20 v 0 c 4.1,-10.6 2.7,-21.9 -4.1,-31.9 -13,-19 -45.3,-32.4 -78.4,-32.5 z m 63.4,57 c -5.1,13 -14.4,13.2 -41.9,7.4 -8.4,-1.8 -17,-3.6 -25.5,-4.2 -20.8,-1.3 -38,9.9 -51.8,18.9 -19.5,12.7 -22.9,12.7 -27.8,6.9 -5,-5.8 -5.3,-14.8 -0.9,-24.5 8.7,-18.9 35.9,-40.9 84.4,-40.9 0,0 0.1,0 0.1,0 25.4,0 52.4,10.4 61.5,23.7 3.9,5.7 2.9,10 1.9,12.7 z"
   id="path8" />
		<path
   class="st0"
   d="m 452.4,609 c -2.7,2.4 -3.9,5.9 -3.5,9.2 -3.2,-0.9 -6.9,-0.3 -9.6,2.1 -4.3,3.7 -4.8,10.2 -1.1,14.5 7.5,8.7 23.8,6.1 29.3,4.9 1.9,-5.3 6.8,-21 -0.7,-29.7 -3.6,-4.3 -10.1,-4.7 -14.4,-1 z"
   id="path10" />
		<path
   class="st0"
   d="m 272.9,515 c 6.2,-7.3 23.1,-29.9 16,-48.2 -3.5,-9.1 -13.7,-13.6 -22.8,-10.1 -5.8,2.2 -9.7,7.2 -10.9,12.8 -4.7,-3.4 -10.9,-4.4 -16.7,-2.1 -9.1,3.5 -13.6,13.7 -10.1,22.8 7.3,18.3 35,23.6 44.5,24.8 z"
   id="path12"
   style="fill:#bfbfbf;fill-opacity:1" />
	</g>
	<g
   id="g34">
		<path
   d="m 158.9,348.1 -5.6,2.2 6.9,-38.6 c 1,-5.6 -2.7,-10.9 -8.3,-11.9 -5.6,-1 -10.9,2.7 -11.9,8.3 l -7.1,39.6 -31.3,-24.8 c -4.5,-3.5 -10.9,-2.8 -14.5,1.7 -3.5,4.5 -2.8,10.9 1.7,14.5 l 30.7,24.3 -5.9,2.3 c -0.8,0.3 -1.1,1.1 -0.8,1.9 l 5.8,15.1 48,-18.5 -5.8,-15.1 c -0.3,-0.9 -1.2,-1.3 -1.9,-1 z"
   id="path16" />
		<path
   d="m 733.6,472.4 c -24.4,7.3 -47.3,25 -52.2,40.3 -2.1,6.6 0,10.5 1.8,12.8 8.6,11 17.6,8.5 42.3,-4.9 7.5,-4.1 15.3,-8.4 23.2,-11.3 19.6,-7.2 39.2,-1.4 55,3.3 22.3,6.6 25.5,5.6 28.6,-1.3 3.1,-7 0.9,-15.7 -6.2,-23.7 -13.6,-15.8 -46,-29.1 -92.5,-15.2 z"
   id="path18" />
		<path
   d="m 888,404.4 c -1.4,-12.1 -12.4,-20.7 -24.5,-19.3 l -446.6,53.1 c -12.1,1.4 -20.7,12.4 -19.3,24.5 l 21.7,182.4 c 1.4,12.1 12.4,20.7 24.5,19.3 l 446.6,-53.1 c 12.1,-1.4 20.7,-12.4 19.3,-24.5 z M 467.6,639.8 c -5.5,1.2 -21.8,3.7 -29.3,-4.9 -3.7,-4.3 -3.3,-10.8 1.1,-14.5 2.7,-2.4 6.4,-3 9.6,-2.1 -0.5,-3.3 0.7,-6.8 3.5,-9.2 4.3,-3.7 10.8,-3.3 14.5,1.1 7.4,8.5 2.5,24.3 0.6,29.6 z M 644,542.4 v 0 c -12.2,31.4 -43,24.8 -65.4,20 -7.6,-1.6 -15.6,-3.3 -22.5,-3.8 -14,-0.9 -26.8,7.5 -39.2,15.6 -8.6,5.6 -16.7,10.9 -25.1,13 -2.6,0.7 -5.1,1 -7.6,1 -8.3,0 -15.8,-3.7 -21.9,-10.8 -10.4,-12 -11.8,-29.4 -4,-46.5 11.2,-24.4 44.9,-52.9 103.1,-52.9 0,0 0.1,0 0.1,0 33.1,0 65.4,13.4 78.5,32.6 6.7,9.9 8.2,21.2 4,31.8 z m 207.2,-22.8 c -5,11.2 -13.8,17.4 -25.4,17.9 -8.7,0.4 -18,-2.4 -27.8,-5.3 -14.2,-4.2 -28.8,-8.6 -42,-3.7 -6.5,2.4 -13.6,6.3 -20.5,10 -11.8,6.5 -26.2,14.4 -40.3,14.4 -9.9,0 -19.6,-3.9 -28.1,-14.8 -7,-9 -8.9,-20.2 -5.2,-31.7 7.1,-22.1 34.1,-44.2 65.9,-53.7 24.1,-7.2 47.9,-8.6 68.8,-3.9 18.6,4.2 34.7,13.1 45.2,25.1 12.4,14.2 15.9,31.3 9.4,45.7 z"
   id="path20" />
		<path
   d="m 561.5,498.5 c 0,0 -0.1,0 -0.1,0 -48.4,0 -75.7,22 -84.4,40.9 -4.5,9.8 -4.2,18.7 0.9,24.5 4.9,5.7 8.3,5.8 27.8,-6.9 13.8,-9 30.9,-20.2 51.8,-18.9 8.5,0.5 17.1,2.4 25.5,4.2 27.5,5.9 36.9,5.6 41.9,-7.4 1.1,-2.7 2,-7 -1.9,-12.8 -9.1,-13.2 -36.1,-23.6 -61.5,-23.6 z"
   id="path22" />
		<path
   d="m 1113.6,871.7 -20.3,-33.6 h 6 c 0.8,0 1.5,-0.7 1.5,-1.5 v -16.2 h -51.4 v 16.2 c 0,0.8 0.7,1.5 1.5,1.5 h 6.3 l -19.9,33.7 c -2.9,4.9 -1.3,11.2 3.6,14.1 1.6,1 3.4,1.4 5.2,1.4 3.5,0 6.9,-1.8 8.9,-5.1 l 20.3,-34.3 20.8,34.4 c 2.9,4.9 9.3,6.4 14.1,3.5 4.8,-2.9 6.4,-9.3 3.4,-14.1 z"
   id="path24" />
		<path
   d="m 799.2,1007.6 h 1.3 c 2.8,0 4.9,-2.6 4.3,-5.4 l -4.6,-21.1 v 0 h -67.5 v 0 l 4.6,22.9 c 0.4,2.1 2.2,3.5 4.3,3.5 h 2.8 c -10.7,7.6 -18,19.6 -19.4,33.3 -0.3,2.6 1.8,4.9 4.4,4.9 h 84.8 c 2.6,0 4.7,-2.3 4.4,-4.9 -1.4,-13.6 -8.7,-25.6 -19.4,-33.2 z"
   id="path26" />
		<path
   d="m 570.1,1007.6 h 2.8 c 2.1,0 3.9,-1.5 4.3,-3.5 l 4.6,-22.9 v 0 h -67.5 v 0 l -4.6,21.1 c -0.6,2.8 1.5,5.4 4.3,5.4 h 1.3 c -10.7,7.6 -18,19.6 -19.4,33.3 -0.3,2.6 1.8,4.9 4.4,4.9 h 84.8 c 2.6,0 4.7,-2.3 4.4,-4.9 -1.4,-13.8 -8.7,-25.8 -19.4,-33.4 z"
   id="path28" />
		<path
   d="m 224.5,202.6 c -9,2.6 -15.7,9.5 -18.3,17.9 -6.6,-5.7 -15.9,-8.1 -24.9,-5.5 -14.2,4.1 -22.5,18.9 -18.4,33.2 8.2,28.7 49.5,40.5 63.8,43.8 10.4,-10.3 39.2,-42.2 31,-70.9 -4.1,-14.3 -19,-22.6 -33.2,-18.5 z"
   id="path30" />
		<path
   d="m 456.7,362.4 c 3.1,-6.7 0.1,-14.6 -6.6,-17.7 -4.3,-1.9 -9,-1.5 -12.7,0.9 -0.7,-4.3 -3.4,-8.2 -7.7,-10.1 -6.7,-3.1 -14.6,-0.1 -17.7,6.6 -6.2,13.5 5.7,31.3 10,37.2 7.4,-0.7 28.6,-3.4 34.7,-16.9 z"
   id="path32" />
	</g>
</g>
</svg>
