<?xml version="1.0" encoding="UTF-8" standalone="no"?>
<!-- Generator: Adobe Illustrator 24.1.2, SVG Export Plug-In . SVG Version: 6.00 Build 0)  -->

<svg
   version="1.1"
   id="Layer_1"
   x="0px"
   y="0px"
   viewBox="0 0 1141.6155 872.35413"
   xml:space="preserve"
   sodipodi:docname="04.svg"
   inkscape:version="1.1.1 (3bf5ae0d25, 2021-09-20)"
   width="1141.6155"
   height="872.35413"
   xmlns:inkscape="http://www.inkscape.org/namespaces/inkscape"
   xmlns:sodipodi="http://sodipodi.sourceforge.net/DTD/sodipodi-0.dtd"
   xmlns="http://www.w3.org/2000/svg"
   xmlns:svg="http://www.w3.org/2000/svg"><defs
   id="defs33" /><sodipodi:namedview
   id="namedview31"
   pagecolor="#505050"
   bordercolor="#ffffff"
   borderopacity="1"
   inkscape:pageshadow="0"
   inkscape:pageopacity="0"
   inkscape:pagecheckerboard="1"
   showgrid="false"
   inkscape:zoom="0.54"
   inkscape:cx="573.14815"
   inkscape:cy="436.11111"
   inkscape:window-width="1920"
   inkscape:window-height="999"
   inkscape:window-x="0"
   inkscape:window-y="0"
   inkscape:window-maximized="1"
   inkscape:current-layer="Layer_1"
   fit-margin-top="0"
   fit-margin-left="0"
   fit-margin-right="0"
   fit-margin-bottom="0" />
<style
   type="text/css"
   id="style2">
	.st0{fill:#FFFFFF;}
	.st1{fill:#7F52FF;}
</style>
<g
   id="g28"
   transform="translate(-29.163479,-163.84589)">
	<g
   id="g18">
		<path
   d="m 1168.6,295.7 c -3.5,-4.5 -9.9,-5.3 -14.4,-1.8 l -31.5,24.4 -6.7,-39.7 c -0.9,-5.6 -6.3,-9.4 -11.9,-8.4 -5.6,0.9 -9.4,6.3 -8.4,11.9 l 6.5,38.7 -5.6,-2.2 c -0.8,-0.3 -1.6,0.1 -1.9,0.8 l -6,15 47.9,18.7 5.9,-14.8 c 0.3,-0.8 -0.1,-1.6 -0.8,-1.9 l -5.8,-2.3 30.9,-24 c 4.5,-3.5 5.3,-9.9 1.8,-14.4 z"
   id="path4" />
		<path
   d="M 824,391.5 H 374.3 c -12.2,0 -22,9.9 -22,22 v 183.7 c 0,12.2 9.9,22 22,22 H 824 c 12.2,0 22,-9.9 22,-22 V 413.6 c 0,-12.2 -9.8,-22.1 -22,-22.1 z M 500.7,594.8 c -50.2,0 -91.1,-40.9 -91.1,-91.1 0,-50.2 40.9,-91.1 91.1,-91.1 50.2,0 91.1,40.9 91.1,91.1 0,50.2 -40.9,91.1 -91.1,91.1 z m 312,-75.6 c -5,11.2 -13.8,17.4 -25.4,17.9 -8.7,0.4 -18,-2.4 -27.8,-5.3 -14.2,-4.2 -28.8,-8.6 -42,-3.7 -6.5,2.4 -13.6,6.3 -20.5,10 -11.8,6.5 -26.2,14.4 -40.3,14.4 -9.9,0 -19.6,-3.9 -28.1,-14.8 -7,-9 -8.9,-20.2 -5.2,-31.7 7.1,-22.1 34.1,-44.2 65.9,-53.7 24.1,-7.2 47.9,-8.6 68.8,-3.9 18.6,4.2 34.7,13.1 45.2,25.1 12.4,14.2 15.9,31.3 9.4,45.7 z"
   id="path6" />
		<path
   d="m 695.1,472 c -24.4,7.3 -47.3,25 -52.2,40.3 -2.1,6.6 0,10.5 1.8,12.8 8.6,11 17.6,8.5 42.3,-4.9 7.5,-4.1 15.3,-8.4 23.2,-11.3 19.6,-7.2 39.2,-1.4 55,3.3 22.3,6.6 25.5,5.6 28.6,-1.3 3.1,-7 0.9,-15.7 -6.2,-23.7 -13.5,-15.8 -46,-29.1 -92.5,-15.2 z"
   id="path8" />
		<circle
   cx="500.70001"
   cy="503.60001"
   r="70.5"
   id="circle10" />
		<path
   d="m 741.9,997.9 h 1.3 c 2.8,0 4.9,-2.6 4.3,-5.4 l -4.6,-21.1 v 0 h -67.5 v 0 l 4.6,22.9 c 0.4,2.1 2.2,3.5 4.3,3.5 h 2.8 c -10.7,7.6 -18,19.6 -19.4,33.3 -0.3,2.6 1.8,4.9 4.4,4.9 h 84.8 c 2.6,0 4.7,-2.3 4.4,-4.9 -1.4,-13.6 -8.8,-25.6 -19.4,-33.2 z"
   id="path12" />
		<path
   d="m 512.8,997.9 h 2.8 c 2.1,0 3.9,-1.5 4.3,-3.5 l 4.6,-22.9 v 0 H 457 v 0 l -4.6,21.1 c -0.6,2.8 1.5,5.4 4.3,5.4 h 1.3 c -10.7,7.6 -18,19.6 -19.4,33.3 -0.3,2.6 1.8,4.9 4.4,4.9 h 84.8 c 2.6,0 4.7,-2.3 4.4,-4.9 -1.4,-13.8 -8.8,-25.8 -19.4,-33.4 z"
   id="path14" />
		<path
   d="m 103.3,318.6 -5.6,2.2 6.5,-38.7 c 0.9,-5.6 -2.8,-10.9 -8.4,-11.9 -5.6,-0.9 -10.9,2.8 -11.9,8.4 l -6.7,39.7 -31.5,-24.4 c -4.5,-3.5 -11,-2.7 -14.4,1.8 -3.4,4.5 -2.7,11 1.8,14.4 l 30.9,24 -5.8,2.3 c -0.8,0.3 -1.1,1.2 -0.8,1.9 l 5.9,14.8 47.9,-18.7 -6,-15 c -0.3,-0.8 -1.1,-1.1 -1.9,-0.8 z"
   id="path16" />
	</g>
	<g
   id="g26">
		<path
   class="st0"
   d="m 1136.7,353.2 -47.9,-18.7 c -0.8,2 -18.7,49.5 -14.8,147.1 2.5,63.6 -6.6,85.8 -14.7,93.3 -1.8,1.6 -7.1,6.5 -24.5,4.3 -14.1,-1.8 -20.6,-12.1 -33.3,-37 -14.7,-29 -34.9,-68.6 -90.3,-68.6 -0.1,0 -0.2,0 -0.3,0 -6.4,0 -12.4,0.9 -17.9,2.3 V 193.3 c 0,-24.2 -27.5,-38 -46.9,-23.6 l -247,183.7 -247,-183.7 c -19.4,-14.4 -46.9,-0.6 -46.9,23.6 v 282.1 c -5,-1.2 -10.4,-1.9 -16.1,-1.9 -0.1,0 -0.2,0 -0.3,0 -55.4,0 -75.6,39.6 -90.3,68.6 -12.7,24.9 -19.2,35.2 -33.3,37 -17.4,2.2 -22.8,-2.7 -24.5,-4.3 -8.1,-7.4 -17.2,-29.6 -14.7,-93.3 3.9,-97.7 -14,-145.2 -14.8,-147.1 l -47.9,18.7 c 5.1,13.8 14,57.9 11.3,126.4 -2.8,70.7 6.6,110.5 31.3,133.2 13.3,12.2 30.5,18.4 51.1,18.4 4.7,0 9.6,-0.3 14.7,-1 42.5,-5.4 59.9,-39.7 72.7,-64.7 14.9,-29.4 22.7,-40.5 44.5,-40.5 0,0 0.1,0 0.1,0 8.8,0 13.9,5.8 16.2,9.3 v 92.3 c 0,28.4 23,51.4 51.4,51.4 H 517.7 L 457,971.2 h 67.5 l 60.7,-293.3 h 29.4 l 60.7,293.3 v 0 h 67.5 L 682.1,677.9 h 159.4 c 28.4,0 51.4,-23 51.4,-51.4 v -90.8 l 0.7,0.3 c 0,0 -0.1,0.2 -0.2,0.4 0.9,-1.9 6.2,-11.6 17.5,-11.6 0,0 0.1,0 0.1,0 21.8,0 29.5,11.1 44.5,40.5 12.7,25 30.2,59.3 72.7,64.7 5.1,0.6 10,1 14.7,1 20.6,0 37.7,-6.2 51.1,-18.4 24.8,-22.7 34.1,-62.6 31.3,-133.2 -2.6,-68.3 6.3,-112.4 11.4,-126.2 z M 846,597.3 c 0,12.2 -9.9,22 -22,22 H 374.3 c -12.2,0 -22,-9.9 -22,-22 V 413.6 c 0,-12.2 9.9,-22 22,-22 H 824 c 12.2,0 22,9.9 22,22 z"
   id="path20"
   style="fill:#bfbfbf;fill-opacity:1" />
		<path
   class="st0"
   d="m 500.7,412.5 c -50.2,0 -91.1,40.9 -91.1,91.1 0,50.2 40.9,91.1 91.1,91.1 50.2,0 91.1,-40.9 91.1,-91.1 0,-50.2 -40.9,-91.1 -91.1,-91.1 z m 0,161.7 c -38.9,0 -70.5,-31.6 -70.5,-70.5 0,-38.9 31.6,-70.5 70.5,-70.5 38.9,0 70.5,31.6 70.5,70.5 0,38.9 -31.6,70.5 -70.5,70.5 z"
   id="path22" />
		<path
   class="st0"
   d="m 758,448.4 c -20.9,-4.7 -44.7,-3.3 -68.8,3.9 -31.7,9.5 -58.8,31.6 -65.9,53.7 -3.7,11.4 -1.8,22.7 5.2,31.7 8.5,10.9 18.2,14.8 28.1,14.8 14.1,0 28.5,-7.9 40.3,-14.4 6.9,-3.8 14,-7.6 20.5,-10 13.2,-4.8 27.8,-0.5 42,3.7 9.8,2.9 19.1,5.7 27.8,5.3 11.6,-0.5 20.4,-6.7 25.4,-17.9 6.5,-14.5 2.9,-31.6 -9.5,-45.7 -10.4,-12 -26.5,-21 -45.1,-25.1 z m 35.9,62.4 c -3.1,6.9 -6.3,7.9 -28.6,1.3 -15.8,-4.7 -35.4,-10.5 -55,-3.3 -7.9,2.9 -15.7,7.2 -23.2,11.3 -24.7,13.5 -33.7,15.9 -42.3,4.9 -1.8,-2.3 -3.9,-6.1 -1.8,-12.8 4.9,-15.3 27.8,-33 52.2,-40.3 46.4,-13.9 78.9,-0.6 92.6,15.1 7,8.1 9.3,16.8 6.1,23.8 z"
   id="path24" />
	</g>
</g>
</svg>
