<?xml version="1.0" encoding="UTF-8" standalone="no"?>
<!-- Generator: Adobe Illustrator 24.1.2, SVG Export Plug-In . SVG Version: 6.00 Build 0)  -->

<svg
   version="1.1"
   id="Layer_1"
   x="0px"
   y="0px"
   viewBox="0 0 1174.7316 965.55811"
   xml:space="preserve"
   sodipodi:docname="06.svg"
   inkscape:version="1.1.1 (3bf5ae0d25, 2021-09-20)"
   width="1174.7316"
   height="965.55811"
   xmlns:inkscape="http://www.inkscape.org/namespaces/inkscape"
   xmlns:sodipodi="http://sodipodi.sourceforge.net/DTD/sodipodi-0.dtd"
   xmlns="http://www.w3.org/2000/svg"
   xmlns:svg="http://www.w3.org/2000/svg"><defs
   id="defs31" /><sodipodi:namedview
   id="namedview29"
   pagecolor="#505050"
   bordercolor="#ffffff"
   borderopacity="1"
   inkscape:pageshadow="0"
   inkscape:pageopacity="0"
   inkscape:pagecheckerboard="1"
   showgrid="false"
   inkscape:zoom="0.54"
   inkscape:cx="589.81481"
   inkscape:cy="482.40741"
   inkscape:window-width="1920"
   inkscape:window-height="999"
   inkscape:window-x="0"
   inkscape:window-y="0"
   inkscape:window-maximized="1"
   inkscape:current-layer="Layer_1"
   fit-margin-top="0"
   fit-margin-left="0"
   fit-margin-right="0"
   fit-margin-bottom="0" />
<style
   type="text/css"
   id="style2">
	.st0{fill:#FFFFFF;}
	.st1{fill:#7F52FF;}
</style>
<g
   id="g26"
   transform="translate(-12.628537,-117.24519)">
	<g
   id="g14">
		<path
   d="m 1186.7,226 c -2,-5.3 -8,-8 -13.3,-6 l -37.3,14.1 5.3,-39.9 c 0.7,-5.6 -3.2,-10.8 -8.8,-11.6 -5.6,-0.7 -10.8,3.2 -11.6,8.8 l -5.2,38.9 -4.7,-3.8 c -0.6,-0.5 -1.6,-0.4 -2.1,0.2 l -10.1,12.6 40.5,31.8 9.8,-12.2 c 0.5,-0.6 0.4,-1.6 -0.2,-2.1 l -4.9,-3.9 36.6,-13.8 c 5.3,-1.9 8,-7.8 6,-13.1 z"
   id="path4" />
		<path
   d="m 77.8,932 -15.4,4.9 c -0.8,0.2 -1.2,1.1 -1,1.8 l 1.9,6 -38.1,-8.8 c -5.5,-1.3 -11.1,2.2 -12.3,7.7 -1.3,5.5 2.2,11.1 7.7,12.3 l 38.8,9 -26.5,30.3 c -3.7,4.3 -3.3,10.8 1,14.5 2.8,2.4 6.5,3.1 9.8,2.1 1.8,-0.5 3.4,-1.6 4.8,-3.1 l 25.9,-29.5 1.8,5.7 c 0.2,0.8 1.1,1.2 1.8,1 L 93.4,981 Z"
   id="path6" />
		<path
   d="M 765.1,443 729.6,386.7 701.7,342.4 C 695.2,332.1 681.6,329 671.3,335.5 L 290.8,575.2 c -10.3,6.5 -13.4,20.1 -6.9,30.4 l 48.9,77.7 34.6,55 14.3,22.8 c 6.5,10.3 20.1,13.4 30.4,6.9 L 792.6,528.3 c 10.3,-6.5 13.4,-20.1 6.9,-30.4 z M 485.8,701.2 v 0 c -9.6,-12.7 -27.2,-16.3 -40.9,-8.5 12.3,-10.1 15.3,-27.9 6.7,-41.5 9.5,13 27.3,16.6 41.1,8.8 -12.3,10 -15.4,27.7 -6.9,41.2 z m 120.3,-82.4 v 0 c -26.3,-34.7 -74.2,-44.5 -111.7,-23.2 33.7,-27.5 41.8,-76.2 18.2,-113.3 26,35.4 74.4,45.4 112.2,24 -33.4,27.3 -41.7,75.5 -18.7,112.5 z m 30.4,-175.3 v 0 c -9.6,-12.7 -27.2,-16.3 -40.9,-8.5 12.3,-10.1 15.3,-27.9 6.7,-41.5 9.5,13 27.3,16.6 41.1,8.8 -12.3,10 -15.3,27.7 -6.9,41.2 z"
   id="path8" />
		<path
   d="m 564.6,1018.9 0.6,21.6 c 0,1 0.4,1.8 0.9,2.5 -10.7,8.2 -17.7,20.9 -18.4,35.1 -0.1,2.6 2,4.8 4.7,4.7 l 84.6,-4.7 c 2.6,-0.1 4.5,-2.5 4.1,-5.1 -2.9,-18.1 -16,-32.5 -32.9,-37.5 l 19.7,-4.9 c 2,-0.5 3.4,-2.4 3.3,-4.5 l -1,-23.4 z"
   id="path10" />
		<path
   d="m 1024.1,765.2 c -12,-2.7 -24.2,-0.6 -34.3,5.4 -0.4,-0.8 -1.1,-1.5 -2,-1.9 l -19.5,-9.3 -41.4,53.4 21,10.4 c 1.9,0.9 4.2,0.4 5.4,-1.3 l 13.9,-18 c -3.2,20.6 7.6,41.1 26.8,49.9 2.4,1.1 5.2,-0.1 6.1,-2.6 l 27.3,-80.3 c 0.8,-2.4 -0.7,-5.1 -3.3,-5.7 z"
   id="path12" />
	</g>
	<g
   id="g24">
		<path
   class="st0"
   d="m 1099,239.5 c -38.4,48.9 -82.9,86.8 -132.4,112.5 -39.4,20.5 -82.2,33.4 -127.1,38.5 -18.1,2 -35.1,2.6 -50.5,2.2 L 624.2,131 c -12.9,-20.5 -43.6,-17.5 -52.3,5.1 l -111.1,287 -306.9,-23.9 c -24.1,-1.9 -40,24.5 -27.1,45 l 184.6,293.1 c -0.6,1.2 -1.2,2.5 -1.8,3.7 -20.3,40.4 -47.3,76 -80.2,105.9 -41.2,37.4 -92.3,66 -151.6,85 l 15.5,49 c 66.8,-21.5 124.8,-54.1 171.8,-97 30.7,-28 56.8,-60.4 77.8,-96.6 l 14.8,23.5 c 15.1,24 46.9,31.3 70.9,16.1 l 125.1,-78.8 10.9,270.7 65.5,-16.3 -11.8,-295 41.1,-25.9 L 927,812.7 968.4,759.3 725.1,640.3 839,568.6 c 24,-15.1 31.3,-46.9 16.1,-70.9 L 821,443.5 c 7.1,-0.4 14.3,-0.9 21.7,-1.7 26.2,-2.8 51.7,-7.9 76.4,-15.3 24.1,-7.2 47.4,-16.6 69.7,-28.2 56.4,-29 107.2,-72.1 150.5,-127.1 z M 799.7,497.9 c 6.5,10.3 3.4,23.9 -6.9,30.4 L 412.2,767.9 c -10.3,6.5 -23.9,3.4 -30.4,-6.9 l -14.3,-22.8 -34.6,-55 -48.9,-77.7 c -6.5,-10.3 -3.4,-23.9 6.9,-30.4 L 671.4,335.4 c 10.3,-6.5 23.9,-3.4 30.4,6.9 l 27.9,44.3 35.5,56.3 z"
   id="path16"
   style="fill:#bfbfbf;fill-opacity:1" />
		<path
   class="st0"
   d="m 512.6,482.3 c 23.6,37.1 15.5,85.8 -18.2,113.3 37.6,-21.3 85.5,-11.5 111.6,23.2 l 0.1,-0.1 c -23,-37 -14.7,-85.2 18.7,-112.5 -37.8,21.6 -86.2,11.5 -112.2,-23.9 z"
   id="path18" />
		<path
   class="st0"
   d="m 602.3,393.5 c 8.6,13.6 5.7,31.4 -6.7,41.5 13.8,-7.8 31.3,-4.2 40.9,8.5 v 0 c -8.4,-13.5 -5.4,-31.2 6.9,-41.2 -13.9,7.9 -31.6,4.2 -41.1,-8.8 z"
   id="path20" />
		<path
   class="st0"
   d="m 451.5,651.2 c 8.6,13.6 5.7,31.4 -6.7,41.5 13.8,-7.8 31.3,-4.2 40.9,8.5 v 0 c -8.4,-13.5 -5.4,-31.2 6.9,-41.2 -13.8,7.9 -31.6,4.2 -41.1,-8.8 z"
   id="path22" />
	</g>
</g>
</svg>
