<?xml version="1.0" encoding="UTF-8" standalone="no"?>
<!-- Generator: Adobe Illustrator 24.1.2, SVG Export Plug-In . SVG Version: 6.00 Build 0)  -->

<svg
   version="1.1"
   id="Layer_1"
   x="0px"
   y="0px"
   viewBox="0 0 1011.8054 966.79437"
   xml:space="preserve"
   sodipodi:docname="07.svg"
   inkscape:version="1.1.1 (3bf5ae0d25, 2021-09-20)"
   width="1011.8054"
   height="966.79437"
   xmlns:inkscape="http://www.inkscape.org/namespaces/inkscape"
   xmlns:sodipodi="http://sodipodi.sourceforge.net/DTD/sodipodi-0.dtd"
   xmlns="http://www.w3.org/2000/svg"
   xmlns:svg="http://www.w3.org/2000/svg"><defs
   id="defs21" /><sodipodi:namedview
   id="namedview19"
   pagecolor="#505050"
   bordercolor="#ffffff"
   borderopacity="1"
   inkscape:pageshadow="0"
   inkscape:pageopacity="0"
   inkscape:pagecheckerboard="1"
   showgrid="false"
   inkscape:zoom="0.54"
   inkscape:cx="508.33333"
   inkscape:cy="482.40741"
   inkscape:window-width="1920"
   inkscape:window-height="999"
   inkscape:window-x="0"
   inkscape:window-y="0"
   inkscape:window-maximized="1"
   inkscape:current-layer="Layer_1"
   fit-margin-top="0"
   fit-margin-left="0"
   fit-margin-right="0"
   fit-margin-bottom="0" />
<style
   type="text/css"
   id="style2">
	.st0{fill:#FFFFFF;}
	.st1{fill:#7F52FF;}
</style>
<g
   id="g16"
   transform="translate(-94.126764,-116.52635)">
	<path
   class="st0"
   d="M 920,483.3 1074.2,204.6 1026.6,185.1 900.4,412.6 824.2,138.1 c -6.5,-23.3 -36.7,-29.3 -51.5,-10.2 L 583.8,371.1 296.6,260.1 c -22.5,-8.7 -45.4,12 -38.9,35.3 l 77.5,279 c -90.7,27 -160.8,92.3 -204.4,191.4 l 47.1,20.7 v 0 c 37.5,-85.3 94.9,-139.9 171,-162.6 l 24.7,89.1 c 7.6,27.4 36,43.4 63.3,35.8 l 156.6,-43.5 c -3.2,25.6 -12.4,61.6 -37.6,97.3 -27.6,39.2 -90.1,69 -114.6,78.3 l 20,63 c 2.5,-0.9 26.7,-9.9 55.8,-26 41.8,-23.1 73,-49.1 92.8,-77.3 42.4,-60.3 50.4,-121 51.1,-154.2 l 17.9,-5 v 327.8 H 745 v -346 l 159,-44.1 c 27.4,-7.6 43.4,-36 35.8,-63.3 z"
   id="path4"
   style="fill:#bfbfbf;fill-opacity:1" />
	<g
   id="g14">
		<path
   d="m 1105,171.4 c -2.8,-6.3 -12.6,-17.2 -29.8,-13.7 -4.7,1 -9.9,4.4 -14.8,8.5 l -5.3,-36.1 c -0.8,-5.6 -6.1,-9.5 -11.7,-8.7 -5.6,0.8 -9.5,6.1 -8.7,11.7 l 5.7,38.7 -5.8,-2.4 c -0.8,-0.3 -1.6,0.1 -1.9,0.8 l -6.1,15 47.6,19.5 6.1,-15 c 0.3,-0.8 -0.1,-1.6 -0.8,-1.9 l -8.5,-3.5 c 3.6,-3.4 6.8,-5.9 8.4,-6.4 3.5,-1.4 5.9,0.5 6.6,2.2 2.3,5.2 8.5,7.5 13.7,5.1 5.3,-2.5 7.7,-8.6 5.3,-13.8 z"
   id="path6" />
		<path
   d="m 735.5,1035.3 h 6.3 c 2.8,0 4.9,-2.6 4.3,-5.4 l -0.8,-20.6 h -66.1 l 0.3,22.6 c 0.2,0.9 0.6,1.6 1.2,2.2 -7.8,5.4 -14.1,13.1 -17.5,22.5 -0.9,2.5 0.5,5.2 3.1,5.8 l 82.2,20.8 c 2.5,0.6 5.1,-1.1 5.5,-3.7 2.3,-17.2 -5,-34.1 -18.5,-44.2 z"
   id="path8" />
		<path
   d="m 130.8,765.8 -6.5,14.8 c -0.3,0.7 0,1.6 0.8,1.9 l 5.5,2.4 -32.1,22.6 c -4.6,3.3 -5.8,9.7 -2.5,14.3 3.3,4.7 9.7,5.8 14.3,2.5 l 32.9,-23.1 4.8,39.6 c 0.6,5.2 5.1,9.1 10.2,9.1 0.4,0 0.8,0 1.2,-0.1 5.6,-0.7 9.7,-5.8 9,-11.4 l -4.7,-38.8 5.8,2.5 c 0.7,0.3 1.6,0 1.9,-0.8 l 6.5,-14.8 v 0 z"
   id="path10" />
		<path
   d="m 441.5,881 -20.9,4 c -2.8,0.3 -4.7,3 -3.8,5.7 l 0.3,1.1 c -10.5,-7.8 -24.1,-11.2 -37.7,-8.4 -2.6,0.5 -4.1,3.2 -3.3,5.7 l 25.7,80.8 c 0.8,2.5 3.6,3.7 6,2.7 12.7,-5.5 21.8,-16.1 25.9,-28.6 l 0.7,2.1 c 0.6,2 2.6,3.3 4.7,3 l 22.4,-5.1 z"
   id="path12" />
	</g>
</g>
</svg>
