<?xml version="1.0" encoding="UTF-8" standalone="no"?>
<!-- Generator: Adobe Illustrator 24.1.2, SVG Export Plug-In . SVG Version: 6.00 Build 0)  -->

<svg
   version="1.1"
   id="Layer_1"
   x="0px"
   y="0px"
   viewBox="0 0 1087.4336 882.45746"
   xml:space="preserve"
   sodipodi:docname="08.svg"
   inkscape:version="1.1.1 (3bf5ae0d25, 2021-09-20)"
   width="1087.4336"
   height="882.45746"
   xmlns:inkscape="http://www.inkscape.org/namespaces/inkscape"
   xmlns:sodipodi="http://sodipodi.sourceforge.net/DTD/sodipodi-0.dtd"
   xmlns="http://www.w3.org/2000/svg"
   xmlns:svg="http://www.w3.org/2000/svg"><defs
   id="defs33" /><sodipodi:namedview
   id="namedview31"
   pagecolor="#505050"
   bordercolor="#ffffff"
   borderopacity="1"
   inkscape:pageshadow="0"
   inkscape:pageopacity="0"
   inkscape:pagecheckerboard="1"
   showgrid="false"
   inkscape:zoom="0.54"
   inkscape:cx="547.22222"
   inkscape:cy="439.81481"
   inkscape:window-width="1920"
   inkscape:window-height="999"
   inkscape:window-x="0"
   inkscape:window-y="0"
   inkscape:window-maximized="1"
   inkscape:current-layer="Layer_1"
   fit-margin-top="0"
   fit-margin-left="0"
   fit-margin-right="0"
   fit-margin-bottom="0" />
<style
   type="text/css"
   id="style2">
	.st0{fill:#FFFFFF;}
	.st1{fill:#7F52FF;}
</style>
<g
   id="g28"
   transform="translate(-56.2664,-158.80664)">
	<g
   id="g20">
		<path
   d="m 1041.5,473.5 -15.8,-3.2 c -0.8,-0.2 -1.6,0.4 -1.7,1.1 l -1.2,5.9 -28.8,-26.6 c -4.2,-3.9 -10.7,-3.6 -14.5,0.6 -3.9,4.2 -3.6,10.7 0.6,14.5 l 29.6,27.3 -37.7,13 c -5.4,1.9 -8.2,7.7 -6.4,13.1 1.5,4.3 5.5,6.9 9.7,6.9 1.1,0 2.2,-0.2 3.4,-0.6 l 37,-12.8 -1.3,6.2 c -0.2,0.8 0.4,1.6 1.1,1.7 l 15.8,3.2 z"
   id="path4" />
		<path
   d="m 868.8,969.6 1.2,-0.8 c 2.3,-1.6 2.1,-4.8 0.5,-6.9 l -12.3,-17.1 v 0 l -55.1,37.5 v 0 l 13.4,18.6 c 1.4,1.5 3.8,1.7 5.6,0.5 l 1.5,-1 c -4.5,12.3 -3.8,26.3 2.7,38.5 1.2,2.3 4.2,3.1 6.4,1.6 l 70.1,-47.7 c 2.2,-1.5 2.6,-4.5 0.9,-6.5 -9,-10.6 -21.8,-16.4 -34.9,-16.7 z"
   id="path6" />
		<path
   d="m 111.3,482.5 35.3,18.6 c 5,2.6 11.2,0.7 13.9,-4.3 2.7,-5 0.7,-11.2 -4.3,-13.9 l -34.6,-18.2 5.4,-3.3 c 0.7,-0.4 0.9,-1.3 0.5,-2 l -8.5,-13.9 -43.8,27 8.5,13.9 c 0.4,0.7 1.3,0.9 2,0.5 l 5.1,-3.1 0.3,39.3 c 0,5.7 4.6,10.2 10.3,10.2 0,0 0.1,0 0.1,0 5.7,0 10.3,-4.7 10.2,-10.4 z"
   id="path8" />
		<path
   d="m 192.4,578.9 -0.9,0.6 c 4.4,-12.3 3.6,-26.4 -3.1,-38.5 -1.3,-2.3 -4.2,-3 -6.4,-1.5 l -69.6,48.3 c -2.2,1.5 -2.5,4.5 -0.8,6.5 9,10.5 21.8,16.1 35,16.3 l -1.8,1.2 c -1.7,1.2 -2.4,3.4 -1.5,5.4 l 11,20.3 v 0 l 54.7,-38 v 0 l -10,-18.8 c -1,-2.5 -4.2,-3.4 -6.6,-1.8 z"
   id="path10" />
		<path
   d="M 840.8,538.1 706.1,517.6 c -2.5,5.7 -4.3,11.8 -5.2,18.1 -1.2,8 -1,16 0.6,23.8 l 131.3,19.9 c 3.9,-7.2 6.5,-15 7.7,-23.2 0.9,-6 1,-12.1 0.3,-18.1 z"
   id="path12" />
		<path
   d="m 666,530.7 c -1.1,7.8 -3.3,15.4 -6.3,22.5 l 20.5,3.1 c -0.9,-7.8 -0.8,-15.6 0.4,-23.5 0.9,-6.3 2.5,-12.4 4.7,-18.3 l -18.5,-2.8 c 0.4,6.3 0.1,12.7 -0.8,19 z"
   id="path14" />
		<path
   d="m 511.6,488.2 c -2.7,6 -4.6,12.4 -5.6,19 -1.1,7.6 -1,15.3 0.3,22.7 L 638.4,550 c 3.6,-7 6,-14.4 7.2,-22.3 0.9,-6.4 1,-12.8 0.2,-19.2 z"
   id="path16" />
		<path
   d="m 866.1,675.2 c 4.4,-3.4 7.6,-8.5 8.4,-14.5 l 6.2,-46.4 18.3,-135.6 c 1.6,-12.1 -6.8,-23.2 -18.9,-24.8 L 486.8,401 c -12.1,-1.6 -23.2,6.8 -24.8,18.9 L 437.5,602 c -1.6,12.1 6.8,23.2 18.9,24.8 l 393.3,52.9 c 6.1,0.7 11.9,-1 16.4,-4.5 z M 470.2,545.3 c -5.6,-0.9 -9.5,-6.1 -8.6,-11.7 0.9,-5.6 6.1,-9.5 11.7,-8.6 l 11.9,1.8 c -0.8,-7.5 -0.6,-15 0.5,-22.5 1,-6.6 2.7,-13.1 5,-19.2 l -8.1,-1.2 c -5.6,-0.9 -9.5,-6.1 -8.6,-11.7 0.9,-5.6 6.1,-9.5 11.7,-8.6 L 870.5,522 c 5.6,0.9 9.5,6.1 8.6,11.7 -0.8,5.1 -5.2,8.7 -10.2,8.7 -0.5,0 -1,0 -1.6,-0.1 l -5.6,-0.9 c 0.3,6 0,12 -0.9,17.9 -1.2,8.2 -3.5,16 -6.7,23.5 l 4,0.6 c 5.6,0.9 9.5,6.1 8.6,11.7 -0.8,5.1 -5.2,8.7 -10.2,8.7 -0.5,0 -1,0 -1.6,-0.1 0,0 -19.8,-2.7 -21.1,-3.2 z"
   id="path18" />
	</g>
	<g
   id="g26">
		<path
   class="st0"
   d="m 1041.5,473.5 -10.3,50.4 c 35.3,7.2 61,38.7 61,74.9 0,42.1 -34.3,76.4 -76.4,76.4 -40.8,0 -99.2,-18 -119.8,-42.7 l 49.8,-369.8 c 3.2,-24 -22.2,-41.3 -43.4,-29.6 L 633.2,382.2 412.9,167.2 c -17.3,-16.9 -46.4,-6.8 -49.7,17.1 L 335.7,388.4 C 314.2,360.4 293.1,334.9 277.2,318 229,266.6 148,264 96.5,312.3 52.5,353.7 43.4,421 75.1,472.5 l 43.8,-27 c -18.9,-30.7 -13.5,-71 12.8,-95.7 30.7,-28.8 79.2,-27.3 108,3.4 22.2,23.7 56.5,66.7 86.1,108.4 l -20.5,152.2 c -3.8,28.2 16,54.1 44.1,57.8 l 78.6,10.6 -82.4,40.5 c -22.6,11.2 -50.3,4 -64.5,-16.8 L 209,599.6 l -54.7,38 72.4,105.6 c 15.9,23.3 39.7,40.1 67,47.2 9.7,2.5 19.7,3.8 29.6,3.8 17.9,0 35.7,-4.1 51.9,-12.2 l 170.8,-84 51,6.9 206.3,277.4 55.1,-37.5 -169.9,-227.6 141.7,19.1 c 28.2,3.8 54.1,-16 57.8,-44.1 l 0.1,-0.4 c 5.9,3.7 12.3,7.1 19.1,10.3 32.4,15.2 74,24.6 108.6,24.6 70.5,0 127.9,-57.4 127.9,-127.9 0,-60.5 -43,-113.2 -102.2,-125.3 z M 849.7,679.6 456.4,626.7 C 444.3,625.1 435.9,614 437.5,601.9 L 462,419.8 c 1.6,-12.1 12.7,-20.5 24.8,-18.9 l 393.3,52.9 c 12.1,1.6 20.5,12.7 18.9,24.8 l -18.3,135.6 -6.2,46.4 c -0.8,6 -3.9,11.1 -8.4,14.5 -4.5,3.6 -10.3,5.3 -16.4,4.5 z"
   id="path22"
   style="fill:#bfbfbf;fill-opacity:1" />
		<path
   class="st0"
   d="m 868.9,542.3 c 5,0 9.4,-3.7 10.2,-8.7 0.9,-5.6 -3,-10.9 -8.6,-11.7 L 485.7,463.5 c -5.6,-0.8 -10.9,3 -11.7,8.6 -0.9,5.6 3,10.9 8.6,11.7 l 8.1,1.2 c -2.4,6.2 -4,12.6 -5,19.2 -1.1,7.5 -1.3,15 -0.5,22.5 l -11.9,-1.8 c -5.6,-0.8 -10.9,3 -11.7,8.6 -0.9,5.6 3,10.9 8.6,11.7 L 855,603.7 c 0.5,0.1 1,0.1 1.6,0.1 5,0 9.4,-3.7 10.2,-8.7 0.9,-5.6 -3,-10.9 -8.6,-11.7 l -4,-0.6 c 3.3,-7.4 5.5,-15.3 6.7,-23.5 0.9,-6 1.2,-12 0.9,-17.9 l 5.6,0.9 c 0.5,0 1,0 1.5,0 z M 506,507.2 c 1,-6.6 2.9,-13 5.6,-19 l 134.2,20.4 c 0.8,6.3 0.8,12.8 -0.2,19.2 -1.2,7.9 -3.6,15.4 -7.2,22.3 L 506.3,530 c -1.3,-7.5 -1.4,-15.2 -0.3,-22.8 z m 153.6,46 c 3.1,-7.2 5.2,-14.7 6.3,-22.5 0.9,-6.3 1.2,-12.7 0.8,-19 l 18.5,2.8 c -2.2,5.9 -3.7,12 -4.7,18.3 -1.2,7.9 -1.3,15.7 -0.4,23.5 z m 180.9,3.1 c -1.2,8.2 -3.8,16 -7.7,23.2 L 701.5,559.6 c -1.5,-7.8 -1.7,-15.8 -0.6,-23.8 0.9,-6.3 2.7,-12.4 5.2,-18.1 l 134.7,20.5 c 0.7,5.9 0.6,12 -0.3,18.1 z"
   id="path24" />
	</g>
</g>
</svg>
