<?xml version="1.0" encoding="UTF-8" standalone="no"?>
<!-- Generator: Adobe Illustrator 24.1.2, SVG Export Plug-In . SVG Version: 6.00 Build 0)  -->

<svg
   version="1.1"
   id="Layer_1"
   x="0px"
   y="0px"
   viewBox="0 0 854.26965 969.15424"
   xml:space="preserve"
   sodipodi:docname="09.svg"
   inkscape:version="1.1.1 (3bf5ae0d25, 2021-09-20)"
   width="854.26965"
   height="969.15424"
   xmlns:inkscape="http://www.inkscape.org/namespaces/inkscape"
   xmlns:sodipodi="http://sodipodi.sourceforge.net/DTD/sodipodi-0.dtd"
   xmlns="http://www.w3.org/2000/svg"
   xmlns:svg="http://www.w3.org/2000/svg"><defs
   id="defs29" /><sodipodi:namedview
   id="namedview27"
   pagecolor="#505050"
   bordercolor="#ffffff"
   borderopacity="1"
   inkscape:pageshadow="0"
   inkscape:pageopacity="0"
   inkscape:pagecheckerboard="1"
   showgrid="false"
   inkscape:zoom="0.54"
   inkscape:cx="430.55556"
   inkscape:cy="484.25926"
   inkscape:window-width="1920"
   inkscape:window-height="999"
   inkscape:window-x="0"
   inkscape:window-y="0"
   inkscape:window-maximized="1"
   inkscape:current-layer="Layer_1"
   fit-margin-top="0"
   fit-margin-left="0"
   fit-margin-right="0"
   fit-margin-bottom="0" />
<style
   type="text/css"
   id="style2">
	.st0{fill:#FFFFFF;}
	.st1{fill:#7F52FF;}
</style>
<g
   id="g24"
   transform="translate(-172.84156,-115.44575)">
	<path
   class="st0"
   d="M 993.2,361.5 689.1,409.6 555.7,132.1 c -10.5,-21.8 -41.3,-22.3 -52.5,-0.9 L 351.6,420.3 C 292.3,442.7 221.1,487.5 189,552 c -18.6,37.3 -21.2,76.6 -7.5,113.7 17,46.3 81.4,95.1 112.5,109.3 l 21.4,-46.8 c -10.7,-4.9 -30.1,-17.5 -48.8,-34.3 -18.8,-16.9 -32.3,-33.7 -36.9,-46.1 -8.8,-23.8 -7,-48.3 5.3,-72.9 14,-28.1 41.6,-55.5 76.1,-77.5 l -9.2,17.6 c -13.2,25.2 -3.5,56.2 21.7,69.4 l 116.5,61.1 -34,58.9 -87.4,0.2 5.2,27.4 6.2,2.8 c 0.7,0.3 1.1,1.2 0.7,1.9 l -2.6,5.7 38.9,-4.1 c 5.7,-0.6 10.7,3.5 11.3,9.1 0.6,5.7 -3.5,10.7 -9.1,11.3 l -39.4,4.2 h -0.1 -0.1 c 0.1,0.1 0.1,0.1 0.2,0.2 2.6,3.1 5.7,6.5 9.3,10 6.6,6.2 16.4,7.3 16.5,7.3 5.6,0.6 9.8,5.5 9.3,11.2 -0.5,5.3 -4.9,9.4 -10.2,9.4 -0.3,0 -0.6,0 -0.9,0 -1.2,-0.1 -9.2,-0.9 -18,-5.3 0,0 -0.1,0 -0.1,0 l 6,32 v 0 h 78.6 l 0.5,-2.5 22.4,-120 v 0 l -13.9,-0.3 28.8,-49.9 46.7,24.5 -58.7,155.1 c -10.1,26.4 -10.3,55.5 -0.6,82 9.7,26.5 28.7,48.6 53.4,62.2 l 22.4,12.3 -5.9,28.6 h 57.8 l 8.8,4.8 28.9,16.2 32.6,-58.1 -47.5,-25.9 42.8,-207 111.6,58.5 c -37.7,28.4 -33.8,96.4 -33.8,96.4 h 51.4 c 0,-46.3 13.5,-65.2 89.8,-82.2 41.2,-9.2 80.1,-17.9 89.3,-52 7.7,-28.5 -9.6,-59.9 -59.5,-107.2 L 1023.6,404 c 11.4,-21.2 -6.6,-46.3 -30.4,-42.5 z m -457.6,562 -4.5,-2.5 C 509,908.8 499.2,881.9 508.2,858.3 L 564,710.6 578.1,718 Z M 764.8,749.4 487.7,604.2 l 23.1,-40.1 50.3,25.4 9.2,-18.2 c 0.1,4.4 0.8,9.6 2.6,14.9 -12.8,1.5 -22.1,8.4 -26.5,20 -2,5.3 0.6,11.3 6,13.3 1.2,0.5 2.4,0.7 3.7,0.7 4.1,0 8.1,-2.5 9.6,-6.6 4.7,-12.4 25.2,-5 26,-4.7 4.9,1.9 10.4,-0.2 12.8,-4.9 2.4,-4.6 1,-10.3 -3.3,-13.3 -13.7,-9.4 -9.9,-26.3 -9.6,-27.2 1.4,-5.5 -1.9,-11.1 -7.4,-12.5 -5.5,-1.4 -11.1,1.9 -12.6,7.4 -0.1,0.5 -1.4,5.6 -1.3,12.7 l -58.9,-29.7 c -4.9,-2.5 -10.8,-0.7 -13.5,4 l -28.4,49.2 -103,-54 c -10.8,-5.7 -14.9,-19 -9.3,-29.8 l 29.2,-55.7 56.1,-107 c 5.7,-10.8 19,-14.9 29.8,-9.3 l 398.3,208.8 c 10.8,5.7 14.9,19 9.3,29.8 l -85.3,162.7 c -5.7,10.8 -19,15 -29.8,9.3 z m 132.7,7.4 c -6.8,5.9 -34,11.9 -50.6,15.6 -6,1.3 -12.1,2.7 -18.3,4.2 L 863,711 c 28.9,29.1 33.7,42.1 34.5,45.8 z"
   id="path4"
   style="fill:#bfbfbf;fill-opacity:1" />
	<path
   class="st0"
   d="m 645.8,454.3 c -4.9,-2.9 -11.2,-1.2 -14.1,3.6 l -10.8,18.4 -0.2,0.4 c -8.7,16.7 -23.5,29 -41.5,34.6 -18,5.6 -37.1,3.9 -53.8,-4.9 -16.7,-8.7 -29,-23.5 -34.6,-41.5 -5.6,-17.9 -3.9,-37 4.8,-53.6 l 10.9,-19.5 c 2.8,-5 1,-11.2 -3.9,-14 -5,-2.8 -11.2,-1 -14,3.9 l -11,19.6 -0.1,0.3 c -11.3,21.6 -13.5,46.2 -6.3,69.5 7.3,23.2 23.1,42.3 44.7,53.6 13.2,6.9 27.7,10.5 42.2,10.5 9.1,0 18.3,-1.4 27.3,-4.2 23.2,-7.2 42.1,-23 53.4,-44.4 l 10.7,-18.2 c 2.8,-4.9 1.2,-11.3 -3.7,-14.1 z"
   id="path6" />
	<path
   class="st0"
   d="m 814.8,549.7 c -5.2,-2.3 -11.3,0 -13.6,5.1 l -6.2,13.7 c -18.1,34.3 -60.7,47.5 -95.1,29.5 -16.7,-8.7 -29,-23.5 -34.6,-41.5 -5.6,-17.9 -3.9,-36.9 4.8,-53.6 l 9.7,-16.7 c 2.9,-4.9 1.2,-11.2 -3.7,-14.1 -4.9,-2.9 -11.2,-1.2 -14.1,3.7 l -9.9,16.9 -0.2,0.4 c -11.3,21.6 -13.5,46.2 -6.3,69.5 7.3,23.2 23.1,42.3 44.7,53.6 13.5,7.1 27.9,10.4 42.2,10.4 32.8,0 64.6,-17.8 80.9,-48.8 l 6.6,-14.5 c 2.2,-5.2 -0.1,-11.3 -5.2,-13.6 z"
   id="path8" />
	<g
   id="g20">
		<path
   d="m 367.1,738.5 -38.9,4.1 2.6,-5.7 c 0.3,-0.7 0,-1.6 -0.7,-1.9 l -14.7,-6.7 -21.4,46.7 14.7,6.7 c 0.7,0.3 1.6,0 1.9,-0.7 l 2.5,-5.6 c 3.2,4 7.2,8.4 11.9,12.9 3.4,3.3 7.2,5.7 10.8,7.5 0,0 0.1,0 0.1,0 8.7,4.4 16.8,5.2 18,5.3 0.3,0 0.6,0 0.9,0 5.3,0 9.7,-4 10.2,-9.4 0.5,-5.6 -3.6,-10.6 -9.3,-11.2 -0.1,0 -9.9,-1 -16.5,-7.3 -3.7,-3.5 -6.8,-6.9 -9.3,-10 -0.1,-0.1 -0.1,-0.1 -0.2,-0.2 h 0.1 0.1 l 39.4,-4.2 c 5.6,-0.6 9.7,-5.7 9.1,-11.3 -0.6,-5.5 -5.6,-9.6 -11.3,-9 z"
   id="path10" />
		<path
   d="M 870.6,547.7 472.3,338.9 c -10.8,-5.7 -24.1,-1.5 -29.8,9.3 l -85.3,162.7 c -5.7,10.8 -1.5,24.1 9.3,29.8 l 103,54 28.4,-49.2 c 2.7,-4.7 8.7,-6.5 13.5,-4 l 58.9,29.7 c -0.1,-7.1 1.1,-12.2 1.3,-12.7 1.4,-5.5 7.1,-8.8 12.6,-7.4 5.5,1.4 8.8,7 7.4,12.5 -0.2,0.9 -4.1,17.8 9.6,27.2 4.3,2.9 5.7,8.6 3.3,13.3 -2.4,4.6 -7.9,6.7 -12.8,4.9 -0.8,-0.3 -21.3,-7.7 -26,4.7 -1.6,4.1 -5.5,6.6 -9.6,6.6 -1.2,0 -2.5,-0.2 -3.7,-0.7 -5.3,-2 -8,-8 -6,-13.3 4.4,-11.6 13.7,-18.5 26.5,-20 -1.8,-5.3 -2.5,-10.5 -2.6,-14.9 l -9.2,18.2 -50.3,-25.4 -23.1,40.1 277.1,145.3 c 10.8,5.7 24.1,1.5 29.8,-9.3 l 85.3,-162.7 c 5.6,-10.9 1.5,-24.3 -9.3,-29.9 z M 585.3,531 c -9,2.8 -18.1,4.2 -27.3,4.2 -14.5,0 -29,-3.5 -42.2,-10.5 -21.6,-11.3 -37.4,-30.3 -44.7,-53.6 -7.3,-23.2 -5,-47.9 6.3,-69.5 l 0.1,-0.3 11,-19.6 c 2.8,-5 9,-6.7 14,-3.9 5,2.8 6.7,9 3.9,14 l -10.9,19.5 c -8.7,16.7 -10.4,35.7 -4.8,53.6 5.6,18 17.9,32.7 34.6,41.5 16.7,8.7 35.8,10.5 53.8,4.9 18,-5.6 32.7,-17.9 41.5,-34.6 l 0.2,-0.4 10.8,-18.4 c 2.9,-4.9 9.2,-6.5 14.1,-3.6 4.9,2.9 6.5,9.2 3.6,14.1 l -10.7,18.2 C 627.4,508 608.5,523.8 585.3,531 Z m 234.6,32.3 -6.6,14.5 c -16.3,31 -48,48.8 -80.9,48.8 -14.2,0 -28.7,-3.3 -42.2,-10.4 -21.6,-11.3 -37.4,-30.3 -44.7,-53.6 -7.3,-23.2 -5,-47.9 6.3,-69.5 l 0.2,-0.4 9.9,-16.9 c 2.9,-4.9 9.2,-6.6 14.1,-3.7 4.9,2.9 6.6,9.2 3.7,14.1 l -9.7,16.7 c -8.7,16.6 -10.4,35.7 -4.8,53.6 5.6,18 17.9,32.7 34.6,41.5 34.4,18 77,4.8 95.1,-29.5 l 6.2,-13.7 c 2.3,-5.2 8.4,-7.5 13.6,-5.1 5.2,2.3 7.5,8.4 5.2,13.6 z"
   id="path12" />
		<path
   d="m 571.4,1046.3 h 2.8 c 2.1,0 3.9,-1.5 4.3,-3.5 l 3.7,-18.1 -8.8,-4.8 h -57.8 v 0 L 511,1041 c -0.6,2.8 1.5,5.4 4.3,5.4 h 1.3 c -10.7,7.6 -18,19.6 -19.4,33.3 -0.3,2.6 1.8,4.9 4.4,4.9 h 84.8 c 2.6,0 4.7,-2.3 4.4,-4.9 -1.4,-13.8 -8.7,-25.8 -19.4,-33.4 z"
   id="path14" />
		<path
   d="m 760.8,922.4 h 6 c 0.8,0 1.5,-0.7 1.5,-1.5 v -16.2 h -51.4 v 16.2 c 0,0.8 0.7,1.5 1.5,1.5 h 6.3 l -19.9,33.7 c -2.9,4.9 -1.3,11.2 3.6,14.1 1.6,1 3.4,1.4 5.2,1.4 3.5,0 6.9,-1.8 8.9,-5.1 l 20.3,-34.3 20.8,34.4 c 2.9,4.9 9.3,6.4 14.1,3.5 4.9,-2.9 6.4,-9.3 3.5,-14.1 z"
   id="path16" />
		<path
   d="m 704,997.6 c -12.7,-5.5 -26.7,-4.9 -38.6,0.6 l 0.5,-1 c 1.4,-2.5 0.1,-5.6 -2.6,-6.4 l -19.6,-8.1 -32.6,58.1 21.2,9 c 2,0.6 4.2,-0.2 5.2,-2 l 1.1,-1.9 c 1.5,13 8.3,25.3 19.6,33.2 2.1,1.5 5.1,0.9 6.4,-1.4 l 41.5,-73.9 c 1.3,-2.3 0.3,-5.2 -2.1,-6.2 z"
   id="path18" />
	</g>
	<polygon
   points="449.7,670.1 312.6,670.1 318.7,704.7 443.5,705.3 "
   id="polygon22" />
</g>
</svg>
