<?xml version="1.0" encoding="UTF-8" standalone="no"?>
<!-- Generator: Adobe Illustrator 24.1.2, SVG Export Plug-In . SVG Version: 6.00 Build 0)  -->

<svg
   version="1.1"
   id="Layer_1"
   x="0px"
   y="0px"
   viewBox="0 0 1087.5624 841.25745"
   xml:space="preserve"
   sodipodi:docname="11.svg"
   inkscape:version="1.1.1 (3bf5ae0d25, 2021-09-20)"
   width="1087.5624"
   height="841.25745"
   xmlns:inkscape="http://www.inkscape.org/namespaces/inkscape"
   xmlns:sodipodi="http://sodipodi.sourceforge.net/DTD/sodipodi-0.dtd"
   xmlns="http://www.w3.org/2000/svg"
   xmlns:svg="http://www.w3.org/2000/svg"><defs
   id="defs33" /><sodipodi:namedview
   id="namedview31"
   pagecolor="#505050"
   bordercolor="#ffffff"
   borderopacity="1"
   inkscape:pageshadow="0"
   inkscape:pageopacity="0"
   inkscape:pagecheckerboard="1"
   showgrid="false"
   inkscape:zoom="0.54"
   inkscape:cx="547.22222"
   inkscape:cy="419.44444"
   inkscape:window-width="1920"
   inkscape:window-height="999"
   inkscape:window-x="0"
   inkscape:window-y="0"
   inkscape:window-maximized="1"
   inkscape:current-layer="Layer_1"
   fit-margin-top="0"
   fit-margin-left="0"
   fit-margin-right="0"
   fit-margin-bottom="0" />
<style
   type="text/css"
   id="style2">
	.st0{fill:#FFFFFF;}
	.st1{fill:#7F52FF;}
</style>
<g
   id="g28"
   transform="translate(-56.237575,-179.40664)">
	<g
   id="g18">
		<path
   d="m 1041.6,494.2 -15.9,-3.2 c -0.8,-0.2 -1.6,0.4 -1.7,1.1 l -1.2,5.9 -28.8,-26.6 c -4.2,-3.9 -10.7,-3.6 -14.5,0.6 -3.9,4.2 -3.6,10.7 0.6,14.5 l 29.6,27.3 -37.7,13 c -5.4,1.9 -8.2,7.7 -6.4,13.1 1.5,4.3 5.5,6.9 9.7,6.9 1.1,0 2.2,-0.2 3.4,-0.6 l 37,-12.8 -1.3,6.2 c -0.2,0.8 0.4,1.6 1.1,1.7 l 15.8,3.2 z"
   id="path4" />
		<path
   d="m 872.5,949 1.2,-0.8 c 2.3,-1.6 2.6,-4.9 0.5,-6.9 l -12.2,-17.1 -55.1,37.5 13.4,18.6 c 1.5,1.5 3.8,1.7 5.6,0.5 l 1.5,-1 c -4.5,12.3 -3.8,26.3 2.7,38.5 1.2,2.3 4.2,3.1 6.4,1.6 l 70.1,-47.7 c 2.2,-1.5 2.6,-4.5 0.9,-6.5 -9.1,-10.6 -21.9,-16.4 -35,-16.7 z"
   id="path6" />
		<path
   d="m 111.3,503.2 35.3,18.6 c 5,2.6 11.2,0.7 13.9,-4.3 2.6,-5 0.7,-11.2 -4.3,-13.9 l -34.6,-18.2 5.4,-3.3 c 0.7,-0.4 0.9,-1.3 0.5,-2 l -8.5,-13.8 -43.8,27 8.5,13.8 c 0.4,0.7 1.3,0.9 2,0.5 l 5.1,-3.1 0.3,39.3 c 0,5.7 4.6,10.2 10.3,10.2 0,0 0.1,0 0.1,0 5.7,0 10.3,-4.7 10.2,-10.4 z"
   id="path8" />
		<path
   d="m 192.4,599.5 -0.9,0.6 c 4.4,-12.3 3.6,-26.4 -3.1,-38.5 -1.3,-2.3 -4.2,-3 -6.4,-1.5 l -69.6,48.3 c -2.2,1.5 -2.5,4.5 -0.8,6.5 9,10.5 21.8,16.1 35,16.3 l -1.8,1.2 c -1.7,1.2 -2.4,3.4 -1.5,5.4 l 11.2,20.1 54.5,-37.8 -10,-18.8 c -1,-2.4 -4.2,-3.4 -6.6,-1.8 z"
   id="path10" />
		<path
   d="m 866.1,695.8 c 4.4,-3.4 7.6,-8.5 8.4,-14.5 l 24.5,-182 c 1.6,-12.1 -6.8,-23.2 -18.9,-24.8 L 486.8,421.6 c -12.1,-1.6 -23.2,6.8 -24.8,18.9 l -24.5,182.1 c -1.6,12.1 6.8,23.2 18.9,24.8 l 393.3,52.9 c 6.1,0.8 11.9,-1 16.4,-4.5 z M 679.9,585.2 c -1.3,10.7 -7.6,19.5 -17.8,24.8 -7.5,3.9 -17,5.7 -27.3,5.7 -16.4,0 -35.1,-4.7 -51.9,-13.7 -20.7,-11.2 -37.3,-26 -48,-42.9 -9.6,-15.1 -14.3,-31.6 -13.3,-46.6 1.2,-17.8 10.2,-31.6 24.3,-36.9 24.5,-9.3 35.8,11.7 44.1,27 6.5,12 13.2,24.4 24.8,29.7 5.8,2.7 13,4.8 19.9,6.8 20.8,6.2 49.1,14.5 45.2,46.1 z m 84,50.9 c -23.6,0 -45.8,-7.2 -57.5,-19.5 -7.7,-8.1 -10.8,-18.4 -8.5,-28.8 6.6,-30.7 35.5,-29.2 56.7,-28.2 7.4,0.4 14.3,0.7 20.5,0.1 12.4,-1.2 22.5,-10.5 32.3,-19.4 12.6,-11.6 30,-27.4 49.7,-10.8 11.3,9.5 15.3,25.2 10.7,42.1 -6.5,23.8 -32.9,54.6 -85.5,63.2 -6.1,0.9 -12.3,1.3 -18.4,1.3 z"
   id="path12" />
		<path
   d="m 843.9,545.2 c -4.8,-4 -7.5,-3.6 -22.6,10.3 -11.1,10.2 -25,22.8 -44.1,24.7 -7.7,0.8 -15.8,0.4 -23.6,0 -4.7,-0.2 -8.7,-0.4 -12.2,-0.4 -15.7,0 -21.2,2.7 -23.3,12.3 -0.6,2.6 -0.7,6.1 3.3,10.3 9.8,10.3 35.2,15.6 57.7,11.9 43,-7 64,-30.4 68.9,-48.3 2.5,-9 1,-16.6 -4.1,-20.8 z"
   id="path14" />
		<path
   d="m 629,559 c -7.7,-2.2 -15.6,-4.6 -22.8,-7.9 -17.8,-8.2 -26.9,-25.1 -34.3,-38.6 -7.8,-14.4 -11.1,-18.5 -15,-18.5 -1.1,0 -2.3,0.3 -3.7,0.9 -6.4,2.4 -10.4,9.4 -11.1,19 -1.3,19 11.2,48.8 50.6,70 20.6,11.1 47,14.5 60,7.8 5.4,-2.8 6.5,-6.5 6.8,-9 C 661,570.4 653.6,566.2 629,559 Z"
   id="path16" />
	</g>
	<g
   id="g26">
		<path
   class="st0"
   d="m 1041.6,494.2 -10.3,50.4 c 35.3,7.2 61,38.7 61,74.9 0,42.1 -34.3,76.4 -76.4,76.4 -40.8,0 -99.2,-18 -119.8,-42.7 l 49.8,-369.8 c 3.2,-24 -22.2,-41.3 -43.4,-29.6 L 633.2,402.9 412.9,187.8 C 395.6,170.9 366.5,181 363.2,204.9 L 335.8,409 C 314.3,381 293.2,355.5 277.3,338.6 229,287.2 147.9,284.6 96.5,332.9 52.4,374.3 43.4,441.8 75.1,493.2 l 43.8,-27 c -18.9,-30.7 -13.5,-71.1 12.8,-95.8 30.7,-28.8 79.2,-27.3 108,3.4 22.2,23.7 56.5,66.7 86.1,108.4 l -20.5,152.2 c -3.8,28.2 16,54.1 44.1,57.8 l 78.6,10.6 -82.4,40.5 c -22.6,11.2 -50.3,4 -64.5,-16.8 L 209,620.2 154.5,658 226.6,763.7 c 15.9,23.3 39.7,40.1 67,47.2 9.7,2.5 19.7,3.8 29.6,3.8 17.9,0 35.7,-4.1 51.9,-12.2 l 170.8,-84 89.3,12 171.7,231 L 862,924 726.8,743 830.2,756.9 c 28.2,3.8 54.1,-16 57.8,-44.1 l 0.1,-0.4 c 5.9,3.7 12.3,7.1 19.2,10.3 32.4,15.2 74,24.6 108.6,24.6 70.5,0 127.9,-57.4 127.9,-127.9 -0.1,-60.4 -43,-113.1 -102.2,-125.2 z M 849.7,700.3 456.4,647.4 c -12.1,-1.6 -20.5,-12.7 -18.9,-24.8 L 462,440.5 c 1.6,-12.1 12.7,-20.5 24.8,-18.9 l 393.3,52.9 c 12.1,1.6 20.5,12.7 18.9,24.8 l -24.5,182.1 c -0.8,6 -3.9,11.1 -8.4,14.5 -4.5,3.4 -10.3,5.2 -16.4,4.4 z"
   id="path20"
   style="fill:#bfbfbf;fill-opacity:1" />
		<path
   class="st0"
   d="m 634.8,539.2 c -6.9,-2 -14.1,-4.1 -19.9,-6.8 -11.6,-5.4 -18.3,-17.7 -24.8,-29.7 -8.3,-15.3 -19.7,-36.3 -44.1,-27 -14,5.3 -23.1,19.1 -24.3,36.9 -1,15 3.7,31.5 13.3,46.6 10.7,16.9 27.3,31.7 48,42.9 16.7,9 35.4,13.7 51.9,13.7 10.4,0 19.8,-1.9 27.3,-5.7 10.1,-5.2 16.5,-14 17.8,-24.8 3.8,-31.7 -24.5,-40 -45.2,-46.1 z m 24.7,43.5 c -0.3,2.5 -1.4,6.2 -6.8,9 -13,6.7 -39.4,3.3 -60,-7.8 -39.3,-21.2 -51.8,-51 -50.6,-70 0.6,-9.6 4.7,-16.6 11.1,-19 1.4,-0.5 2.6,-0.9 3.7,-0.9 3.9,0 7.2,4.1 15,18.5 7.3,13.5 16.5,30.4 34.3,38.6 7.2,3.3 15.1,5.6 22.8,7.9 24.6,7.2 32,11.4 30.5,23.7 z"
   id="path22" />
		<path
   class="st0"
   d="m 857.2,529.4 c -19.8,-16.5 -37.1,-0.7 -49.7,10.8 -9.8,9 -19.9,18.2 -32.3,19.4 -6.2,0.6 -13.2,0.3 -20.5,-0.1 -21.1,-1 -50.1,-2.5 -56.7,28.2 -2.2,10.4 0.8,20.7 8.5,28.8 11.7,12.3 33.8,19.5 57.5,19.5 6.1,0 12.3,-0.5 18.4,-1.5 52.6,-8.5 78.9,-39.4 85.5,-63.2 4.6,-16.7 0.6,-32.4 -10.7,-41.9 z M 848,566 c -4.9,17.9 -25.9,41.3 -68.9,48.3 -22.5,3.7 -47.9,-1.6 -57.7,-11.9 -4,-4.2 -3.9,-7.7 -3.3,-10.3 2.1,-9.6 7.6,-12.3 23.3,-12.3 3.5,0 7.6,0.1 12.2,0.4 7.8,0.4 15.9,0.8 23.6,0 19.2,-1.9 33,-14.6 44.1,-24.7 15.1,-13.8 17.8,-14.3 22.6,-10.3 5.1,4.2 6.6,11.8 4.1,20.8 z"
   id="path24" />
	</g>
</g>
</svg>
