<?xml version="1.0" encoding="UTF-8" standalone="no"?>
<!-- Generator: Adobe Illustrator 24.1.2, SVG Export Plug-In . SVG Version: 6.00 Build 0)  -->

<svg
   version="1.1"
   id="Layer_1"
   x="0px"
   y="0px"
   viewBox="0 0 1170.6531 765.27222"
   xml:space="preserve"
   sodipodi:docname="12.svg"
   inkscape:version="1.1.1 (3bf5ae0d25, 2021-09-20)"
   width="1170.6531"
   height="765.27222"
   xmlns:inkscape="http://www.inkscape.org/namespaces/inkscape"
   xmlns:sodipodi="http://sodipodi.sourceforge.net/DTD/sodipodi-0.dtd"
   xmlns="http://www.w3.org/2000/svg"
   xmlns:svg="http://www.w3.org/2000/svg"><defs
   id="defs41" /><sodipodi:namedview
   id="namedview39"
   pagecolor="#505050"
   bordercolor="#ffffff"
   borderopacity="1"
   inkscape:pageshadow="0"
   inkscape:pageopacity="0"
   inkscape:pagecheckerboard="1"
   showgrid="false"
   inkscape:zoom="0.54"
   inkscape:cx="587.96296"
   inkscape:cy="382.40741"
   inkscape:window-width="1920"
   inkscape:window-height="999"
   inkscape:window-x="0"
   inkscape:window-y="0"
   inkscape:window-maximized="1"
   inkscape:current-layer="Layer_1"
   fit-margin-top="0"
   fit-margin-left="0"
   fit-margin-right="0"
   fit-margin-bottom="0" />
<style
   type="text/css"
   id="style2">
	.st0{fill:#FFFFFF;}
	.st1{fill:#7F52FF;}
</style>
<g
   id="g36"
   transform="translate(-14.684814,-217.3278)">
	<g
   id="g22">
		<g
   id="g20">
			<path
   d="m 80.2,650.1 -15.4,4.7 c -0.8,0.2 -1.2,1.1 -1,1.8 l 1.8,5.7 -38.1,-9.6 c -5.5,-1.4 -11.1,2 -12.5,7.5 -1.4,5.5 2,11.1 7.5,12.5 l 39,9.8 -26.9,29.5 c -3.8,4.2 -3.5,10.7 0.7,14.5 2,1.8 4.5,2.7 6.9,2.7 2.8,0 5.6,-1.1 7.6,-3.4 l 26.3,-28.8 1.8,6 c 0.2,0.8 1.1,1.2 1.8,1 l 16,-4.9 z"
   id="path4" />
			<path
   d="m 1182.9,275 c -3.7,-4.3 -10.2,-4.9 -14.5,-1.2 l -30.7,26 -8.3,-39 c -1.2,-5.6 -6.7,-9.1 -12.2,-7.9 -5.6,1.2 -9.1,6.7 -7.9,12.2 l 8.2,38.2 -6,-2 c -0.8,-0.3 -1.6,0.2 -1.9,0.9 l -5.1,15.7 48.8,16.1 5.1,-15.5 c 0.3,-0.8 -0.2,-1.6 -0.9,-1.9 l -5.7,-1.9 29.9,-25.4 c 4.3,-3.5 4.9,-10 1.2,-14.3 z"
   id="path6" />
			<path
   d="m 681.8,601.6 c -8,-32 -36.8,-53.5 -68.4,-53.5 -5.6,0 -11.4,0.7 -17.1,2.1 -37.7,9.4 -60.8,47.8 -51.4,85.5 9.4,37.7 47.8,60.8 85.5,51.4 37.8,-9.4 60.8,-47.7 51.4,-85.5 z"
   id="path8" />
			<path
   d="m 886.7,457.6 c -2.9,-11.8 -14.9,-19 -26.7,-16 l -385,96.1 c -11.8,2.9 -19,14.9 -16,26.7 l 44.5,178.2 c 2.9,11.8 14.9,19 26.7,16 l 385,-96.1 c 11.8,-2.9 19,-14.9 16,-26.7 z m -319.4,274 c -1.6,4 -5.5,6.4 -9.5,6.4 -1.3,0 -2.6,-0.3 -3.9,-0.8 -20.4,-8.4 -29.3,-22.1 -30.2,-23.6 -3,-4.8 -1.5,-11.2 3.3,-14.2 4.8,-3 11.1,-1.5 14.1,3.3 0.4,0.5 6.5,9.6 20.6,15.5 5.2,2.1 7.7,8.1 5.6,13.4 z m 68.1,-24.5 c -7.4,1.8 -14.8,2.7 -22.1,2.7 -40.8,0 -78.1,-27.7 -88.4,-69.1 -12.2,-48.7 17.6,-98.3 66.3,-110.5 48.7,-12.2 98.3,17.6 110.5,66.3 v 0 c 12.2,48.9 -17.5,98.4 -66.3,110.6 z m 191.1,-47.7 c -7.4,1.8 -14.8,2.7 -22.1,2.7 -40.8,0 -78.1,-27.7 -88.4,-69.1 -12.2,-48.7 17.6,-98.3 66.3,-110.5 48.8,-12.2 98.3,17.6 110.5,66.3 12.2,48.9 -17.5,98.4 -66.3,110.6 z m 92.8,-33.9 c -7.6,20.7 -19.7,30.8 -21.1,31.9 -1.9,1.5 -4.2,2.3 -6.4,2.3 -3,0 -6,-1.3 -8,-3.9 -3.5,-4.4 -2.8,-10.9 1.5,-14.4 0.3,-0.2 9.1,-7.8 14.7,-23 2,-5.3 7.9,-8.1 13.2,-6.1 5.3,1.9 8,7.8 6.1,13.2 z"
   id="path10" />
			<path
   d="m 804.5,500.4 c -5.6,0 -11.4,0.7 -17.1,2.1 -37.7,9.4 -60.8,47.8 -51.4,85.5 8,32 36.8,53.5 68.4,53.5 5.6,0 11.4,-0.7 17.1,-2.1 37.7,-9.4 60.8,-47.8 51.4,-85.5 -8,-32 -36.8,-53.5 -68.4,-53.5 z"
   id="path12" />
			<path
   class="st1"
   d="m 372.6,611 c -1.4,15.1 9.7,28.5 24.8,30 15.1,1.4 28.5,-9.7 30,-24.8 1.4,-15.1 -25.8,-71.8 -25.8,-71.8 0,0 -27.5,51.5 -29,66.6 z"
   id="path14" />
			<path
   d="m 1108.4,881 c -12.4,-6 -26.5,-6.1 -38.6,-1 l 0.8,-1.3 c 1.5,-2.4 0.4,-5.5 -2.3,-6.5 l -19.3,-8.9 -35,56.7 20.8,9.9 c 2,0.7 4.2,0 5.3,-1.8 l 1,-1.6 c 0.9,13.1 7.2,25.6 18.1,34.1 2.1,1.6 5.1,1.1 6.5,-1.1 l 44.6,-72.1 c 1.4,-2.3 0.5,-5.3 -1.9,-6.4 z"
   id="path16" />
			<path
   d="m 311.9,852.3 -0.8,1.7 c -2.5,-12.9 -10.3,-24.5 -22.2,-31.5 -2.3,-1.3 -5.2,-0.4 -6.3,1.9 l -35.3,77.1 c -1.1,2.4 0.1,5.2 2.6,6 13.1,4.4 27,2.7 38.4,-3.8 l -0.6,1.3 c -1.2,2.6 0.3,5.5 3.1,6.1 l 19.5,8.1 27.6,-60.3 -21,-9.2 c -2.1,-0.3 -4.2,0.7 -5,2.6 z"
   id="path18" />
		</g>
	</g>
	<g
   id="g34">
		<path
   class="st0"
   d="M 701.7,596.6 C 689.5,547.9 640,518.1 591.2,530.3 c -48.7,12.2 -78.5,61.7 -66.3,110.5 10.3,41.4 47.6,69.1 88.4,69.1 7.3,0 14.7,-0.9 22.1,-2.7 48.8,-12.3 78.5,-61.8 66.3,-110.6 z m -71.3,90.6 c -37.7,9.4 -76.1,-13.6 -85.5,-51.4 -9.4,-37.7 13.6,-76.1 51.4,-85.5 5.7,-1.4 11.4,-2.1 17.1,-2.1 31.6,0 60.5,21.4 68.4,53.5 v 0 c 9.4,37.7 -13.6,76 -51.4,85.5 z"
   id="path24" />
		<path
   class="st0"
   d="m 892.9,548.9 c -12.2,-48.7 -61.7,-78.5 -110.5,-66.3 -48.7,12.2 -78.5,61.7 -66.3,110.5 10.3,41.4 47.6,69.1 88.4,69.1 7.3,0 14.7,-0.9 22.1,-2.7 48.7,-12.3 78.4,-61.8 66.3,-110.6 z m -71.4,90.5 c -5.7,1.4 -11.4,2.1 -17.1,2.1 -31.6,0 -60.5,-21.4 -68.4,-53.5 -9.4,-37.7 13.6,-76.1 51.4,-85.5 5.7,-1.4 11.4,-2.1 17.1,-2.1 31.6,0 60.5,21.4 68.4,53.5 9.4,37.7 -13.6,76.1 -51.4,85.5 z"
   id="path26" />
		<path
   class="st0"
   d="M 1104.5,318 1064,440.6 c -9.7,29.3 -33.3,51.2 -63.3,58.5 L 920,518.9 850.3,239.6 C 844.4,216.2 814.4,209.4 799,228.1 L 604,466.3 319.9,347.8 c -22.3,-9.3 -45.7,10.8 -39.8,34.3 l 65.7,263.2 -9.3,-7.8 c -37.2,-31.4 -87,-41.4 -133.4,-26.6 l -122.9,39.2 15.6,49 122.9,-39.2 c 29.4,-9.4 61,-3.1 84.5,16.8 l 63.8,54 17.9,71.8 c 6.9,27.6 34.8,44.3 62.4,37.4 l 124.8,-31.2 -53.3,84 C 505.5,914.1 478,922.4 455,912 l -117.2,-52.9 -27.6,60.3 117.6,52.9 c 15.2,6.9 31.6,10.3 48.1,10.3 11.3,0 22.7,-1.6 33.7,-5 27,-8.1 50.2,-25.8 65.2,-49.6 l 90.5,-142.5 33.6,-8.4 c 24.5,8.2 315,142.8 315,142.8 L 1049,863.2 C 961.8,812.3 875,774.1 812.3,748.8 l 105.6,-26.4 c 27.6,-6.9 44.3,-34.8 37.4,-62.4 l -22.8,-91.3 80.5,-19.8 c 47.3,-11.6 84.6,-46.1 99.8,-92.4 L 1153.2,334 Z M 427.4,616.2 c -1.4,15.1 -14.8,26.2 -30,24.8 -15.1,-1.4 -26.2,-14.8 -24.8,-30 1.4,-15.1 28.9,-66.6 28.9,-66.6 0,0 27.3,56.7 25.9,71.8 z m 487.7,46.4 -385,96.1 c -11.8,2.9 -23.8,-4.2 -26.7,-16 L 458.9,564.5 c -3,-11.8 4.2,-23.8 16,-26.7 l 385,-96.1 c 11.8,-2.9 23.8,4.2 26.7,16 l 44.5,178.2 c 3,11.8 -4.2,23.7 -16,26.7 z"
   id="path28"
   style="fill:#bfbfbf;fill-opacity:1" />
		<path
   class="st0"
   d="m 561.7,718.1 c -14.1,-5.8 -20.3,-14.9 -20.6,-15.5 -3,-4.8 -9.3,-6.2 -14.1,-3.3 -4.8,3 -6.3,9.3 -3.3,14.2 0.9,1.5 9.8,15.2 30.2,23.6 1.3,0.5 2.6,0.8 3.9,0.8 4,0 7.9,-2.4 9.5,-6.4 2.1,-5.2 -0.4,-11.2 -5.6,-13.4 z"
   id="path30" />
		<path
   class="st0"
   d="m 913.2,612.2 c -5.3,-2 -11.2,0.8 -13.2,6.1 -5.6,15.2 -14.4,22.7 -14.7,23 -4.4,3.6 -5.1,10 -1.5,14.4 2,2.5 5,3.9 8,3.9 2.3,0 4.5,-0.7 6.4,-2.3 1.4,-1.1 13.4,-11.2 21.1,-31.9 1.9,-5.3 -0.8,-11.2 -6.1,-13.2 z"
   id="path32" />
	</g>
</g>
</svg>
