<?xml version="1.0" encoding="UTF-8" standalone="no"?>
<!-- Generator: Adobe Illustrator 24.1.2, SVG Export Plug-In . SVG Version: 6.00 Build 0)  -->

<svg
   version="1.1"
   id="Layer_1"
   x="0px"
   y="0px"
   viewBox="0 0 918.01324 956.78809"
   xml:space="preserve"
   sodipodi:docname="13.svg"
   inkscape:version="1.1.1 (3bf5ae0d25, 2021-09-20)"
   width="918.01324"
   height="956.78809"
   xmlns:inkscape="http://www.inkscape.org/namespaces/inkscape"
   xmlns:sodipodi="http://sodipodi.sourceforge.net/DTD/sodipodi-0.dtd"
   xmlns="http://www.w3.org/2000/svg"
   xmlns:svg="http://www.w3.org/2000/svg"><defs
   id="defs27" /><sodipodi:namedview
   id="namedview25"
   pagecolor="#505050"
   bordercolor="#ffffff"
   borderopacity="1"
   inkscape:pageshadow="0"
   inkscape:pageopacity="0"
   inkscape:pagecheckerboard="1"
   showgrid="false"
   inkscape:zoom="0.54"
   inkscape:cx="462.03704"
   inkscape:cy="476.85185"
   inkscape:window-width="1920"
   inkscape:window-height="999"
   inkscape:window-x="0"
   inkscape:window-y="0"
   inkscape:window-maximized="1"
   inkscape:current-layer="Layer_1"
   fit-margin-top="0"
   fit-margin-left="0"
   fit-margin-right="0"
   fit-margin-bottom="0" />
<style
   type="text/css"
   id="style2">
	.st0{fill:#FFFFFF;}
	.st1{fill:#7F52FF;}
</style>
<g
   id="g22"
   transform="translate(-140.95231,-121.5119)">
	<g
   id="g12">
		<path
   d="m 454.1,762.3 -1.9,5.7 -25.3,-30 c -3.7,-4.3 -10.2,-4.9 -14.5,-1.2 -1.4,1.2 -2.4,2.6 -3,4.2 0.2,-1.2 0.2,-2.5 -0.1,-3.7 -1.2,-5.6 -6.6,-9.1 -12.2,-7.9 l -38.3,8.1 2,-6 c 0.3,-0.8 -0.2,-1.6 -0.9,-1.9 l -15.2,-5.2 -16.5,48.8 15.3,5.2 c 0.8,0.3 1.6,-0.2 1.9,-0.9 l 1.9,-5.7 25.3,30 c 2,2.4 4.9,3.6 7.9,3.6 2.3,0 4.7,-0.8 6.6,-2.4 1.4,-1.2 2.4,-2.6 3,-4.2 -0.2,1.2 -0.2,2.5 0.1,3.7 1,4.8 5.3,8.2 10.1,8.2 0.7,0 1.4,-0.1 2.1,-0.2 l 38.3,-8.1 -2,6 c -0.3,0.8 0.2,1.6 0.9,1.9 l 14.8,4.9 16.9,-48.5 -15.3,-5.1 c -0.8,-0.5 -1.6,0 -1.9,0.7 z m -56,28 c -3.6,0.8 -6.3,3.3 -7.5,6.4 0.5,-2.9 -0.3,-5.9 -2.3,-8.2 l -26,-30.7 39,-8.3 c 3.6,-0.8 6.3,-3.3 7.5,-6.4 -0.5,2.9 0.3,5.9 2.3,8.2 l 26,30.7 z"
   id="path4" />
		<path
   d="M 840.7,490.5 474.5,337.9 c -11.2,-4.7 -24.1,0.6 -28.8,11.9 L 375,519.3 c -4.7,11.2 0.6,24.1 11.9,28.8 l 366.3,152.7 c 11.2,4.7 24.1,-0.6 28.8,-11.9 l 70.7,-169.6 c 4.6,-11.2 -0.7,-24.1 -12,-28.8 z m -251.4,34.8 c -1.6,3.9 -5.5,6.3 -9.5,6.3 -1.3,0 -2.7,-0.3 -4,-0.8 -5.2,-2.2 -7.7,-8.2 -5.5,-13.5 7.2,-17.4 7.3,-36.6 0.1,-54 -7.2,-17.4 -20.7,-31 -38.1,-38.3 -17.4,-7.3 -36.6,-7.3 -54,-0.1 -17.4,7.2 -31,20.7 -38.3,38.1 -2.2,5.2 -8.2,7.7 -13.5,5.5 -5.2,-2.2 -7.7,-8.2 -5.5,-13.5 9.4,-22.5 26.9,-39.9 49.4,-49.2 22.5,-9.3 47.3,-9.2 69.7,0.2 22.5,9.4 39.9,26.9 49.2,49.4 9.4,22.7 9.4,47.4 0,69.9 z m 181.8,75.8 c -1.6,3.9 -5.5,6.3 -9.5,6.3 -1.3,0 -2.7,-0.3 -4,-0.8 -5.2,-2.2 -7.7,-8.2 -5.5,-13.5 7.2,-17.4 7.3,-36.6 0.1,-54 -7.2,-17.4 -20.7,-31 -38.1,-38.3 -17.4,-7.3 -36.6,-7.3 -54,-0.1 -17.4,7.2 -31,20.7 -38.3,38.1 -2.2,5.2 -8.2,7.7 -13.5,5.5 -5.2,-2.2 -7.7,-8.2 -5.5,-13.5 9.4,-22.5 26.9,-39.9 49.4,-49.2 22.5,-9.3 47.3,-9.2 69.7,0.2 22.5,9.4 39.9,26.9 49.2,49.4 9.5,22.6 9.4,47.4 0,69.9 z"
   id="path6" />
		<path
   d="m 808.9,1040.2 h 3.2 c 2.8,0 4.9,-2.6 4.3,-5.4 l -5.9,-21.1 h -68.4 l 5.5,22.9 c 0.4,2.1 2.2,3.5 4.3,3.5 h 2.2 c -10.7,7.6 -18,19.6 -19.4,33.3 -0.3,2.6 1.8,4.9 4.4,4.9 h 84.8 c 2.6,0 4.7,-2.3 4.4,-4.9 -1.5,-13.6 -8.8,-25.6 -19.4,-33.2 z"
   id="path8" />
		<path
   d="m 684.5,1040.2 h 1.1 c 2.8,0 4.9,-2.6 4.3,-5.4 l -1.9,-21.1 v 0 h -66.6 l 1.9,22.9 c 0.4,2.1 2.2,3.5 4.3,3.5 h 2.2 c -10.7,7.6 -18,19.6 -19.4,33.3 -0.3,2.6 1.8,4.9 4.4,4.9 h 84.8 c 2.6,0 4.7,-2.3 4.4,-4.9 -1.5,-13.6 -8.9,-25.6 -19.5,-33.2 z"
   id="path10" />
	</g>
	<g
   id="g20">
		<path
   class="st0"
   d="m 1022.5,326 -20.7,5.2 -17.7,4.4 -39,9.7 -14.6,3.6 -13.6,3.4 -31.8,7.9 -161.4,40.3 -157.2,-264.6 c -12.3,-20.8 -43.1,-18.6 -52.4,3.7 l -166.7,400 c -10.9,26.2 1.5,56.3 27.7,67.3 l 2.3,1 c -12.1,24 -29,40.6 -51.8,51.2 -29.7,13.9 -65.2,15.9 -99.5,17.8 -4.1,0.2 -8.2,0.5 -12.2,0.7 -26.5,1.6 -52.6,18 -64.9,40.7 -11.3,20.8 -10.7,44.4 1.8,66.5 10.2,18.1 24.1,29.7 41.1,34.4 5.7,1.6 11.5,2.3 17.2,2.3 26.8,0 53.5,-15.3 77.5,-29.2 12.1,-6.9 34.4,-19.7 41.6,-19 l 16.5,-48.8 c -27.3,-9.3 -56,7.2 -83.7,23.2 -18.4,10.6 -43.6,25.1 -55.5,21.9 -1.3,-0.3 -5.1,-1.4 -9.9,-10 -4.7,-8.4 -3.2,-13.3 -1.4,-16.7 4,-7.3 14,-13.4 22.9,-13.9 3.9,-0.2 7.9,-0.5 11.9,-0.7 37.3,-2.1 79.6,-4.5 118.3,-22.5 34.7,-16.2 60.3,-41.9 77.6,-78 l 170.8,71.2 13.8,170.1 c -12.5,-8 -25.3,-20.3 -39.2,-33.6 -26.5,-25.3 -56.6,-54 -99.1,-68.8 L 454.4,815 c 31.7,11.2 56.8,34.9 80.5,57.5 23.9,22.8 48.5,46.3 79.5,54.4 l 7,86.8 H 688 l -7.3,-87 c 12.3,-2.2 24.3,-5.6 36,-10.1 l 25.4,97.1 h 68.4 L 776,882.2 c 20.2,-16 39.2,-36 57.1,-60 6.2,-8.4 12.1,-16.9 17.6,-25.5 17,-2.8 32.1,-14 39.2,-31 l 166.7,-400 c 9.4,-22.2 -10.7,-45.6 -34.1,-39.7 z M 375,519.3 445.7,349.7 c 4.7,-11.2 17.6,-16.6 28.8,-11.9 l 366.3,152.7 c 11.2,4.7 16.5,17.6 11.9,28.8 L 782,688.9 c -4.7,11.2 -17.6,16.6 -28.8,11.9 L 386.8,548.1 C 375.6,543.4 370.3,530.5 375,519.3 Z m 301.4,355.6 -12,-147.4 3.1,1.3 36,137.4 c -8.9,3.8 -17.9,6.7 -27.1,8.7 z m 115.5,-83.4 c -9.8,13.2 -20,24.8 -30.5,35 l -17.2,-65.7 53.7,22.4 c -1.9,2.8 -3.9,5.5 -6,8.3 z"
   id="path14"
   style="fill:#bfbfbf;fill-opacity:1" />
		<path
   class="st0"
   d="m 608.5,544.4 c 5.2,2.2 11.3,-0.3 13.5,-5.5 7.2,-17.4 20.8,-30.9 38.3,-38.1 17.4,-7.2 36.6,-7.1 54,0.1 17.4,7.2 30.9,20.8 38.1,38.3 7.2,17.4 7.1,36.6 -0.1,54 -2.2,5.2 0.3,11.3 5.5,13.5 1.3,0.5 2.6,0.8 4,0.8 4,0 7.9,-2.4 9.5,-6.3 9.4,-22.5 9.4,-47.2 0.2,-69.7 -9.3,-22.5 -26.7,-40.1 -49.2,-49.4 -22.5,-9.4 -47.2,-9.4 -69.7,-0.2 -22.5,9.3 -40.1,26.7 -49.4,49.2 -2.5,5.1 0,11.1 5.3,13.3 z"
   id="path16" />
		<path
   class="st0"
   d="m 426.6,468.6 c 5.2,2.2 11.3,-0.3 13.5,-5.5 7.2,-17.4 20.8,-30.9 38.3,-38.1 17.4,-7.2 36.6,-7.1 54,0.1 17.4,7.2 30.9,20.8 38.1,38.3 7.2,17.4 7.1,36.6 -0.1,54 -2.2,5.2 0.3,11.3 5.5,13.5 1.3,0.5 2.6,0.8 4,0.8 4,0 7.9,-2.4 9.5,-6.3 9.4,-22.5 9.4,-47.2 0.2,-69.7 -9.3,-22.5 -26.7,-40.1 -49.2,-49.4 -22.5,-9.4 -47.2,-9.4 -69.7,-0.2 -22.5,9.3 -40.1,26.7 -49.4,49.2 -2.4,5.1 0.1,11.1 5.3,13.3 z"
   id="path18" />
	</g>
</g>
</svg>
